%TF.GenerationSoftware,KiCad,Pcbnew,9.0.2*%
%TF.CreationDate,2025-07-03T22:57:50-04:00*%
%TF.ProjectId,RamBanks,52616d42-616e-46b7-932e-6b696361645f,A*%
%TF.SameCoordinates,Original*%
%TF.FileFunction,Drillmap*%
%TF.FilePolarity,Positive*%
%FSLAX45Y45*%
G04 Gerber Fmt 4.5, Leading zero omitted, Abs format (unit mm)*
G04 Created by KiCad (PCBNEW 9.0.2) date 2025-07-03 22:57:50*
%MOMM*%
%LPD*%
G01*
G04 APERTURE LIST*
%ADD10C,0.050000*%
%ADD11C,0.200000*%
G04 APERTURE END LIST*
D10*
X16700500Y-5930900D02*
X17335500Y-6565900D01*
X17335500Y-12280900D01*
X15430500Y-14185900D01*
X10350500Y-14185900D01*
X10350500Y-12915900D01*
X11620500Y-11645900D01*
X11620500Y-4660900D01*
X16700500Y-4660900D01*
X16700500Y-5930900D01*
D11*
X10608777Y-14499884D02*
X10608777Y-14299884D01*
X10608777Y-14299884D02*
X10656396Y-14299884D01*
X10656396Y-14299884D02*
X10684967Y-14309408D01*
X10684967Y-14309408D02*
X10704015Y-14328455D01*
X10704015Y-14328455D02*
X10713539Y-14347503D01*
X10713539Y-14347503D02*
X10723063Y-14385598D01*
X10723063Y-14385598D02*
X10723063Y-14414169D01*
X10723063Y-14414169D02*
X10713539Y-14452265D01*
X10713539Y-14452265D02*
X10704015Y-14471312D01*
X10704015Y-14471312D02*
X10684967Y-14490360D01*
X10684967Y-14490360D02*
X10656396Y-14499884D01*
X10656396Y-14499884D02*
X10608777Y-14499884D01*
X10808777Y-14499884D02*
X10808777Y-14366550D01*
X10808777Y-14404646D02*
X10818301Y-14385598D01*
X10818301Y-14385598D02*
X10827824Y-14376074D01*
X10827824Y-14376074D02*
X10846872Y-14366550D01*
X10846872Y-14366550D02*
X10865920Y-14366550D01*
X10932586Y-14499884D02*
X10932586Y-14366550D01*
X10932586Y-14299884D02*
X10923063Y-14309408D01*
X10923063Y-14309408D02*
X10932586Y-14318931D01*
X10932586Y-14318931D02*
X10942110Y-14309408D01*
X10942110Y-14309408D02*
X10932586Y-14299884D01*
X10932586Y-14299884D02*
X10932586Y-14318931D01*
X11056396Y-14499884D02*
X11037348Y-14490360D01*
X11037348Y-14490360D02*
X11027824Y-14471312D01*
X11027824Y-14471312D02*
X11027824Y-14299884D01*
X11161158Y-14499884D02*
X11142110Y-14490360D01*
X11142110Y-14490360D02*
X11132586Y-14471312D01*
X11132586Y-14471312D02*
X11132586Y-14299884D01*
X11389729Y-14499884D02*
X11389729Y-14299884D01*
X11389729Y-14299884D02*
X11456396Y-14442741D01*
X11456396Y-14442741D02*
X11523062Y-14299884D01*
X11523062Y-14299884D02*
X11523062Y-14499884D01*
X11704015Y-14499884D02*
X11704015Y-14395122D01*
X11704015Y-14395122D02*
X11694491Y-14376074D01*
X11694491Y-14376074D02*
X11675443Y-14366550D01*
X11675443Y-14366550D02*
X11637348Y-14366550D01*
X11637348Y-14366550D02*
X11618301Y-14376074D01*
X11704015Y-14490360D02*
X11684967Y-14499884D01*
X11684967Y-14499884D02*
X11637348Y-14499884D01*
X11637348Y-14499884D02*
X11618301Y-14490360D01*
X11618301Y-14490360D02*
X11608777Y-14471312D01*
X11608777Y-14471312D02*
X11608777Y-14452265D01*
X11608777Y-14452265D02*
X11618301Y-14433217D01*
X11618301Y-14433217D02*
X11637348Y-14423693D01*
X11637348Y-14423693D02*
X11684967Y-14423693D01*
X11684967Y-14423693D02*
X11704015Y-14414169D01*
X11799253Y-14366550D02*
X11799253Y-14566550D01*
X11799253Y-14376074D02*
X11818301Y-14366550D01*
X11818301Y-14366550D02*
X11856396Y-14366550D01*
X11856396Y-14366550D02*
X11875443Y-14376074D01*
X11875443Y-14376074D02*
X11884967Y-14385598D01*
X11884967Y-14385598D02*
X11894491Y-14404646D01*
X11894491Y-14404646D02*
X11894491Y-14461788D01*
X11894491Y-14461788D02*
X11884967Y-14480836D01*
X11884967Y-14480836D02*
X11875443Y-14490360D01*
X11875443Y-14490360D02*
X11856396Y-14499884D01*
X11856396Y-14499884D02*
X11818301Y-14499884D01*
X11818301Y-14499884D02*
X11799253Y-14490360D01*
X11980205Y-14480836D02*
X11989729Y-14490360D01*
X11989729Y-14490360D02*
X11980205Y-14499884D01*
X11980205Y-14499884D02*
X11970682Y-14490360D01*
X11970682Y-14490360D02*
X11980205Y-14480836D01*
X11980205Y-14480836D02*
X11980205Y-14499884D01*
X11980205Y-14376074D02*
X11989729Y-14385598D01*
X11989729Y-14385598D02*
X11980205Y-14395122D01*
X11980205Y-14395122D02*
X11970682Y-14385598D01*
X11970682Y-14385598D02*
X11980205Y-14376074D01*
X11980205Y-14376074D02*
X11980205Y-14395122D01*
M02*
