%TF.GenerationSoftware,KiCad,Pcbnew,9.0.2*%
%TF.CreationDate,2025-07-03T22:57:50-04:00*%
%TF.ProjectId,RamBanks,52616d42-616e-46b7-932e-6b696361645f,A*%
%TF.SameCoordinates,Original*%
%TF.FileFunction,Drillmap*%
%TF.FilePolarity,Positive*%
%FSLAX45Y45*%
G04 Gerber Fmt 4.5, Leading zero omitted, Abs format (unit mm)*
G04 Created by KiCad (PCBNEW 9.0.2) date 2025-07-03 22:57:50*
%MOMM*%
%LPD*%
G01*
G04 APERTURE LIST*
%ADD10C,0.050000*%
%ADD11C,0.200000*%
%ADD12C,0.100000*%
G04 APERTURE END LIST*
D10*
X16700500Y-5930900D02*
X17335500Y-6565900D01*
X17335500Y-12280900D01*
X15430500Y-14185900D01*
X10350500Y-14185900D01*
X10350500Y-12915900D01*
X11620500Y-11645900D01*
X11620500Y-4660900D01*
X16700500Y-4660900D01*
X16700500Y-5930900D01*
D11*
D12*
X11021300Y-13307300D02*
X11051300Y-13337300D01*
X11051300Y-13307300D02*
X11021300Y-13337300D01*
X11736788Y-6550900D02*
X11766788Y-6580900D01*
X11766788Y-6550900D02*
X11736788Y-6580900D01*
X11754700Y-7696204D02*
X11784700Y-7726204D01*
X11784700Y-7696204D02*
X11754700Y-7726204D01*
X11754700Y-7795892D02*
X11784700Y-7825892D01*
X11784700Y-7795892D02*
X11754700Y-7825892D01*
X11754700Y-7918425D02*
X11784700Y-7948425D01*
X11784700Y-7918425D02*
X11754700Y-7948425D01*
X11754700Y-8034225D02*
X11784700Y-8064225D01*
X11784700Y-8034225D02*
X11754700Y-8064225D01*
X11794788Y-6470055D02*
X11824788Y-6500055D01*
X11824788Y-6470055D02*
X11794788Y-6500055D01*
X11846800Y-12494500D02*
X11876800Y-12524500D01*
X11876800Y-12494500D02*
X11846800Y-12524500D01*
X11852788Y-6394309D02*
X11882788Y-6424309D01*
X11882788Y-6394309D02*
X11852788Y-6424309D01*
X11910300Y-9522700D02*
X11940300Y-9552700D01*
X11940300Y-9522700D02*
X11910300Y-9552700D01*
X11913243Y-9442754D02*
X11943243Y-9472754D01*
X11943243Y-9442754D02*
X11913243Y-9472754D01*
X11923000Y-6271500D02*
X11953000Y-6301500D01*
X11953000Y-6271500D02*
X11923000Y-6301500D01*
X11923000Y-8367000D02*
X11953000Y-8397000D01*
X11953000Y-8367000D02*
X11923000Y-8397000D01*
X11923000Y-8519400D02*
X11953000Y-8549400D01*
X11953000Y-8519400D02*
X11923000Y-8549400D01*
X11923000Y-8671800D02*
X11953000Y-8701800D01*
X11953000Y-8671800D02*
X11923000Y-8701800D01*
X11943320Y-5837160D02*
X11973320Y-5867160D01*
X11973320Y-5837160D02*
X11943320Y-5867160D01*
X11968300Y-6495134D02*
X11998300Y-6525134D01*
X11998300Y-6495134D02*
X11968300Y-6525134D01*
X11968300Y-6575134D02*
X11998300Y-6605134D01*
X11998300Y-6575134D02*
X11968300Y-6605134D01*
X11978370Y-6415770D02*
X12008370Y-6445770D01*
X12008370Y-6415770D02*
X11978370Y-6445770D01*
X12019830Y-5369800D02*
X12049830Y-5399800D01*
X12049830Y-5369800D02*
X12019830Y-5399800D01*
X12019830Y-5522200D02*
X12049830Y-5552200D01*
X12049830Y-5522200D02*
X12019830Y-5552200D01*
X12024600Y-10043400D02*
X12054600Y-10073400D01*
X12054600Y-10043400D02*
X12024600Y-10073400D01*
X12037300Y-12253200D02*
X12067300Y-12283200D01*
X12067300Y-12253200D02*
X12037300Y-12283200D01*
X12050000Y-10399000D02*
X12080000Y-10429000D01*
X12080000Y-10399000D02*
X12050000Y-10429000D01*
X12050000Y-10589500D02*
X12080000Y-10619500D01*
X12080000Y-10589500D02*
X12050000Y-10619500D01*
X12050000Y-10780000D02*
X12080000Y-10810000D01*
X12080000Y-10780000D02*
X12050000Y-10810000D01*
X12050000Y-10970500D02*
X12080000Y-11000500D01*
X12080000Y-10970500D02*
X12050000Y-11000500D01*
X12050000Y-11161000D02*
X12080000Y-11191000D01*
X12080000Y-11161000D02*
X12050000Y-11191000D01*
X12050000Y-11351500D02*
X12080000Y-11381500D01*
X12080000Y-11351500D02*
X12050000Y-11381500D01*
X12050000Y-11542000D02*
X12080000Y-11572000D01*
X12080000Y-11542000D02*
X12050000Y-11572000D01*
X12050000Y-11732500D02*
X12080000Y-11762500D01*
X12080000Y-11732500D02*
X12050000Y-11762500D01*
X12050000Y-11923000D02*
X12080000Y-11953000D01*
X12080000Y-11923000D02*
X12050000Y-11953000D01*
X12050000Y-12481800D02*
X12080000Y-12511800D01*
X12080000Y-12481800D02*
X12050000Y-12511800D01*
X12075400Y-5623800D02*
X12105400Y-5653800D01*
X12105400Y-5623800D02*
X12075400Y-5653800D01*
X12075400Y-7808200D02*
X12105400Y-7838200D01*
X12105400Y-7808200D02*
X12075400Y-7838200D01*
X12075400Y-8062200D02*
X12105400Y-8092200D01*
X12105400Y-8062200D02*
X12075400Y-8092200D01*
X12075400Y-8519400D02*
X12105400Y-8549400D01*
X12105400Y-8519400D02*
X12075400Y-8549400D01*
X12075400Y-10119600D02*
X12105400Y-10149600D01*
X12105400Y-10119600D02*
X12075400Y-10149600D01*
X12083415Y-8164969D02*
X12113415Y-8194969D01*
X12113415Y-8164969D02*
X12083415Y-8194969D01*
X12090640Y-9337280D02*
X12120640Y-9367280D01*
X12120640Y-9337280D02*
X12090640Y-9367280D01*
X12100800Y-6055600D02*
X12130800Y-6085600D01*
X12130800Y-6055600D02*
X12100800Y-6085600D01*
X12100800Y-10043400D02*
X12130800Y-10073400D01*
X12130800Y-10043400D02*
X12100800Y-10073400D01*
X12113500Y-12177000D02*
X12143500Y-12207000D01*
X12143500Y-12177000D02*
X12113500Y-12207000D01*
X12138900Y-12418300D02*
X12168900Y-12448300D01*
X12168900Y-12418300D02*
X12138900Y-12448300D01*
X12150500Y-9915300D02*
X12180500Y-9945300D01*
X12180500Y-9915300D02*
X12150500Y-9945300D01*
X12151600Y-10094200D02*
X12181600Y-10124200D01*
X12181600Y-10094200D02*
X12151600Y-10124200D01*
X12156680Y-9240760D02*
X12186680Y-9270760D01*
X12186680Y-9240760D02*
X12156680Y-9270760D01*
X12156680Y-9306800D02*
X12186680Y-9336800D01*
X12186680Y-9306800D02*
X12156680Y-9336800D01*
X12166840Y-8199360D02*
X12196840Y-8229360D01*
X12196840Y-8199360D02*
X12166840Y-8229360D01*
X12167465Y-8300335D02*
X12197465Y-8330335D01*
X12197465Y-8300335D02*
X12167465Y-8330335D01*
X12168321Y-7491781D02*
X12198321Y-7521781D01*
X12198321Y-7491781D02*
X12168321Y-7521781D01*
X12168621Y-7825221D02*
X12198621Y-7855221D01*
X12198621Y-7825221D02*
X12168621Y-7855221D01*
X12177000Y-5725400D02*
X12207000Y-5755400D01*
X12207000Y-5725400D02*
X12177000Y-5755400D01*
X12177000Y-7351000D02*
X12207000Y-7381000D01*
X12207000Y-7351000D02*
X12177000Y-7381000D01*
X12177000Y-8671800D02*
X12207000Y-8701800D01*
X12207000Y-8671800D02*
X12177000Y-8701800D01*
X12177000Y-9637000D02*
X12207000Y-9667000D01*
X12207000Y-9637000D02*
X12177000Y-9667000D01*
X12177000Y-9789400D02*
X12207000Y-9819400D01*
X12207000Y-9789400D02*
X12177000Y-9819400D01*
X12182080Y-9393160D02*
X12212080Y-9423160D01*
X12212080Y-9393160D02*
X12182080Y-9423160D01*
X12187160Y-9520160D02*
X12217160Y-9550160D01*
X12217160Y-9520160D02*
X12187160Y-9550160D01*
X12202400Y-5954000D02*
X12232400Y-5984000D01*
X12232400Y-5954000D02*
X12202400Y-5984000D01*
X12212560Y-13172680D02*
X12242560Y-13202680D01*
X12242560Y-13172680D02*
X12212560Y-13202680D01*
X12213254Y-6343215D02*
X12243254Y-6373215D01*
X12243254Y-6343215D02*
X12213254Y-6373215D01*
X12215100Y-6652500D02*
X12245100Y-6682500D01*
X12245100Y-6652500D02*
X12215100Y-6682500D01*
X12216112Y-6733512D02*
X12246112Y-6763512D01*
X12246112Y-6733512D02*
X12216112Y-6763512D01*
X12220125Y-6572658D02*
X12250125Y-6602658D01*
X12250125Y-6572658D02*
X12220125Y-6602658D01*
X12224594Y-6813062D02*
X12254594Y-6843062D01*
X12254594Y-6813062D02*
X12224594Y-6843062D01*
X12227350Y-6202920D02*
X12257350Y-6232920D01*
X12257350Y-6202920D02*
X12227350Y-6232920D01*
X12230839Y-8414761D02*
X12260839Y-8444761D01*
X12260839Y-8414761D02*
X12230839Y-8444761D01*
X12253200Y-5801600D02*
X12283200Y-5831600D01*
X12283200Y-5801600D02*
X12253200Y-5831600D01*
X12288760Y-13126960D02*
X12318760Y-13156960D01*
X12318760Y-13126960D02*
X12288760Y-13156960D01*
X12304000Y-6055600D02*
X12334000Y-6085600D01*
X12334000Y-6055600D02*
X12304000Y-6085600D01*
X12329400Y-5877800D02*
X12359400Y-5907800D01*
X12359400Y-5877800D02*
X12329400Y-5907800D01*
X12367500Y-6462000D02*
X12397500Y-6492000D01*
X12397500Y-6462000D02*
X12367500Y-6492000D01*
X12367500Y-6652500D02*
X12397500Y-6682500D01*
X12397500Y-6652500D02*
X12367500Y-6682500D01*
X12367500Y-6843000D02*
X12397500Y-6873000D01*
X12397500Y-6843000D02*
X12367500Y-6873000D01*
X12380200Y-7711680D02*
X12410200Y-7741680D01*
X12410200Y-7711680D02*
X12380200Y-7741680D01*
X12409372Y-8100587D02*
X12439372Y-8130587D01*
X12439372Y-8100587D02*
X12409372Y-8130587D01*
X12412831Y-7920373D02*
X12442831Y-7950373D01*
X12442831Y-7920373D02*
X12412831Y-7950373D01*
X12416119Y-8188488D02*
X12446119Y-8218488D01*
X12446119Y-8188488D02*
X12416119Y-8218488D01*
X12428960Y-8267451D02*
X12458960Y-8297451D01*
X12458960Y-8267451D02*
X12428960Y-8297451D01*
X12464960Y-9520763D02*
X12494960Y-9550763D01*
X12494960Y-9520763D02*
X12464960Y-9550763D01*
X12466560Y-9159480D02*
X12496560Y-9189480D01*
X12496560Y-9159480D02*
X12466560Y-9189480D01*
X12469100Y-8550300D02*
X12499100Y-8580300D01*
X12499100Y-8550300D02*
X12469100Y-8580300D01*
X12469100Y-8951200D02*
X12499100Y-8981200D01*
X12499100Y-8951200D02*
X12469100Y-8981200D01*
X12469100Y-9014700D02*
X12499100Y-9044700D01*
X12499100Y-9014700D02*
X12469100Y-9044700D01*
X12469100Y-9078200D02*
X12499100Y-9108200D01*
X12499100Y-9078200D02*
X12469100Y-9108200D01*
X12471324Y-10206651D02*
X12501324Y-10236651D01*
X12501324Y-10206651D02*
X12471324Y-10236651D01*
X12476720Y-10033240D02*
X12506720Y-10063240D01*
X12506720Y-10033240D02*
X12476720Y-10063240D01*
X12481800Y-6055600D02*
X12511800Y-6085600D01*
X12511800Y-6055600D02*
X12481800Y-6085600D01*
X12482480Y-12939000D02*
X12512480Y-12969000D01*
X12512480Y-12939000D02*
X12482480Y-12969000D01*
X12494500Y-5446000D02*
X12524500Y-5476000D01*
X12524500Y-5446000D02*
X12494500Y-5476000D01*
X12494500Y-6335000D02*
X12524500Y-6365000D01*
X12524500Y-6335000D02*
X12494500Y-6365000D01*
X12514918Y-13053462D02*
X12544918Y-13083462D01*
X12544918Y-13053462D02*
X12514918Y-13083462D01*
X12532600Y-7053400D02*
X12562600Y-7083400D01*
X12562600Y-7053400D02*
X12532600Y-7083400D01*
X12532600Y-7198600D02*
X12562600Y-7228600D01*
X12562600Y-7198600D02*
X12532600Y-7228600D01*
X12554680Y-13176024D02*
X12584680Y-13206024D01*
X12584680Y-13176024D02*
X12554680Y-13206024D01*
X12566204Y-7126000D02*
X12596204Y-7156000D01*
X12596204Y-7126000D02*
X12566204Y-7156000D01*
X12570700Y-6855700D02*
X12600700Y-6885700D01*
X12600700Y-6855700D02*
X12570700Y-6885700D01*
X12578320Y-10363440D02*
X12608320Y-10393440D01*
X12608320Y-10363440D02*
X12578320Y-10393440D01*
X12583400Y-5954000D02*
X12613400Y-5984000D01*
X12613400Y-5954000D02*
X12583400Y-5984000D01*
X12590600Y-7255169D02*
X12620600Y-7285169D01*
X12620600Y-7255169D02*
X12590600Y-7285169D01*
X12590600Y-7335169D02*
X12620600Y-7365169D01*
X12620600Y-7335169D02*
X12590600Y-7365169D01*
X12593560Y-7459800D02*
X12623560Y-7489800D01*
X12623560Y-7459800D02*
X12593560Y-7489800D01*
X12596100Y-8608300D02*
X12626100Y-8638300D01*
X12626100Y-8608300D02*
X12596100Y-8638300D01*
X12603720Y-9057880D02*
X12633720Y-9087880D01*
X12633720Y-9057880D02*
X12603720Y-9087880D01*
X12604726Y-9129000D02*
X12634726Y-9159000D01*
X12634726Y-9129000D02*
X12604726Y-9159000D01*
X12608800Y-10653000D02*
X12638800Y-10683000D01*
X12638800Y-10653000D02*
X12608800Y-10683000D01*
X12621500Y-5573000D02*
X12651500Y-5603000D01*
X12651500Y-5573000D02*
X12621500Y-5603000D01*
X12662726Y-7289779D02*
X12692726Y-7319779D01*
X12692726Y-7289779D02*
X12662726Y-7319779D01*
X12700240Y-12989800D02*
X12730240Y-13019800D01*
X12730240Y-12989800D02*
X12700240Y-13019800D01*
X12710400Y-6106400D02*
X12740400Y-6136400D01*
X12740400Y-6106400D02*
X12710400Y-6136400D01*
X12710400Y-10246600D02*
X12740400Y-10276600D01*
X12740400Y-10246600D02*
X12710400Y-10276600D01*
X12710400Y-10322800D02*
X12740400Y-10352800D01*
X12740400Y-10322800D02*
X12710400Y-10352800D01*
X12710400Y-10399000D02*
X12740400Y-10429000D01*
X12740400Y-10399000D02*
X12710400Y-10429000D01*
X12710400Y-10475200D02*
X12740400Y-10505200D01*
X12740400Y-10475200D02*
X12710400Y-10505200D01*
X12720726Y-8078350D02*
X12750726Y-8108350D01*
X12750726Y-8078350D02*
X12720726Y-8108350D01*
X12730720Y-12339560D02*
X12760720Y-12369560D01*
X12760720Y-12339560D02*
X12730720Y-12369560D01*
X12734340Y-9309168D02*
X12764340Y-9339168D01*
X12764340Y-9309168D02*
X12734340Y-9339168D01*
X12735800Y-5776200D02*
X12765800Y-5806200D01*
X12765800Y-5776200D02*
X12735800Y-5806200D01*
X12739400Y-9389008D02*
X12769400Y-9419008D01*
X12769400Y-9389008D02*
X12739400Y-9419008D01*
X12739669Y-9469007D02*
X12769669Y-9499007D01*
X12769669Y-9469007D02*
X12739669Y-9499007D01*
X12748500Y-5700000D02*
X12778500Y-5730000D01*
X12778500Y-5700000D02*
X12748500Y-5730000D01*
X12748500Y-9040100D02*
X12778500Y-9070100D01*
X12778500Y-9040100D02*
X12748500Y-9070100D01*
X12748500Y-9120100D02*
X12778500Y-9150100D01*
X12778500Y-9120100D02*
X12748500Y-9150100D01*
X12748500Y-10068800D02*
X12778500Y-10098800D01*
X12778500Y-10068800D02*
X12748500Y-10098800D01*
X12748500Y-11859500D02*
X12778500Y-11889500D01*
X12778500Y-11859500D02*
X12748500Y-11889500D01*
X12757073Y-9232465D02*
X12787073Y-9262465D01*
X12787073Y-9232465D02*
X12757073Y-9262465D01*
X12760000Y-8148046D02*
X12790000Y-8178046D01*
X12790000Y-8148046D02*
X12760000Y-8178046D01*
X12771929Y-7518071D02*
X12801929Y-7548071D01*
X12801929Y-7518071D02*
X12771929Y-7548071D01*
X12773959Y-7612153D02*
X12803959Y-7642153D01*
X12803959Y-7612153D02*
X12773959Y-7642153D01*
X12773959Y-7713753D02*
X12803959Y-7743753D01*
X12803959Y-7713753D02*
X12773959Y-7743753D01*
X12773959Y-7815353D02*
X12803959Y-7845353D01*
X12803959Y-7815353D02*
X12773959Y-7845353D01*
X12782595Y-6986491D02*
X12812595Y-7016491D01*
X12812595Y-6986491D02*
X12782595Y-7016491D01*
X12805591Y-6324924D02*
X12835591Y-6354924D01*
X12835591Y-6324924D02*
X12805591Y-6354924D01*
X12806920Y-7310360D02*
X12836920Y-7340360D01*
X12836920Y-7310360D02*
X12806920Y-7340360D01*
X12824504Y-11122900D02*
X12854504Y-11152900D01*
X12854504Y-11122900D02*
X12824504Y-11152900D01*
X12827240Y-7396720D02*
X12857240Y-7426720D01*
X12857240Y-7396720D02*
X12827240Y-7426720D01*
X12831818Y-7096852D02*
X12861818Y-7126852D01*
X12861818Y-7096852D02*
X12831818Y-7126852D01*
X12837400Y-11516600D02*
X12867400Y-11546600D01*
X12867400Y-11516600D02*
X12837400Y-11546600D01*
X12847560Y-11689320D02*
X12877560Y-11719320D01*
X12877560Y-11689320D02*
X12847560Y-11719320D01*
X12872960Y-12202400D02*
X12902960Y-12232400D01*
X12902960Y-12202400D02*
X12872960Y-12232400D01*
X12875500Y-6881324D02*
X12905500Y-6911324D01*
X12905500Y-6881324D02*
X12875500Y-6911324D01*
X12888200Y-6335000D02*
X12918200Y-6365000D01*
X12918200Y-6335000D02*
X12888200Y-6365000D01*
X12913600Y-10932400D02*
X12943600Y-10962400D01*
X12943600Y-10932400D02*
X12913600Y-10962400D01*
X12939000Y-5446000D02*
X12969000Y-5476000D01*
X12969000Y-5446000D02*
X12939000Y-5476000D01*
X12939000Y-5636500D02*
X12969000Y-5666500D01*
X12969000Y-5636500D02*
X12939000Y-5666500D01*
X12939000Y-5890500D02*
X12969000Y-5920500D01*
X12969000Y-5890500D02*
X12939000Y-5920500D01*
X12939000Y-11516600D02*
X12969000Y-11546600D01*
X12969000Y-11516600D02*
X12939000Y-11546600D01*
X12952349Y-8564028D02*
X12982349Y-8594028D01*
X12982349Y-8564028D02*
X12952349Y-8594028D01*
X12964400Y-10094200D02*
X12994400Y-10124200D01*
X12994400Y-10094200D02*
X12964400Y-10124200D01*
X12964400Y-10246600D02*
X12994400Y-10276600D01*
X12994400Y-10246600D02*
X12964400Y-10276600D01*
X12964400Y-10322800D02*
X12994400Y-10352800D01*
X12994400Y-10322800D02*
X12964400Y-10352800D01*
X12964400Y-10399000D02*
X12994400Y-10429000D01*
X12994400Y-10399000D02*
X12964400Y-10429000D01*
X12964400Y-10475200D02*
X12994400Y-10505200D01*
X12994400Y-10475200D02*
X12964400Y-10505200D01*
X12965400Y-8485100D02*
X12995400Y-8515100D01*
X12995400Y-8485100D02*
X12965400Y-8515100D01*
X12994880Y-13167600D02*
X13024880Y-13197600D01*
X13024880Y-13167600D02*
X12994880Y-13197600D01*
X13027900Y-7566900D02*
X13057900Y-7596900D01*
X13057900Y-7566900D02*
X13027900Y-7596900D01*
X13040600Y-9796600D02*
X13070600Y-9826600D01*
X13070600Y-9796600D02*
X13040600Y-9826600D01*
X13040600Y-11516600D02*
X13070600Y-11546600D01*
X13070600Y-11516600D02*
X13040600Y-11546600D01*
X13050760Y-11242280D02*
X13080760Y-11272280D01*
X13080760Y-11242280D02*
X13050760Y-11272280D01*
X13055840Y-5760960D02*
X13085840Y-5790960D01*
X13085840Y-5760960D02*
X13055840Y-5790960D01*
X13066000Y-6017500D02*
X13096000Y-6047500D01*
X13096000Y-6017500D02*
X13066000Y-6047500D01*
X13066000Y-12324320D02*
X13096000Y-12354320D01*
X13096000Y-12324320D02*
X13066000Y-12354320D01*
X13071080Y-12999960D02*
X13101080Y-13029960D01*
X13101080Y-12999960D02*
X13071080Y-13029960D01*
X13072340Y-9941285D02*
X13102340Y-9971285D01*
X13102340Y-9941285D02*
X13072340Y-9971285D01*
X13078700Y-6754100D02*
X13108700Y-6784100D01*
X13108700Y-6754100D02*
X13078700Y-6784100D01*
X13081240Y-9459200D02*
X13111240Y-9489200D01*
X13111240Y-9459200D02*
X13081240Y-9489200D01*
X13087000Y-7193324D02*
X13117000Y-7223324D01*
X13117000Y-7193324D02*
X13087000Y-7223324D01*
X13090086Y-7503752D02*
X13120086Y-7533752D01*
X13120086Y-7503752D02*
X13090086Y-7533752D01*
X13091400Y-6335000D02*
X13121400Y-6365000D01*
X13121400Y-6335000D02*
X13091400Y-6365000D01*
X13116800Y-11173700D02*
X13146800Y-11203700D01*
X13146800Y-11173700D02*
X13116800Y-11203700D01*
X13126830Y-9796600D02*
X13156830Y-9826600D01*
X13156830Y-9796600D02*
X13126830Y-9826600D01*
X13142239Y-6881324D02*
X13172239Y-6911324D01*
X13172239Y-6881324D02*
X13142239Y-6911324D01*
X13177760Y-5628880D02*
X13207760Y-5658880D01*
X13207760Y-5628880D02*
X13177760Y-5658880D01*
X13177760Y-10922240D02*
X13207760Y-10952240D01*
X13207760Y-10922240D02*
X13177760Y-10952240D01*
X13182840Y-5435840D02*
X13212840Y-5465840D01*
X13212840Y-5435840D02*
X13182840Y-5465840D01*
X13193000Y-5890500D02*
X13223000Y-5920500D01*
X13223000Y-5890500D02*
X13193000Y-5920500D01*
X13193000Y-6144500D02*
X13223000Y-6174500D01*
X13223000Y-6144500D02*
X13193000Y-6174500D01*
X13218400Y-9891000D02*
X13248400Y-9921000D01*
X13248400Y-9891000D02*
X13218400Y-9921000D01*
X13218400Y-10322800D02*
X13248400Y-10352800D01*
X13248400Y-10322800D02*
X13218400Y-10352800D01*
X13218400Y-10399000D02*
X13248400Y-10429000D01*
X13248400Y-10399000D02*
X13218400Y-10429000D01*
X13218400Y-10475200D02*
X13248400Y-10505200D01*
X13248400Y-10475200D02*
X13218400Y-10505200D01*
X13220334Y-6759600D02*
X13250334Y-6789600D01*
X13250334Y-6759600D02*
X13220334Y-6789600D01*
X13222239Y-6881324D02*
X13252239Y-6911324D01*
X13252239Y-6881324D02*
X13222239Y-6911324D01*
X13238720Y-6335000D02*
X13268720Y-6365000D01*
X13268720Y-6335000D02*
X13238720Y-6365000D01*
X13242788Y-7574788D02*
X13272788Y-7604788D01*
X13272788Y-7574788D02*
X13242788Y-7604788D01*
X13243800Y-7655800D02*
X13273800Y-7685800D01*
X13273800Y-7655800D02*
X13243800Y-7685800D01*
X13243800Y-7735800D02*
X13273800Y-7765800D01*
X13273800Y-7735800D02*
X13243800Y-7765800D01*
X13243800Y-7815801D02*
X13273800Y-7845801D01*
X13273800Y-7815801D02*
X13243800Y-7845801D01*
X13243800Y-7909800D02*
X13273800Y-7939800D01*
X13273800Y-7909800D02*
X13243800Y-7939800D01*
X13243800Y-7989800D02*
X13273800Y-8019800D01*
X13273800Y-7989800D02*
X13243800Y-8019800D01*
X13243800Y-8229801D02*
X13273800Y-8259801D01*
X13273800Y-8229801D02*
X13243800Y-8259801D01*
X13243800Y-8309801D02*
X13273800Y-8339801D01*
X13273800Y-8309801D02*
X13243800Y-8339801D01*
X13243800Y-8389802D02*
X13273800Y-8419802D01*
X13273800Y-8389802D02*
X13243800Y-8419802D01*
X13243800Y-8469802D02*
X13273800Y-8499802D01*
X13273800Y-8469802D02*
X13243800Y-8499802D01*
X13243800Y-8621000D02*
X13273800Y-8651000D01*
X13273800Y-8621000D02*
X13243800Y-8651000D01*
X13243800Y-8701000D02*
X13273800Y-8731000D01*
X13273800Y-8701000D02*
X13243800Y-8731000D01*
X13243800Y-9027400D02*
X13273800Y-9057400D01*
X13273800Y-9027400D02*
X13243800Y-9057400D01*
X13243800Y-9107400D02*
X13273800Y-9137400D01*
X13273800Y-9107400D02*
X13243800Y-9137400D01*
X13243800Y-9187401D02*
X13273800Y-9217401D01*
X13273800Y-9187401D02*
X13243800Y-9217401D01*
X13243800Y-9267401D02*
X13273800Y-9297401D01*
X13273800Y-9267401D02*
X13243800Y-9297401D01*
X13243800Y-9347401D02*
X13273800Y-9377401D01*
X13273800Y-9347401D02*
X13243800Y-9377401D01*
X13246712Y-6668112D02*
X13276712Y-6698112D01*
X13276712Y-6668112D02*
X13246712Y-6698112D01*
X13247130Y-8940916D02*
X13277130Y-8970916D01*
X13277130Y-8940916D02*
X13247130Y-8970916D01*
X13269200Y-11252440D02*
X13299200Y-11282440D01*
X13299200Y-11252440D02*
X13269200Y-11282440D01*
X13294600Y-10627600D02*
X13324600Y-10657600D01*
X13324600Y-10627600D02*
X13294600Y-10657600D01*
X13320000Y-6017500D02*
X13350000Y-6047500D01*
X13350000Y-6017500D02*
X13320000Y-6047500D01*
X13344388Y-7381212D02*
X13374388Y-7411212D01*
X13374388Y-7381212D02*
X13344388Y-7411212D01*
X13345400Y-7198600D02*
X13375400Y-7228600D01*
X13375400Y-7198600D02*
X13345400Y-7228600D01*
X13345400Y-7300200D02*
X13375400Y-7330200D01*
X13375400Y-7300200D02*
X13345400Y-7330200D01*
X13345400Y-8504900D02*
X13375400Y-8534900D01*
X13375400Y-8504900D02*
X13345400Y-8534900D01*
X13345522Y-7461205D02*
X13375522Y-7491205D01*
X13375522Y-7461205D02*
X13345522Y-7491205D01*
X13350480Y-6335000D02*
X13380480Y-6365000D01*
X13380480Y-6335000D02*
X13350480Y-6365000D01*
X13363924Y-6632924D02*
X13393924Y-6662924D01*
X13393924Y-6632924D02*
X13363924Y-6662924D01*
X13396200Y-7053400D02*
X13426200Y-7083400D01*
X13426200Y-7053400D02*
X13396200Y-7083400D01*
X13396200Y-7960600D02*
X13426200Y-7990600D01*
X13426200Y-7960600D02*
X13396200Y-7990600D01*
X13396200Y-11415000D02*
X13426200Y-11445000D01*
X13426200Y-11415000D02*
X13396200Y-11445000D01*
X13401280Y-11140680D02*
X13431280Y-11170680D01*
X13431280Y-11140680D02*
X13401280Y-11170680D01*
X13431760Y-10927320D02*
X13461760Y-10957320D01*
X13461760Y-10927320D02*
X13431760Y-10957320D01*
X13434300Y-12247700D02*
X13464300Y-12277700D01*
X13464300Y-12247700D02*
X13434300Y-12277700D01*
X13441920Y-11491200D02*
X13471920Y-11521200D01*
X13471920Y-11491200D02*
X13441920Y-11521200D01*
X13447000Y-6144500D02*
X13477000Y-6174500D01*
X13477000Y-6144500D02*
X13447000Y-6174500D01*
X13462612Y-8198988D02*
X13492612Y-8228988D01*
X13492612Y-8198988D02*
X13462612Y-8228988D01*
X13472400Y-10246600D02*
X13502400Y-10276600D01*
X13502400Y-10246600D02*
X13472400Y-10276600D01*
X13472400Y-10322800D02*
X13502400Y-10352800D01*
X13502400Y-10322800D02*
X13472400Y-10352800D01*
X13472400Y-10551400D02*
X13502400Y-10581400D01*
X13502400Y-10551400D02*
X13472400Y-10581400D01*
X13482560Y-11542000D02*
X13512560Y-11572000D01*
X13512560Y-11542000D02*
X13482560Y-11572000D01*
X13497800Y-8446900D02*
X13527800Y-8476900D01*
X13527800Y-8446900D02*
X13497800Y-8476900D01*
X13497800Y-11623280D02*
X13527800Y-11653280D01*
X13527800Y-11623280D02*
X13497800Y-11653280D01*
X13510500Y-5446000D02*
X13540500Y-5476000D01*
X13540500Y-5446000D02*
X13510500Y-5476000D01*
X13510500Y-5636500D02*
X13540500Y-5666500D01*
X13540500Y-5636500D02*
X13510500Y-5666500D01*
X13510500Y-5827000D02*
X13540500Y-5857000D01*
X13540500Y-5827000D02*
X13510500Y-5857000D01*
X13510500Y-7287500D02*
X13540500Y-7317500D01*
X13540500Y-7287500D02*
X13510500Y-7317500D01*
X13518120Y-13172680D02*
X13548120Y-13202680D01*
X13548120Y-13172680D02*
X13518120Y-13202680D01*
X13544200Y-6830524D02*
X13574200Y-6860524D01*
X13574200Y-6830524D02*
X13544200Y-6860524D01*
X13553680Y-9413480D02*
X13583680Y-9443480D01*
X13583680Y-9413480D02*
X13553680Y-9443480D01*
X13556410Y-8210761D02*
X13586410Y-8240761D01*
X13586410Y-8210761D02*
X13556410Y-8240761D01*
X13561300Y-7053400D02*
X13591300Y-7083400D01*
X13591300Y-7053400D02*
X13561300Y-7083400D01*
X13565272Y-12186159D02*
X13595272Y-12216159D01*
X13595272Y-12186159D02*
X13565272Y-12216159D01*
X13568920Y-12801840D02*
X13598920Y-12831840D01*
X13598920Y-12801840D02*
X13568920Y-12831840D01*
X13574000Y-9891000D02*
X13604000Y-9921000D01*
X13604000Y-9891000D02*
X13574000Y-9921000D01*
X13575717Y-6716841D02*
X13605717Y-6746841D01*
X13605717Y-6716841D02*
X13575717Y-6746841D01*
X13595000Y-6583724D02*
X13625000Y-6613724D01*
X13625000Y-6583724D02*
X13595000Y-6613724D01*
X13599400Y-7960600D02*
X13629400Y-7990600D01*
X13629400Y-7960600D02*
X13599400Y-7990600D01*
X13624800Y-11618200D02*
X13654800Y-11648200D01*
X13654800Y-11618200D02*
X13624800Y-11648200D01*
X13634960Y-12507200D02*
X13664960Y-12537200D01*
X13664960Y-12507200D02*
X13634960Y-12537200D01*
X13637500Y-7287500D02*
X13667500Y-7317500D01*
X13667500Y-7287500D02*
X13637500Y-7317500D01*
X13640412Y-11793088D02*
X13670412Y-11823088D01*
X13670412Y-11793088D02*
X13640412Y-11823088D01*
X13640821Y-8213148D02*
X13670821Y-8243148D01*
X13670821Y-8213148D02*
X13640821Y-8243148D01*
X13642442Y-7084600D02*
X13672442Y-7114600D01*
X13672442Y-7084600D02*
X13642442Y-7114600D01*
X13650200Y-7706600D02*
X13680200Y-7736600D01*
X13680200Y-7706600D02*
X13650200Y-7736600D01*
X13663262Y-7161844D02*
X13693262Y-7191844D01*
X13693262Y-7161844D02*
X13663262Y-7191844D01*
X13680680Y-11018760D02*
X13710680Y-11048760D01*
X13710680Y-11018760D02*
X13680680Y-11048760D01*
X13701000Y-5446000D02*
X13731000Y-5476000D01*
X13731000Y-5446000D02*
X13701000Y-5476000D01*
X13701000Y-5636500D02*
X13731000Y-5666500D01*
X13731000Y-5636500D02*
X13701000Y-5666500D01*
X13701000Y-5827000D02*
X13731000Y-5857000D01*
X13731000Y-5827000D02*
X13701000Y-5857000D01*
X13701000Y-7859000D02*
X13731000Y-7889000D01*
X13731000Y-7859000D02*
X13701000Y-7889000D01*
X13716240Y-12969480D02*
X13746240Y-12999480D01*
X13746240Y-12969480D02*
X13716240Y-12999480D01*
X13726400Y-10246600D02*
X13756400Y-10276600D01*
X13756400Y-10246600D02*
X13726400Y-10276600D01*
X13726400Y-10322800D02*
X13756400Y-10352800D01*
X13756400Y-10322800D02*
X13726400Y-10352800D01*
X13726400Y-10399000D02*
X13756400Y-10429000D01*
X13756400Y-10399000D02*
X13726400Y-10429000D01*
X13726400Y-10475200D02*
X13756400Y-10505200D01*
X13756400Y-10475200D02*
X13726400Y-10505200D01*
X13751800Y-12735800D02*
X13781800Y-12765800D01*
X13781800Y-12735800D02*
X13751800Y-12765800D01*
X13759224Y-11186400D02*
X13789224Y-11216400D01*
X13789224Y-11186400D02*
X13759224Y-11216400D01*
X13764500Y-9192500D02*
X13794500Y-9222500D01*
X13794500Y-9192500D02*
X13764500Y-9222500D01*
X13772120Y-8245080D02*
X13802120Y-8275080D01*
X13802120Y-8245080D02*
X13772120Y-8275080D01*
X13777200Y-5928600D02*
X13807200Y-5958600D01*
X13807200Y-5928600D02*
X13777200Y-5958600D01*
X13777200Y-13294600D02*
X13807200Y-13324600D01*
X13807200Y-13294600D02*
X13777200Y-13324600D01*
X13802600Y-7960600D02*
X13832600Y-7990600D01*
X13832600Y-7960600D02*
X13802600Y-7990600D01*
X13802600Y-11567400D02*
X13832600Y-11597400D01*
X13832600Y-11567400D02*
X13802600Y-11597400D01*
X13802600Y-11821400D02*
X13832600Y-11851400D01*
X13832600Y-11821400D02*
X13802600Y-11851400D01*
X13819272Y-12186159D02*
X13849272Y-12216159D01*
X13849272Y-12186159D02*
X13819272Y-12216159D01*
X13828000Y-8176500D02*
X13858000Y-8206500D01*
X13858000Y-8176500D02*
X13828000Y-8206500D01*
X13838160Y-6289280D02*
X13868160Y-6319280D01*
X13868160Y-6289280D02*
X13838160Y-6319280D01*
X13843240Y-8961360D02*
X13873240Y-8991360D01*
X13873240Y-8961360D02*
X13843240Y-8991360D01*
X13853400Y-12837400D02*
X13883400Y-12867400D01*
X13883400Y-12837400D02*
X13853400Y-12867400D01*
X13866100Y-5738100D02*
X13896100Y-5768100D01*
X13896100Y-5738100D02*
X13866100Y-5768100D01*
X13904200Y-11923000D02*
X13934200Y-11953000D01*
X13934200Y-11923000D02*
X13904200Y-11953000D01*
X13934680Y-11044160D02*
X13964680Y-11074160D01*
X13964680Y-11044160D02*
X13934680Y-11074160D01*
X13949920Y-8128240D02*
X13979920Y-8158240D01*
X13979920Y-8128240D02*
X13949920Y-8158240D01*
X13964937Y-7189294D02*
X13994937Y-7219294D01*
X13994937Y-7189294D02*
X13964937Y-7219294D01*
X13967700Y-6881100D02*
X13997700Y-6911100D01*
X13997700Y-6881100D02*
X13967700Y-6911100D01*
X13980400Y-10246600D02*
X14010400Y-10276600D01*
X14010400Y-10246600D02*
X13980400Y-10276600D01*
X13980400Y-10322800D02*
X14010400Y-10352800D01*
X14010400Y-10322800D02*
X13980400Y-10352800D01*
X13980400Y-10399000D02*
X14010400Y-10429000D01*
X14010400Y-10399000D02*
X13980400Y-10429000D01*
X13980400Y-10475200D02*
X14010400Y-10505200D01*
X14010400Y-10475200D02*
X13980400Y-10505200D01*
X13980400Y-11745200D02*
X14010400Y-11775200D01*
X14010400Y-11745200D02*
X13980400Y-11775200D01*
X13980400Y-13066000D02*
X14010400Y-13096000D01*
X14010400Y-13066000D02*
X13980400Y-13096000D01*
X14001400Y-6605323D02*
X14031400Y-6635323D01*
X14031400Y-6605323D02*
X14001400Y-6635323D01*
X14001400Y-6685324D02*
X14031400Y-6715324D01*
X14031400Y-6685324D02*
X14001400Y-6715324D01*
X14005800Y-6512800D02*
X14035800Y-6542800D01*
X14035800Y-6512800D02*
X14005800Y-6542800D01*
X14013224Y-11173700D02*
X14043224Y-11203700D01*
X14043224Y-11173700D02*
X14013224Y-11203700D01*
X14029925Y-8512300D02*
X14059925Y-8542300D01*
X14059925Y-8512300D02*
X14029925Y-8542300D01*
X14031200Y-6431520D02*
X14061200Y-6461520D01*
X14061200Y-6431520D02*
X14031200Y-6461520D01*
X14036280Y-9520160D02*
X14066280Y-9550160D01*
X14066280Y-9520160D02*
X14036280Y-9550160D01*
X14056195Y-8229800D02*
X14086195Y-8259800D01*
X14086195Y-8229800D02*
X14056195Y-8259800D01*
X14056600Y-7395300D02*
X14086600Y-7425300D01*
X14086600Y-7395300D02*
X14056600Y-7425300D01*
X14056600Y-7735800D02*
X14086600Y-7765800D01*
X14086600Y-7735800D02*
X14056600Y-7765800D01*
X14056600Y-7815801D02*
X14086600Y-7845801D01*
X14086600Y-7815801D02*
X14056600Y-7845801D01*
X14056600Y-7909800D02*
X14086600Y-7939800D01*
X14086600Y-7909800D02*
X14056600Y-7939800D01*
X14056600Y-7989800D02*
X14086600Y-8019800D01*
X14086600Y-7989800D02*
X14056600Y-8019800D01*
X14056600Y-8069801D02*
X14086600Y-8099801D01*
X14086600Y-8069801D02*
X14056600Y-8099801D01*
X14056600Y-8149801D02*
X14086600Y-8179801D01*
X14086600Y-8149801D02*
X14056600Y-8179801D01*
X14056600Y-8316200D02*
X14086600Y-8346200D01*
X14086600Y-8316200D02*
X14056600Y-8346200D01*
X14056600Y-9027400D02*
X14086600Y-9057400D01*
X14086600Y-9027400D02*
X14056600Y-9057400D01*
X14056600Y-9107400D02*
X14086600Y-9137400D01*
X14086600Y-9107400D02*
X14056600Y-9137400D01*
X14056600Y-9187401D02*
X14086600Y-9217401D01*
X14086600Y-9187401D02*
X14056600Y-9217401D01*
X14056600Y-9267401D02*
X14086600Y-9297401D01*
X14086600Y-9267401D02*
X14056600Y-9297401D01*
X14056600Y-9347401D02*
X14086600Y-9377401D01*
X14086600Y-9347401D02*
X14056600Y-9377401D01*
X14056700Y-8396200D02*
X14086700Y-8426200D01*
X14086700Y-8396200D02*
X14056700Y-8426200D01*
X14070012Y-7655700D02*
X14100012Y-7685700D01*
X14100012Y-7655700D02*
X14070012Y-7685700D01*
X14082000Y-9891000D02*
X14112000Y-9921000D01*
X14112000Y-9891000D02*
X14082000Y-9921000D01*
X14082000Y-12964400D02*
X14112000Y-12994400D01*
X14112000Y-12964400D02*
X14082000Y-12994400D01*
X14094700Y-6881100D02*
X14124700Y-6911100D01*
X14124700Y-6881100D02*
X14094700Y-6911100D01*
X14094700Y-12189700D02*
X14124700Y-12219700D01*
X14124700Y-12189700D02*
X14094700Y-12219700D01*
X14120100Y-5738100D02*
X14150100Y-5768100D01*
X14150100Y-5738100D02*
X14120100Y-5768100D01*
X14153120Y-6776960D02*
X14183120Y-6806960D01*
X14183120Y-6776960D02*
X14153120Y-6806960D01*
X14153800Y-7244124D02*
X14183800Y-7274124D01*
X14183800Y-7244124D02*
X14153800Y-7274124D01*
X14183600Y-12862800D02*
X14213600Y-12892800D01*
X14213600Y-12862800D02*
X14183600Y-12892800D01*
X14188680Y-11054320D02*
X14218680Y-11084320D01*
X14218680Y-11054320D02*
X14188680Y-11084320D01*
X14200263Y-5919863D02*
X14230263Y-5949863D01*
X14230263Y-5919863D02*
X14200263Y-5949863D01*
X14209000Y-5446000D02*
X14239000Y-5476000D01*
X14239000Y-5446000D02*
X14209000Y-5476000D01*
X14214000Y-6881324D02*
X14244000Y-6911324D01*
X14244000Y-6881324D02*
X14214000Y-6911324D01*
X14214080Y-6253720D02*
X14244080Y-6283720D01*
X14244080Y-6253720D02*
X14214080Y-6283720D01*
X14234400Y-10246600D02*
X14264400Y-10276600D01*
X14264400Y-10246600D02*
X14234400Y-10276600D01*
X14234400Y-10322800D02*
X14264400Y-10352800D01*
X14264400Y-10322800D02*
X14234400Y-10352800D01*
X14234400Y-10399000D02*
X14264400Y-10429000D01*
X14264400Y-10399000D02*
X14234400Y-10429000D01*
X14234400Y-10475200D02*
X14264400Y-10505200D01*
X14264400Y-10475200D02*
X14234400Y-10505200D01*
X14234400Y-11821400D02*
X14264400Y-11851400D01*
X14264400Y-11821400D02*
X14234400Y-11851400D01*
X14285200Y-6172440D02*
X14315200Y-6202440D01*
X14315200Y-6172440D02*
X14285200Y-6202440D01*
X14285200Y-6284200D02*
X14315200Y-6314200D01*
X14315200Y-6284200D02*
X14285200Y-6314200D01*
X14286000Y-6412000D02*
X14316000Y-6442000D01*
X14316000Y-6412000D02*
X14286000Y-6442000D01*
X14287198Y-5914953D02*
X14317198Y-5944953D01*
X14317198Y-5914953D02*
X14287198Y-5944953D01*
X14297900Y-11745200D02*
X14327900Y-11775200D01*
X14327900Y-11745200D02*
X14297900Y-11775200D01*
X14306200Y-6685324D02*
X14336200Y-6715324D01*
X14336200Y-6685324D02*
X14306200Y-6715324D01*
X14310600Y-11897600D02*
X14340600Y-11927600D01*
X14340600Y-11897600D02*
X14310600Y-11927600D01*
X14310600Y-12761200D02*
X14340600Y-12791200D01*
X14340600Y-12761200D02*
X14310600Y-12791200D01*
X14330920Y-6233400D02*
X14360920Y-6263400D01*
X14360920Y-6233400D02*
X14330920Y-6263400D01*
X14336000Y-12024600D02*
X14366000Y-12054600D01*
X14366000Y-12024600D02*
X14336000Y-12054600D01*
X14336000Y-13243800D02*
X14366000Y-13273800D01*
X14366000Y-13243800D02*
X14336000Y-13273800D01*
X14336138Y-6349661D02*
X14366138Y-6379661D01*
X14366138Y-6349661D02*
X14336138Y-6379661D01*
X14353780Y-8127801D02*
X14383780Y-8157801D01*
X14383780Y-8127801D02*
X14353780Y-8157801D01*
X14361400Y-7874240D02*
X14391400Y-7904240D01*
X14391400Y-7874240D02*
X14361400Y-7904240D01*
X14361400Y-8316200D02*
X14391400Y-8346200D01*
X14391400Y-8316200D02*
X14361400Y-8346200D01*
X14361400Y-11669000D02*
X14391400Y-11699000D01*
X14391400Y-11669000D02*
X14361400Y-11699000D01*
X14365300Y-12173100D02*
X14395300Y-12203100D01*
X14395300Y-12173100D02*
X14365300Y-12203100D01*
X14367538Y-5916638D02*
X14397538Y-5946638D01*
X14397538Y-5916638D02*
X14367538Y-5946638D01*
X14369505Y-9120895D02*
X14399505Y-9150895D01*
X14399505Y-9120895D02*
X14369505Y-9150895D01*
X14374100Y-5738100D02*
X14404100Y-5768100D01*
X14404100Y-5738100D02*
X14374100Y-5768100D01*
X14375302Y-8453979D02*
X14405302Y-8483979D01*
X14405302Y-8453979D02*
X14375302Y-8483979D01*
X14385349Y-8591872D02*
X14415349Y-8621872D01*
X14415349Y-8591872D02*
X14385349Y-8621872D01*
X14399500Y-6081000D02*
X14429500Y-6111000D01*
X14429500Y-6081000D02*
X14399500Y-6111000D01*
X14399500Y-6398500D02*
X14429500Y-6428500D01*
X14429500Y-6398500D02*
X14399500Y-6428500D01*
X14407120Y-6782040D02*
X14437120Y-6812040D01*
X14437120Y-6782040D02*
X14407120Y-6812040D01*
X14447760Y-11100040D02*
X14477760Y-11130040D01*
X14477760Y-11100040D02*
X14447760Y-11130040D01*
X14462965Y-11527274D02*
X14492965Y-11557274D01*
X14492965Y-11527274D02*
X14462965Y-11557274D01*
X14463000Y-5446000D02*
X14493000Y-5476000D01*
X14493000Y-5446000D02*
X14463000Y-5476000D01*
X14464177Y-6643139D02*
X14494177Y-6673139D01*
X14494177Y-6643139D02*
X14464177Y-6673139D01*
X14475700Y-5890500D02*
X14505700Y-5920500D01*
X14505700Y-5890500D02*
X14475700Y-5920500D01*
X14488400Y-10246600D02*
X14518400Y-10276600D01*
X14518400Y-10246600D02*
X14488400Y-10276600D01*
X14488400Y-10322800D02*
X14518400Y-10352800D01*
X14518400Y-10322800D02*
X14488400Y-10352800D01*
X14488400Y-10399000D02*
X14518400Y-10429000D01*
X14518400Y-10399000D02*
X14488400Y-10429000D01*
X14488400Y-10475200D02*
X14518400Y-10505200D01*
X14518400Y-10475200D02*
X14488400Y-10505200D01*
X14488400Y-13243800D02*
X14518400Y-13273800D01*
X14518400Y-13243800D02*
X14488400Y-13273800D01*
X14513800Y-12583400D02*
X14543800Y-12613400D01*
X14543800Y-12583400D02*
X14513800Y-12613400D01*
X14526500Y-6081000D02*
X14556500Y-6111000D01*
X14556500Y-6081000D02*
X14526500Y-6111000D01*
X14526500Y-6398500D02*
X14556500Y-6428500D01*
X14556500Y-6398500D02*
X14526500Y-6428500D01*
X14539200Y-11669000D02*
X14569200Y-11699000D01*
X14569200Y-11669000D02*
X14539200Y-11699000D01*
X14551900Y-12469100D02*
X14581900Y-12499100D01*
X14581900Y-12469100D02*
X14551900Y-12499100D01*
X14569680Y-6782040D02*
X14599680Y-6812040D01*
X14599680Y-6782040D02*
X14569680Y-6812040D01*
X14590000Y-6144500D02*
X14620000Y-6174500D01*
X14620000Y-6144500D02*
X14590000Y-6174500D01*
X14590000Y-6208000D02*
X14620000Y-6238000D01*
X14620000Y-6208000D02*
X14590000Y-6238000D01*
X14590000Y-6271500D02*
X14620000Y-6301500D01*
X14620000Y-6271500D02*
X14590000Y-6301500D01*
X14590000Y-9510000D02*
X14620000Y-9540000D01*
X14620000Y-9510000D02*
X14590000Y-9540000D01*
X14590000Y-9573500D02*
X14620000Y-9603500D01*
X14620000Y-9573500D02*
X14590000Y-9603500D01*
X14590000Y-9637000D02*
X14620000Y-9667000D01*
X14620000Y-9637000D02*
X14590000Y-9667000D01*
X14601373Y-11193422D02*
X14631373Y-11223422D01*
X14631373Y-11193422D02*
X14601373Y-11223422D01*
X14611000Y-7244124D02*
X14641000Y-7274124D01*
X14641000Y-7244124D02*
X14611000Y-7274124D01*
X14615400Y-6639800D02*
X14645400Y-6669800D01*
X14645400Y-6639800D02*
X14615400Y-6669800D01*
X14628100Y-5738100D02*
X14658100Y-5768100D01*
X14658100Y-5738100D02*
X14628100Y-5768100D01*
X14630640Y-7395200D02*
X14660640Y-7425200D01*
X14660640Y-7395200D02*
X14630640Y-7425200D01*
X14644002Y-8506184D02*
X14674002Y-8536184D01*
X14674002Y-8506184D02*
X14644002Y-8536184D01*
X14648374Y-6398500D02*
X14678374Y-6428500D01*
X14678374Y-6398500D02*
X14648374Y-6428500D01*
X14680202Y-7655800D02*
X14710202Y-7685800D01*
X14710202Y-7655800D02*
X14680202Y-7685800D01*
X14680202Y-7735800D02*
X14710202Y-7765800D01*
X14710202Y-7735800D02*
X14680202Y-7765800D01*
X14680202Y-7815801D02*
X14710202Y-7845801D01*
X14710202Y-7815801D02*
X14680202Y-7845801D01*
X14680202Y-7909800D02*
X14710202Y-7939800D01*
X14710202Y-7909800D02*
X14680202Y-7939800D01*
X14680202Y-7989800D02*
X14710202Y-8019800D01*
X14710202Y-7989800D02*
X14680202Y-8019800D01*
X14680202Y-8229801D02*
X14710202Y-8259801D01*
X14710202Y-8229801D02*
X14680202Y-8259801D01*
X14680202Y-8309801D02*
X14710202Y-8339801D01*
X14710202Y-8309801D02*
X14680202Y-8339801D01*
X14680202Y-8389802D02*
X14710202Y-8419802D01*
X14710202Y-8389802D02*
X14680202Y-8419802D01*
X14680202Y-8621000D02*
X14710202Y-8651000D01*
X14710202Y-8621000D02*
X14680202Y-8651000D01*
X14680202Y-8701000D02*
X14710202Y-8731000D01*
X14710202Y-8701000D02*
X14680202Y-8731000D01*
X14680202Y-9027400D02*
X14710202Y-9057400D01*
X14710202Y-9027400D02*
X14680202Y-9057400D01*
X14680202Y-9107400D02*
X14710202Y-9137400D01*
X14710202Y-9107400D02*
X14680202Y-9137400D01*
X14680202Y-9383000D02*
X14710202Y-9413000D01*
X14710202Y-9383000D02*
X14680202Y-9413000D01*
X14680537Y-8781000D02*
X14710537Y-8811000D01*
X14710537Y-8781000D02*
X14680537Y-8811000D01*
X14683532Y-8940916D02*
X14713532Y-8970916D01*
X14713532Y-8940916D02*
X14683532Y-8970916D01*
X14691600Y-11821400D02*
X14721600Y-11851400D01*
X14721600Y-11821400D02*
X14691600Y-11851400D01*
X14691600Y-12126200D02*
X14721600Y-12156200D01*
X14721600Y-12126200D02*
X14691600Y-12156200D01*
X14701760Y-11506440D02*
X14731760Y-11536440D01*
X14731760Y-11506440D02*
X14701760Y-11536440D01*
X14706374Y-6823324D02*
X14736374Y-6853324D01*
X14736374Y-6823324D02*
X14706374Y-6853324D01*
X14712524Y-8464894D02*
X14742524Y-8494894D01*
X14742524Y-8464894D02*
X14712524Y-8494894D01*
X14717000Y-11008600D02*
X14747000Y-11038600D01*
X14747000Y-11008600D02*
X14717000Y-11038600D01*
X14717000Y-11084800D02*
X14747000Y-11114800D01*
X14747000Y-11084800D02*
X14717000Y-11114800D01*
X14717000Y-11582640D02*
X14747000Y-11612640D01*
X14747000Y-11582640D02*
X14717000Y-11612640D01*
X14728224Y-11415000D02*
X14758224Y-11445000D01*
X14758224Y-11415000D02*
X14728224Y-11445000D01*
X14742400Y-7249400D02*
X14772400Y-7279400D01*
X14772400Y-7249400D02*
X14742400Y-7279400D01*
X14758896Y-8004200D02*
X14788896Y-8034200D01*
X14788896Y-8004200D02*
X14758896Y-8034200D01*
X14760014Y-9289186D02*
X14790014Y-9319186D01*
X14790014Y-9289186D02*
X14760014Y-9319186D01*
X14760203Y-9383000D02*
X14790203Y-9413000D01*
X14790203Y-9383000D02*
X14760203Y-9413000D01*
X14767800Y-7097000D02*
X14797800Y-7127000D01*
X14797800Y-7097000D02*
X14767800Y-7127000D01*
X14767800Y-7173200D02*
X14797800Y-7203200D01*
X14797800Y-7173200D02*
X14767800Y-7203200D01*
X14780500Y-5446000D02*
X14810500Y-5476000D01*
X14810500Y-5446000D02*
X14780500Y-5476000D01*
X14780500Y-6081000D02*
X14810500Y-6111000D01*
X14810500Y-6081000D02*
X14780500Y-6111000D01*
X14780500Y-6208000D02*
X14810500Y-6238000D01*
X14810500Y-6208000D02*
X14780500Y-6238000D01*
X14780500Y-6335000D02*
X14810500Y-6365000D01*
X14810500Y-6335000D02*
X14780500Y-6365000D01*
X14780500Y-6462000D02*
X14810500Y-6492000D01*
X14810500Y-6462000D02*
X14780500Y-6492000D01*
X14780500Y-6589000D02*
X14810500Y-6619000D01*
X14810500Y-6589000D02*
X14780500Y-6619000D01*
X14781802Y-8504900D02*
X14811802Y-8534900D01*
X14811802Y-8504900D02*
X14781802Y-8534900D01*
X14793200Y-12050000D02*
X14823200Y-12080000D01*
X14823200Y-12050000D02*
X14793200Y-12080000D01*
X14793200Y-12354800D02*
X14823200Y-12384800D01*
X14823200Y-12354800D02*
X14793200Y-12384800D01*
X14793200Y-12558000D02*
X14823200Y-12588000D01*
X14823200Y-12558000D02*
X14793200Y-12588000D01*
X14803360Y-7395200D02*
X14833360Y-7425200D01*
X14833360Y-7395200D02*
X14803360Y-7425200D01*
X14803360Y-9507460D02*
X14833360Y-9537460D01*
X14833360Y-9507460D02*
X14803360Y-9537460D01*
X14810857Y-9589150D02*
X14840857Y-9619150D01*
X14840857Y-9589150D02*
X14810857Y-9619150D01*
X14844000Y-5890500D02*
X14874000Y-5920500D01*
X14874000Y-5890500D02*
X14844000Y-5920500D01*
X14844000Y-11694400D02*
X14874000Y-11724400D01*
X14874000Y-11694400D02*
X14844000Y-11724400D01*
X14847861Y-9684235D02*
X14877861Y-9714235D01*
X14877861Y-9684235D02*
X14847861Y-9714235D01*
X14854160Y-5136120D02*
X14884160Y-5166120D01*
X14884160Y-5136120D02*
X14854160Y-5166120D01*
X14859240Y-11602960D02*
X14889240Y-11632960D01*
X14889240Y-11602960D02*
X14859240Y-11632960D01*
X14864320Y-10510760D02*
X14894320Y-10540760D01*
X14894320Y-10510760D02*
X14864320Y-10540760D01*
X14869400Y-10602200D02*
X14899400Y-10632200D01*
X14899400Y-10602200D02*
X14869400Y-10632200D01*
X14869400Y-10678400D02*
X14899400Y-10708400D01*
X14899400Y-10678400D02*
X14869400Y-10708400D01*
X14882100Y-5738100D02*
X14912100Y-5768100D01*
X14912100Y-5738100D02*
X14882100Y-5768100D01*
X14894800Y-6639800D02*
X14924800Y-6669800D01*
X14924800Y-6639800D02*
X14894800Y-6669800D01*
X14894800Y-12050000D02*
X14924800Y-12080000D01*
X14924800Y-12050000D02*
X14894800Y-12080000D01*
X14899014Y-8198988D02*
X14929014Y-8228988D01*
X14929014Y-8198988D02*
X14899014Y-8228988D01*
X14907500Y-9891000D02*
X14937500Y-9921000D01*
X14937500Y-9891000D02*
X14907500Y-9921000D01*
X14907500Y-10018000D02*
X14937500Y-10048000D01*
X14937500Y-10018000D02*
X14907500Y-10048000D01*
X14907500Y-11097500D02*
X14937500Y-11127500D01*
X14937500Y-11097500D02*
X14907500Y-11127500D01*
X14919460Y-9499100D02*
X14949460Y-9529100D01*
X14949460Y-9499100D02*
X14919460Y-9529100D01*
X14920200Y-7960600D02*
X14950200Y-7990600D01*
X14950200Y-7960600D02*
X14920200Y-7990600D01*
X14930360Y-11531840D02*
X14960360Y-11561840D01*
X14960360Y-11531840D02*
X14930360Y-11561840D01*
X14934202Y-8446900D02*
X14964202Y-8476900D01*
X14964202Y-8446900D02*
X14934202Y-8476900D01*
X14945600Y-10678400D02*
X14975600Y-10708400D01*
X14975600Y-10678400D02*
X14945600Y-10708400D01*
X14945600Y-11770600D02*
X14975600Y-11800600D01*
X14975600Y-11770600D02*
X14945600Y-11800600D01*
X14950680Y-10434560D02*
X14980680Y-10464560D01*
X14980680Y-10434560D02*
X14950680Y-10464560D01*
X14953860Y-10868260D02*
X14983860Y-10898260D01*
X14983860Y-10868260D02*
X14953860Y-10898260D01*
X14971000Y-6081000D02*
X15001000Y-6111000D01*
X15001000Y-6081000D02*
X14971000Y-6111000D01*
X14971000Y-8748000D02*
X15001000Y-8778000D01*
X15001000Y-8748000D02*
X14971000Y-8778000D01*
X14971000Y-12050000D02*
X15001000Y-12080000D01*
X15001000Y-12050000D02*
X14971000Y-12080000D01*
X14992812Y-8210761D02*
X15022812Y-8240761D01*
X15022812Y-8210761D02*
X14992812Y-8240761D01*
X14996400Y-7173200D02*
X15026400Y-7203200D01*
X15026400Y-7173200D02*
X14996400Y-7203200D01*
X15021800Y-9576040D02*
X15051800Y-9606040D01*
X15051800Y-9576040D02*
X15021800Y-9606040D01*
X15021800Y-12354800D02*
X15051800Y-12384800D01*
X15051800Y-12354800D02*
X15021800Y-12384800D01*
X15021800Y-12558000D02*
X15051800Y-12588000D01*
X15051800Y-12558000D02*
X15021800Y-12588000D01*
X15030918Y-8967482D02*
X15060918Y-8997482D01*
X15060918Y-8967482D02*
X15030918Y-8997482D01*
X15034500Y-5446000D02*
X15064500Y-5476000D01*
X15064500Y-5446000D02*
X15034500Y-5476000D01*
X15072600Y-7706600D02*
X15102600Y-7736600D01*
X15102600Y-7706600D02*
X15072600Y-7736600D01*
X15077224Y-8213148D02*
X15107224Y-8243148D01*
X15107224Y-8213148D02*
X15077224Y-8243148D01*
X15077900Y-11404601D02*
X15107900Y-11434601D01*
X15107900Y-11404601D02*
X15077900Y-11434601D01*
X15078000Y-11169602D02*
X15108000Y-11199602D01*
X15108000Y-11169602D02*
X15078000Y-11199602D01*
X15078000Y-11249603D02*
X15108000Y-11279603D01*
X15108000Y-11249603D02*
X15078000Y-11279603D01*
X15098000Y-5890500D02*
X15128000Y-5920500D01*
X15128000Y-5890500D02*
X15098000Y-5920500D01*
X15098000Y-7859000D02*
X15128000Y-7889000D01*
X15128000Y-7859000D02*
X15098000Y-7889000D01*
X15098000Y-9827500D02*
X15128000Y-9857500D01*
X15128000Y-9827500D02*
X15098000Y-9857500D01*
X15098000Y-10208500D02*
X15128000Y-10238500D01*
X15128000Y-10208500D02*
X15098000Y-10238500D01*
X15103080Y-5131040D02*
X15133080Y-5161040D01*
X15133080Y-5131040D02*
X15103080Y-5161040D01*
X15108160Y-10419320D02*
X15138160Y-10449320D01*
X15138160Y-10419320D02*
X15108160Y-10449320D01*
X15113599Y-9733200D02*
X15143599Y-9763200D01*
X15143599Y-9733200D02*
X15113599Y-9763200D01*
X15113599Y-10546000D02*
X15143599Y-10576000D01*
X15143599Y-10546000D02*
X15113599Y-10576000D01*
X15113599Y-11982402D02*
X15143599Y-12012402D01*
X15143599Y-11982402D02*
X15113599Y-12012402D01*
X15123400Y-10094200D02*
X15153400Y-10124200D01*
X15153400Y-10094200D02*
X15123400Y-10124200D01*
X15123400Y-10881600D02*
X15153400Y-10911600D01*
X15153400Y-10881600D02*
X15123400Y-10911600D01*
X15123400Y-11338800D02*
X15153400Y-11368800D01*
X15153400Y-11338800D02*
X15123400Y-11368800D01*
X15128480Y-11856960D02*
X15158480Y-11886960D01*
X15158480Y-11856960D02*
X15128480Y-11886960D01*
X15136100Y-5738100D02*
X15166100Y-5768100D01*
X15166100Y-5738100D02*
X15136100Y-5768100D01*
X15161500Y-6081000D02*
X15191500Y-6111000D01*
X15191500Y-6081000D02*
X15161500Y-6111000D01*
X15161500Y-8748000D02*
X15191500Y-8778000D01*
X15191500Y-8748000D02*
X15161500Y-8778000D01*
X15161500Y-9954500D02*
X15191500Y-9984500D01*
X15191500Y-9954500D02*
X15161500Y-9984500D01*
X15171814Y-11249414D02*
X15201814Y-11279414D01*
X15201814Y-11249414D02*
X15171814Y-11279414D01*
X15174200Y-7097000D02*
X15204200Y-7127000D01*
X15204200Y-7097000D02*
X15174200Y-7127000D01*
X15193599Y-9733200D02*
X15223599Y-9763200D01*
X15223599Y-9733200D02*
X15193599Y-9763200D01*
X15193599Y-10546000D02*
X15223599Y-10576000D01*
X15223599Y-10546000D02*
X15193599Y-10576000D01*
X15193599Y-11982402D02*
X15223599Y-12012402D01*
X15223599Y-11982402D02*
X15193599Y-12012402D01*
X15273599Y-9733200D02*
X15303599Y-9763200D01*
X15303599Y-9733200D02*
X15273599Y-9763200D01*
X15273599Y-10546000D02*
X15303599Y-10576000D01*
X15303599Y-10546000D02*
X15273599Y-10576000D01*
X15273599Y-11982402D02*
X15303599Y-12012402D01*
X15303599Y-11982402D02*
X15273599Y-12012402D01*
X15275800Y-7960600D02*
X15305800Y-7990600D01*
X15305800Y-7960600D02*
X15275800Y-7990600D01*
X15288500Y-9065500D02*
X15318500Y-9095500D01*
X15318500Y-9065500D02*
X15288500Y-9095500D01*
X15288500Y-10335500D02*
X15318500Y-10365500D01*
X15318500Y-10335500D02*
X15288500Y-10365500D01*
X15301200Y-7249400D02*
X15331200Y-7279400D01*
X15331200Y-7249400D02*
X15301200Y-7279400D01*
X15326600Y-6639800D02*
X15356600Y-6669800D01*
X15356600Y-6639800D02*
X15326600Y-6669800D01*
X15326600Y-10246600D02*
X15356600Y-10276600D01*
X15356600Y-10246600D02*
X15326600Y-10276600D01*
X15337929Y-6933271D02*
X15367929Y-6963271D01*
X15367929Y-6933271D02*
X15337929Y-6963271D01*
X15352000Y-5890500D02*
X15382000Y-5920500D01*
X15382000Y-5890500D02*
X15352000Y-5920500D01*
X15352000Y-11288000D02*
X15382000Y-11318000D01*
X15382000Y-11288000D02*
X15352000Y-11318000D01*
X15353600Y-9733200D02*
X15383600Y-9763200D01*
X15383600Y-9733200D02*
X15353600Y-9763200D01*
X15353600Y-10546000D02*
X15383600Y-10576000D01*
X15383600Y-10546000D02*
X15353600Y-10576000D01*
X15353600Y-11169602D02*
X15383600Y-11199602D01*
X15383600Y-11169602D02*
X15353600Y-11199602D01*
X15353600Y-11982402D02*
X15383600Y-12012402D01*
X15383600Y-11982402D02*
X15353600Y-12012402D01*
X15362160Y-11846800D02*
X15392160Y-11876800D01*
X15392160Y-11846800D02*
X15362160Y-11876800D01*
X15390100Y-5738100D02*
X15420100Y-5768100D01*
X15420100Y-5738100D02*
X15390100Y-5768100D01*
X15415500Y-10208500D02*
X15445500Y-10238500D01*
X15445500Y-10208500D02*
X15415500Y-10238500D01*
X15433600Y-9733200D02*
X15463600Y-9763200D01*
X15463600Y-9733200D02*
X15433600Y-9763200D01*
X15433600Y-10546000D02*
X15463600Y-10576000D01*
X15463600Y-10546000D02*
X15433600Y-10576000D01*
X15433600Y-11169602D02*
X15463600Y-11199602D01*
X15463600Y-11169602D02*
X15433600Y-11199602D01*
X15433600Y-11982402D02*
X15463600Y-12012402D01*
X15463600Y-11982402D02*
X15433600Y-12012402D01*
X15453600Y-6868400D02*
X15483600Y-6898400D01*
X15483600Y-6868400D02*
X15453600Y-6898400D01*
X15479000Y-11288000D02*
X15509000Y-11318000D01*
X15509000Y-11288000D02*
X15479000Y-11318000D01*
X15486001Y-8613999D02*
X15516001Y-8643999D01*
X15516001Y-8613999D02*
X15486001Y-8643999D01*
X15492597Y-8229800D02*
X15522597Y-8259800D01*
X15522597Y-8229800D02*
X15492597Y-8259800D01*
X15493002Y-7655800D02*
X15523002Y-7685800D01*
X15523002Y-7655800D02*
X15493002Y-7685800D01*
X15493002Y-7735800D02*
X15523002Y-7765800D01*
X15523002Y-7735800D02*
X15493002Y-7765800D01*
X15493002Y-7815801D02*
X15523002Y-7845801D01*
X15523002Y-7815801D02*
X15493002Y-7845801D01*
X15493002Y-7989800D02*
X15523002Y-8019800D01*
X15523002Y-7989800D02*
X15493002Y-8019800D01*
X15493002Y-8069801D02*
X15523002Y-8099801D01*
X15523002Y-8069801D02*
X15493002Y-8099801D01*
X15493002Y-8149801D02*
X15523002Y-8179801D01*
X15523002Y-8149801D02*
X15493002Y-8179801D01*
X15493002Y-8316200D02*
X15523002Y-8346200D01*
X15523002Y-8316200D02*
X15493002Y-8346200D01*
X15493002Y-8396200D02*
X15523002Y-8426200D01*
X15523002Y-8396200D02*
X15493002Y-8426200D01*
X15493002Y-8519400D02*
X15523002Y-8549400D01*
X15523002Y-8519400D02*
X15493002Y-8549400D01*
X15493002Y-9027400D02*
X15523002Y-9057400D01*
X15523002Y-9027400D02*
X15493002Y-9057400D01*
X15493002Y-9107400D02*
X15523002Y-9137400D01*
X15523002Y-9107400D02*
X15493002Y-9137400D01*
X15493002Y-9187401D02*
X15523002Y-9217401D01*
X15523002Y-9187401D02*
X15493002Y-9217401D01*
X15493002Y-9267401D02*
X15523002Y-9297401D01*
X15523002Y-9267401D02*
X15493002Y-9297401D01*
X15493002Y-9347401D02*
X15523002Y-9377401D01*
X15523002Y-9347401D02*
X15493002Y-9377401D01*
X15499320Y-11709640D02*
X15529320Y-11739640D01*
X15529320Y-11709640D02*
X15499320Y-11739640D01*
X15504400Y-8938500D02*
X15534400Y-8968500D01*
X15534400Y-8938500D02*
X15504400Y-8968500D01*
X15511402Y-8719400D02*
X15541402Y-8749400D01*
X15541402Y-8719400D02*
X15511402Y-8749400D01*
X15520084Y-9736530D02*
X15550084Y-9766530D01*
X15550084Y-9736530D02*
X15520084Y-9766530D01*
X15520084Y-11172932D02*
X15550084Y-11202932D01*
X15550084Y-11172932D02*
X15520084Y-11202932D01*
X15542500Y-5890500D02*
X15572500Y-5920500D01*
X15572500Y-5890500D02*
X15542500Y-5920500D01*
X15555200Y-12304000D02*
X15585200Y-12334000D01*
X15585200Y-12304000D02*
X15555200Y-12334000D01*
X15599987Y-7375213D02*
X15629987Y-7405213D01*
X15629987Y-7375213D02*
X15599987Y-7405213D01*
X15606000Y-6843000D02*
X15636000Y-6873000D01*
X15636000Y-6843000D02*
X15606000Y-6873000D01*
X15631400Y-12304000D02*
X15661400Y-12334000D01*
X15661400Y-12304000D02*
X15631400Y-12334000D01*
X15669500Y-5763500D02*
X15699500Y-5793500D01*
X15699500Y-5763500D02*
X15669500Y-5793500D01*
X15680000Y-11169937D02*
X15710000Y-11199937D01*
X15710000Y-11169937D02*
X15680000Y-11199937D01*
X15682200Y-6665200D02*
X15712200Y-6695200D01*
X15712200Y-6665200D02*
X15682200Y-6695200D01*
X15707600Y-11415000D02*
X15737600Y-11445000D01*
X15737600Y-11415000D02*
X15707600Y-11445000D01*
X15707600Y-11554700D02*
X15737600Y-11584700D01*
X15737600Y-11554700D02*
X15707600Y-11584700D01*
X15707600Y-11694400D02*
X15737600Y-11724400D01*
X15737600Y-11694400D02*
X15707600Y-11724400D01*
X15707600Y-12380200D02*
X15737600Y-12410200D01*
X15737600Y-12380200D02*
X15707600Y-12410200D01*
X15733000Y-5446000D02*
X15763000Y-5476000D01*
X15763000Y-5446000D02*
X15733000Y-5476000D01*
X15758889Y-8586018D02*
X15788889Y-8616018D01*
X15788889Y-8586018D02*
X15758889Y-8616018D01*
X15760000Y-9733200D02*
X15790000Y-9763200D01*
X15790000Y-9733200D02*
X15760000Y-9763200D01*
X15760000Y-11169602D02*
X15790000Y-11199602D01*
X15790000Y-11169602D02*
X15760000Y-11199602D01*
X15768800Y-8432800D02*
X15798800Y-8462800D01*
X15798800Y-8432800D02*
X15768800Y-8462800D01*
X15780584Y-9370300D02*
X15810584Y-9400300D01*
X15810584Y-9370300D02*
X15780584Y-9400300D01*
X15780584Y-9464280D02*
X15810584Y-9494280D01*
X15810584Y-9464280D02*
X15780584Y-9494280D01*
X15783800Y-8875000D02*
X15813800Y-8905000D01*
X15813800Y-8875000D02*
X15783800Y-8905000D01*
X15796400Y-9985471D02*
X15826400Y-10015471D01*
X15826400Y-9985471D02*
X15796400Y-10015471D01*
X15796500Y-5636500D02*
X15826500Y-5666500D01*
X15826500Y-5636500D02*
X15796500Y-5666500D01*
X15796500Y-10094200D02*
X15826500Y-10124200D01*
X15826500Y-10094200D02*
X15796500Y-10124200D01*
X15796500Y-10195800D02*
X15826500Y-10225800D01*
X15826500Y-10195800D02*
X15796500Y-10225800D01*
X15835245Y-8302855D02*
X15865245Y-8332855D01*
X15865245Y-8302855D02*
X15835245Y-8332855D01*
X15840000Y-9733200D02*
X15870000Y-9763200D01*
X15870000Y-9733200D02*
X15840000Y-9763200D01*
X15840000Y-11169602D02*
X15870000Y-11199602D01*
X15870000Y-11169602D02*
X15840000Y-11199602D01*
X15860000Y-12380200D02*
X15890000Y-12410200D01*
X15890000Y-12380200D02*
X15860000Y-12410200D01*
X15876300Y-10881922D02*
X15906300Y-10911922D01*
X15906300Y-10881922D02*
X15876300Y-10911922D01*
X15899178Y-7824645D02*
X15929178Y-7854645D01*
X15929178Y-7824645D02*
X15899178Y-7854645D01*
X15899900Y-9446500D02*
X15929900Y-9476500D01*
X15929900Y-9446500D02*
X15899900Y-9476500D01*
X15909032Y-8794752D02*
X15939032Y-8824752D01*
X15939032Y-8794752D02*
X15909032Y-8824752D01*
X15915880Y-13264120D02*
X15945880Y-13294120D01*
X15945880Y-13264120D02*
X15915880Y-13294120D01*
X15916973Y-7692057D02*
X15946973Y-7722057D01*
X15946973Y-7692057D02*
X15916973Y-7722057D01*
X15919200Y-9286794D02*
X15949200Y-9316794D01*
X15949200Y-9286794D02*
X15919200Y-9316794D01*
X15923500Y-5700000D02*
X15953500Y-5730000D01*
X15953500Y-5700000D02*
X15923500Y-5730000D01*
X15936200Y-8621000D02*
X15966200Y-8651000D01*
X15966200Y-8621000D02*
X15936200Y-8651000D01*
X15936200Y-9179800D02*
X15966200Y-9209800D01*
X15966200Y-9179800D02*
X15936200Y-9209800D01*
X15941054Y-8868063D02*
X15971054Y-8898063D01*
X15971054Y-8868063D02*
X15941054Y-8898063D01*
X15941500Y-10546000D02*
X15971500Y-10576000D01*
X15971500Y-10546000D02*
X15941500Y-10576000D01*
X15941600Y-11982402D02*
X15971600Y-12012402D01*
X15971600Y-11982402D02*
X15941600Y-12012402D01*
X15956100Y-9834800D02*
X15986100Y-9864800D01*
X15986100Y-9834800D02*
X15956100Y-9864800D01*
X15956100Y-11227137D02*
X15986100Y-11257137D01*
X15986100Y-11227137D02*
X15956100Y-11257137D01*
X15956100Y-11365602D02*
X15986100Y-11395602D01*
X15986100Y-11365602D02*
X15956100Y-11395602D01*
X15959800Y-8510155D02*
X15989800Y-8540155D01*
X15989800Y-8510155D02*
X15959800Y-8540155D01*
X15981659Y-11151329D02*
X16011659Y-11181329D01*
X16011659Y-11151329D02*
X15981659Y-11181329D01*
X15991198Y-9733058D02*
X16021198Y-9763058D01*
X16021198Y-9733058D02*
X15991198Y-9763058D01*
X16002240Y-11288000D02*
X16032240Y-11318000D01*
X16032240Y-11288000D02*
X16002240Y-11318000D01*
X16012400Y-12380200D02*
X16042400Y-12410200D01*
X16042400Y-12380200D02*
X16012400Y-12410200D01*
X16014100Y-11423602D02*
X16044100Y-11453602D01*
X16044100Y-11423602D02*
X16014100Y-11453602D01*
X16020118Y-9981041D02*
X16050118Y-10011041D01*
X16050118Y-9981041D02*
X16020118Y-10011041D01*
X16027545Y-10899806D02*
X16057545Y-10929806D01*
X16057545Y-10899806D02*
X16027545Y-10929806D01*
X16050500Y-5700000D02*
X16080500Y-5730000D01*
X16080500Y-5700000D02*
X16050500Y-5730000D01*
X16063200Y-7300200D02*
X16093200Y-7330200D01*
X16093200Y-7300200D02*
X16063200Y-7330200D01*
X16064800Y-10546000D02*
X16094800Y-10576000D01*
X16094800Y-10546000D02*
X16064800Y-10576000D01*
X16064800Y-11982402D02*
X16094800Y-12012402D01*
X16094800Y-11982402D02*
X16064800Y-12012402D01*
X16071198Y-9733200D02*
X16101198Y-9763200D01*
X16101198Y-9733200D02*
X16071198Y-9763200D01*
X16071198Y-11169602D02*
X16101198Y-11199602D01*
X16101198Y-11169602D02*
X16071198Y-11199602D01*
X16088600Y-12304000D02*
X16118600Y-12334000D01*
X16118600Y-12304000D02*
X16088600Y-12334000D01*
X16100541Y-8734542D02*
X16130541Y-8764542D01*
X16130541Y-8734542D02*
X16100541Y-8764542D01*
X16114000Y-5573000D02*
X16144000Y-5603000D01*
X16144000Y-5573000D02*
X16114000Y-5603000D01*
X16129240Y-9403320D02*
X16159240Y-9433320D01*
X16159240Y-9403320D02*
X16129240Y-9433320D01*
X16144800Y-10546000D02*
X16174800Y-10576000D01*
X16174800Y-10546000D02*
X16144800Y-10576000D01*
X16144800Y-10850800D02*
X16174800Y-10880800D01*
X16174800Y-10850800D02*
X16144800Y-10880800D01*
X16144800Y-11982402D02*
X16174800Y-12012402D01*
X16174800Y-11982402D02*
X16144800Y-12012402D01*
X16151198Y-9733200D02*
X16181198Y-9763200D01*
X16181198Y-9733200D02*
X16151198Y-9763200D01*
X16151198Y-11169602D02*
X16181198Y-11199602D01*
X16181198Y-11169602D02*
X16151198Y-11199602D01*
X16164800Y-12304000D02*
X16194800Y-12334000D01*
X16194800Y-12304000D02*
X16164800Y-12334000D01*
X16174960Y-8636240D02*
X16204960Y-8666240D01*
X16204960Y-8636240D02*
X16174960Y-8666240D01*
X16177500Y-5128500D02*
X16207500Y-5158500D01*
X16207500Y-5128500D02*
X16177500Y-5158500D01*
X16190200Y-7173200D02*
X16220200Y-7203200D01*
X16220200Y-7173200D02*
X16190200Y-7203200D01*
X16197400Y-8925800D02*
X16227400Y-8955800D01*
X16227400Y-8925800D02*
X16197400Y-8955800D01*
X16205440Y-8808960D02*
X16235440Y-8838960D01*
X16235440Y-8808960D02*
X16205440Y-8838960D01*
X16209198Y-9789400D02*
X16239198Y-9819400D01*
X16239198Y-9789400D02*
X16209198Y-9819400D01*
X16209423Y-9015380D02*
X16239423Y-9045380D01*
X16239423Y-9015380D02*
X16209423Y-9045380D01*
X16231199Y-11169602D02*
X16261199Y-11199602D01*
X16261199Y-11169602D02*
X16231199Y-11199602D01*
X16231200Y-10545595D02*
X16261200Y-10575595D01*
X16261200Y-10545595D02*
X16231200Y-10575595D01*
X16231200Y-11981997D02*
X16261200Y-12011997D01*
X16261200Y-11981997D02*
X16231200Y-12011997D01*
X16241000Y-5509500D02*
X16271000Y-5539500D01*
X16271000Y-5509500D02*
X16241000Y-5539500D01*
X16247852Y-10130221D02*
X16277852Y-10160221D01*
X16277852Y-10130221D02*
X16247852Y-10160221D01*
X16247852Y-11566624D02*
X16277852Y-11596624D01*
X16277852Y-11566624D02*
X16247852Y-11596624D01*
X16250239Y-10045810D02*
X16280239Y-10075810D01*
X16280239Y-10045810D02*
X16250239Y-10075810D01*
X16250239Y-11482212D02*
X16280239Y-11512212D01*
X16280239Y-11482212D02*
X16250239Y-11512212D01*
X16253700Y-10322800D02*
X16283700Y-10352800D01*
X16283700Y-10322800D02*
X16253700Y-10352800D01*
X16253700Y-11796000D02*
X16283700Y-11826000D01*
X16283700Y-11796000D02*
X16253700Y-11826000D01*
X16262012Y-9952012D02*
X16292012Y-9982012D01*
X16292012Y-9952012D02*
X16262012Y-9982012D01*
X16262012Y-11388414D02*
X16292012Y-11418414D01*
X16292012Y-11388414D02*
X16262012Y-11418414D01*
X16301960Y-10404080D02*
X16331960Y-10434080D01*
X16331960Y-10404080D02*
X16301960Y-10434080D01*
X16311199Y-10546000D02*
X16341199Y-10576000D01*
X16341199Y-10546000D02*
X16311199Y-10576000D01*
X16311199Y-11982402D02*
X16341199Y-12012402D01*
X16341199Y-11982402D02*
X16311199Y-12012402D01*
X16333199Y-10855575D02*
X16363199Y-10885575D01*
X16363199Y-10855575D02*
X16333199Y-10885575D01*
X16333199Y-11317227D02*
X16363199Y-11347227D01*
X16363199Y-11317227D02*
X16333199Y-11347227D01*
X16340896Y-8419504D02*
X16370896Y-8449504D01*
X16370896Y-8419504D02*
X16340896Y-8449504D01*
X16354600Y-6995400D02*
X16384600Y-7025400D01*
X16384600Y-6995400D02*
X16354600Y-7025400D01*
X16354600Y-7097000D02*
X16384600Y-7127000D01*
X16384600Y-7097000D02*
X16354600Y-7127000D01*
X16354600Y-7198600D02*
X16384600Y-7228600D01*
X16384600Y-7198600D02*
X16354600Y-7228600D01*
X16391199Y-10546000D02*
X16421199Y-10576000D01*
X16421199Y-10546000D02*
X16391199Y-10576000D01*
X16391199Y-11982402D02*
X16421199Y-12012402D01*
X16421199Y-11982402D02*
X16391199Y-12012402D01*
X16449199Y-10028549D02*
X16479199Y-10058549D01*
X16479199Y-10028549D02*
X16449199Y-10058549D01*
X16468800Y-9402811D02*
X16498800Y-9432811D01*
X16498800Y-9402811D02*
X16468800Y-9432811D01*
X16471200Y-9733200D02*
X16501200Y-9763200D01*
X16501200Y-9733200D02*
X16471200Y-9763200D01*
X16471200Y-10546000D02*
X16501200Y-10576000D01*
X16501200Y-10546000D02*
X16471200Y-10576000D01*
X16471200Y-11169602D02*
X16501200Y-11199602D01*
X16501200Y-11169602D02*
X16471200Y-11199602D01*
X16471200Y-11982402D02*
X16501200Y-12012402D01*
X16501200Y-11982402D02*
X16471200Y-12012402D01*
X16479760Y-8600680D02*
X16509760Y-8630680D01*
X16509760Y-8600680D02*
X16479760Y-8630680D01*
X16479760Y-10414240D02*
X16509760Y-10444240D01*
X16509760Y-10414240D02*
X16479760Y-10444240D01*
X16487800Y-8672062D02*
X16517800Y-8702062D01*
X16517800Y-8672062D02*
X16487800Y-8702062D01*
X16495000Y-7732000D02*
X16525000Y-7762000D01*
X16525000Y-7732000D02*
X16495000Y-7762000D01*
X16495000Y-11262600D02*
X16525000Y-11292600D01*
X16525000Y-11262600D02*
X16495000Y-11292600D01*
X16495000Y-11796000D02*
X16525000Y-11826000D01*
X16525000Y-11796000D02*
X16495000Y-11826000D01*
X16505375Y-8503983D02*
X16535375Y-8533983D01*
X16535375Y-8503983D02*
X16505375Y-8533983D01*
X16520400Y-10322800D02*
X16550400Y-10352800D01*
X16550400Y-10322800D02*
X16520400Y-10352800D01*
X16551200Y-9733200D02*
X16581200Y-9763200D01*
X16581200Y-9733200D02*
X16551200Y-9763200D01*
X16551200Y-10546000D02*
X16581200Y-10576000D01*
X16581200Y-10546000D02*
X16551200Y-10576000D01*
X16551200Y-11169602D02*
X16581200Y-11199602D01*
X16581200Y-11169602D02*
X16551200Y-11199602D01*
X16551200Y-11982402D02*
X16581200Y-12012402D01*
X16581200Y-11982402D02*
X16551200Y-12012402D01*
X16563600Y-9472201D02*
X16593600Y-9502201D01*
X16593600Y-9472201D02*
X16563600Y-9502201D01*
X16622000Y-7605000D02*
X16652000Y-7635000D01*
X16652000Y-7605000D02*
X16622000Y-7635000D01*
X16643694Y-9237300D02*
X16673694Y-9267300D01*
X16673694Y-9237300D02*
X16643694Y-9267300D01*
X16645199Y-9733200D02*
X16675199Y-9763200D01*
X16675199Y-9733200D02*
X16645199Y-9763200D01*
X16645199Y-10546000D02*
X16675199Y-10576000D01*
X16675199Y-10546000D02*
X16645199Y-10576000D01*
X16645199Y-11169602D02*
X16675199Y-11199602D01*
X16675199Y-11169602D02*
X16645199Y-11199602D01*
X16645199Y-11982402D02*
X16675199Y-12012402D01*
X16675199Y-11982402D02*
X16645199Y-12012402D01*
X16647400Y-8976600D02*
X16677400Y-9006600D01*
X16677400Y-8976600D02*
X16647400Y-9006600D01*
X16648839Y-9157465D02*
X16678839Y-9187465D01*
X16678839Y-9157465D02*
X16648839Y-9187465D01*
X16698200Y-11262600D02*
X16728200Y-11292600D01*
X16728200Y-11262600D02*
X16698200Y-11292600D01*
X16713440Y-11821400D02*
X16743440Y-11851400D01*
X16743440Y-11821400D02*
X16713440Y-11851400D01*
X16725200Y-10546000D02*
X16755200Y-10576000D01*
X16755200Y-10546000D02*
X16725200Y-10576000D01*
X16725200Y-11169602D02*
X16755200Y-11199602D01*
X16755200Y-11169602D02*
X16725200Y-11199602D01*
X16725200Y-11982402D02*
X16755200Y-12012402D01*
X16755200Y-11982402D02*
X16725200Y-12012402D01*
X16726886Y-9716858D02*
X16756886Y-9746858D01*
X16756886Y-9716858D02*
X16726886Y-9746858D01*
X16749000Y-8113000D02*
X16779000Y-8143000D01*
X16779000Y-8113000D02*
X16749000Y-8143000D01*
X16784560Y-11750280D02*
X16814560Y-11780280D01*
X16814560Y-11750280D02*
X16784560Y-11780280D01*
X16805200Y-9733200D02*
X16835200Y-9763200D01*
X16835200Y-9733200D02*
X16805200Y-9763200D01*
X16805200Y-10546000D02*
X16835200Y-10576000D01*
X16835200Y-10546000D02*
X16805200Y-10576000D01*
X16805200Y-11169602D02*
X16835200Y-11199602D01*
X16835200Y-11169602D02*
X16805200Y-11199602D01*
X16805200Y-11982402D02*
X16835200Y-12012402D01*
X16835200Y-11982402D02*
X16805200Y-12012402D01*
X16977600Y-8417800D02*
X17007600Y-8447800D01*
X17007600Y-8417800D02*
X16977600Y-8447800D01*
X16977600Y-8671800D02*
X17007600Y-8701800D01*
X17007600Y-8671800D02*
X16977600Y-8701800D01*
X16977600Y-9814800D02*
X17007600Y-9844800D01*
X17007600Y-9814800D02*
X16977600Y-9844800D01*
X16977600Y-10983200D02*
X17007600Y-11013200D01*
X17007600Y-10983200D02*
X16977600Y-11013200D01*
X16997920Y-12171920D02*
X17027920Y-12201920D01*
X17027920Y-12171920D02*
X16997920Y-12201920D01*
X17003000Y-8240000D02*
X17033000Y-8270000D01*
X17033000Y-8240000D02*
X17003000Y-8270000D01*
X17180800Y-8163800D02*
X17210800Y-8193800D01*
X17210800Y-8163800D02*
X17180800Y-8193800D01*
X10786580Y-13484860D02*
G75*
G02*
X10686580Y-13484860I-50000J0D01*
G01*
X10686580Y-13484860D02*
G75*
G02*
X10786580Y-13484860I50000J0D01*
G01*
X10786580Y-13738860D02*
G75*
G02*
X10686580Y-13738860I-50000J0D01*
G01*
X10686580Y-13738860D02*
G75*
G02*
X10786580Y-13738860I50000J0D01*
G01*
X11040580Y-13484860D02*
G75*
G02*
X10940580Y-13484860I-50000J0D01*
G01*
X10940580Y-13484860D02*
G75*
G02*
X11040580Y-13484860I50000J0D01*
G01*
X11040580Y-13738860D02*
G75*
G02*
X10940580Y-13738860I-50000J0D01*
G01*
X10940580Y-13738860D02*
G75*
G02*
X11040580Y-13738860I50000J0D01*
G01*
X11294580Y-13484860D02*
G75*
G02*
X11194580Y-13484860I-50000J0D01*
G01*
X11194580Y-13484860D02*
G75*
G02*
X11294580Y-13484860I50000J0D01*
G01*
X11294580Y-13738860D02*
G75*
G02*
X11194580Y-13738860I-50000J0D01*
G01*
X11194580Y-13738860D02*
G75*
G02*
X11294580Y-13738860I50000J0D01*
G01*
X11548580Y-13484860D02*
G75*
G02*
X11448580Y-13484860I-50000J0D01*
G01*
X11448580Y-13484860D02*
G75*
G02*
X11548580Y-13484860I50000J0D01*
G01*
X11548580Y-13738860D02*
G75*
G02*
X11448580Y-13738860I-50000J0D01*
G01*
X11448580Y-13738860D02*
G75*
G02*
X11548580Y-13738860I50000J0D01*
G01*
X11802580Y-13484860D02*
G75*
G02*
X11702580Y-13484860I-50000J0D01*
G01*
X11702580Y-13484860D02*
G75*
G02*
X11802580Y-13484860I50000J0D01*
G01*
X11802580Y-13738860D02*
G75*
G02*
X11702580Y-13738860I-50000J0D01*
G01*
X11702580Y-13738860D02*
G75*
G02*
X11802580Y-13738860I50000J0D01*
G01*
X12056580Y-13484860D02*
G75*
G02*
X11956580Y-13484860I-50000J0D01*
G01*
X11956580Y-13484860D02*
G75*
G02*
X12056580Y-13484860I50000J0D01*
G01*
X12056580Y-13738860D02*
G75*
G02*
X11956580Y-13738860I-50000J0D01*
G01*
X11956580Y-13738860D02*
G75*
G02*
X12056580Y-13738860I50000J0D01*
G01*
X12253430Y-5030470D02*
G75*
G02*
X12153430Y-5030470I-50000J0D01*
G01*
X12153430Y-5030470D02*
G75*
G02*
X12253430Y-5030470I50000J0D01*
G01*
X12253430Y-5284470D02*
G75*
G02*
X12153430Y-5284470I-50000J0D01*
G01*
X12153430Y-5284470D02*
G75*
G02*
X12253430Y-5284470I50000J0D01*
G01*
X12310580Y-13484860D02*
G75*
G02*
X12210580Y-13484860I-50000J0D01*
G01*
X12210580Y-13484860D02*
G75*
G02*
X12310580Y-13484860I50000J0D01*
G01*
X12310580Y-13738860D02*
G75*
G02*
X12210580Y-13738860I-50000J0D01*
G01*
X12210580Y-13738860D02*
G75*
G02*
X12310580Y-13738860I50000J0D01*
G01*
X12507430Y-5030470D02*
G75*
G02*
X12407430Y-5030470I-50000J0D01*
G01*
X12407430Y-5030470D02*
G75*
G02*
X12507430Y-5030470I50000J0D01*
G01*
X12507430Y-5284470D02*
G75*
G02*
X12407430Y-5284470I-50000J0D01*
G01*
X12407430Y-5284470D02*
G75*
G02*
X12507430Y-5284470I50000J0D01*
G01*
X12564580Y-13484860D02*
G75*
G02*
X12464580Y-13484860I-50000J0D01*
G01*
X12464580Y-13484860D02*
G75*
G02*
X12564580Y-13484860I50000J0D01*
G01*
X12564580Y-13738860D02*
G75*
G02*
X12464580Y-13738860I-50000J0D01*
G01*
X12464580Y-13738860D02*
G75*
G02*
X12564580Y-13738860I50000J0D01*
G01*
X12761430Y-5030470D02*
G75*
G02*
X12661430Y-5030470I-50000J0D01*
G01*
X12661430Y-5030470D02*
G75*
G02*
X12761430Y-5030470I50000J0D01*
G01*
X12761430Y-5284470D02*
G75*
G02*
X12661430Y-5284470I-50000J0D01*
G01*
X12661430Y-5284470D02*
G75*
G02*
X12761430Y-5284470I50000J0D01*
G01*
X12818580Y-13484860D02*
G75*
G02*
X12718580Y-13484860I-50000J0D01*
G01*
X12718580Y-13484860D02*
G75*
G02*
X12818580Y-13484860I50000J0D01*
G01*
X12818580Y-13738860D02*
G75*
G02*
X12718580Y-13738860I-50000J0D01*
G01*
X12718580Y-13738860D02*
G75*
G02*
X12818580Y-13738860I50000J0D01*
G01*
X13015430Y-5030470D02*
G75*
G02*
X12915430Y-5030470I-50000J0D01*
G01*
X12915430Y-5030470D02*
G75*
G02*
X13015430Y-5030470I50000J0D01*
G01*
X13015430Y-5284470D02*
G75*
G02*
X12915430Y-5284470I-50000J0D01*
G01*
X12915430Y-5284470D02*
G75*
G02*
X13015430Y-5284470I50000J0D01*
G01*
X13072580Y-13484860D02*
G75*
G02*
X12972580Y-13484860I-50000J0D01*
G01*
X12972580Y-13484860D02*
G75*
G02*
X13072580Y-13484860I50000J0D01*
G01*
X13072580Y-13738860D02*
G75*
G02*
X12972580Y-13738860I-50000J0D01*
G01*
X12972580Y-13738860D02*
G75*
G02*
X13072580Y-13738860I50000J0D01*
G01*
X13269430Y-5030470D02*
G75*
G02*
X13169430Y-5030470I-50000J0D01*
G01*
X13169430Y-5030470D02*
G75*
G02*
X13269430Y-5030470I50000J0D01*
G01*
X13269430Y-5284470D02*
G75*
G02*
X13169430Y-5284470I-50000J0D01*
G01*
X13169430Y-5284470D02*
G75*
G02*
X13269430Y-5284470I50000J0D01*
G01*
X13326580Y-13484860D02*
G75*
G02*
X13226580Y-13484860I-50000J0D01*
G01*
X13226580Y-13484860D02*
G75*
G02*
X13326580Y-13484860I50000J0D01*
G01*
X13326580Y-13738860D02*
G75*
G02*
X13226580Y-13738860I-50000J0D01*
G01*
X13226580Y-13738860D02*
G75*
G02*
X13326580Y-13738860I50000J0D01*
G01*
X13523430Y-5030470D02*
G75*
G02*
X13423430Y-5030470I-50000J0D01*
G01*
X13423430Y-5030470D02*
G75*
G02*
X13523430Y-5030470I50000J0D01*
G01*
X13523430Y-5284470D02*
G75*
G02*
X13423430Y-5284470I-50000J0D01*
G01*
X13423430Y-5284470D02*
G75*
G02*
X13523430Y-5284470I50000J0D01*
G01*
X13580580Y-13484860D02*
G75*
G02*
X13480580Y-13484860I-50000J0D01*
G01*
X13480580Y-13484860D02*
G75*
G02*
X13580580Y-13484860I50000J0D01*
G01*
X13580580Y-13738860D02*
G75*
G02*
X13480580Y-13738860I-50000J0D01*
G01*
X13480580Y-13738860D02*
G75*
G02*
X13580580Y-13738860I50000J0D01*
G01*
X13777430Y-5030470D02*
G75*
G02*
X13677430Y-5030470I-50000J0D01*
G01*
X13677430Y-5030470D02*
G75*
G02*
X13777430Y-5030470I50000J0D01*
G01*
X13777430Y-5284470D02*
G75*
G02*
X13677430Y-5284470I-50000J0D01*
G01*
X13677430Y-5284470D02*
G75*
G02*
X13777430Y-5284470I50000J0D01*
G01*
X13834580Y-13484860D02*
G75*
G02*
X13734580Y-13484860I-50000J0D01*
G01*
X13734580Y-13484860D02*
G75*
G02*
X13834580Y-13484860I50000J0D01*
G01*
X13834580Y-13738860D02*
G75*
G02*
X13734580Y-13738860I-50000J0D01*
G01*
X13734580Y-13738860D02*
G75*
G02*
X13834580Y-13738860I50000J0D01*
G01*
X14031430Y-5030470D02*
G75*
G02*
X13931430Y-5030470I-50000J0D01*
G01*
X13931430Y-5030470D02*
G75*
G02*
X14031430Y-5030470I50000J0D01*
G01*
X14031430Y-5284470D02*
G75*
G02*
X13931430Y-5284470I-50000J0D01*
G01*
X13931430Y-5284470D02*
G75*
G02*
X14031430Y-5284470I50000J0D01*
G01*
X14088580Y-13484860D02*
G75*
G02*
X13988580Y-13484860I-50000J0D01*
G01*
X13988580Y-13484860D02*
G75*
G02*
X14088580Y-13484860I50000J0D01*
G01*
X14088580Y-13738860D02*
G75*
G02*
X13988580Y-13738860I-50000J0D01*
G01*
X13988580Y-13738860D02*
G75*
G02*
X14088580Y-13738860I50000J0D01*
G01*
X14285430Y-5030470D02*
G75*
G02*
X14185430Y-5030470I-50000J0D01*
G01*
X14185430Y-5030470D02*
G75*
G02*
X14285430Y-5030470I50000J0D01*
G01*
X14285430Y-5284470D02*
G75*
G02*
X14185430Y-5284470I-50000J0D01*
G01*
X14185430Y-5284470D02*
G75*
G02*
X14285430Y-5284470I50000J0D01*
G01*
X14342580Y-13484860D02*
G75*
G02*
X14242580Y-13484860I-50000J0D01*
G01*
X14242580Y-13484860D02*
G75*
G02*
X14342580Y-13484860I50000J0D01*
G01*
X14342580Y-13738860D02*
G75*
G02*
X14242580Y-13738860I-50000J0D01*
G01*
X14242580Y-13738860D02*
G75*
G02*
X14342580Y-13738860I50000J0D01*
G01*
X14539430Y-5030470D02*
G75*
G02*
X14439430Y-5030470I-50000J0D01*
G01*
X14439430Y-5030470D02*
G75*
G02*
X14539430Y-5030470I50000J0D01*
G01*
X14539430Y-5284470D02*
G75*
G02*
X14439430Y-5284470I-50000J0D01*
G01*
X14439430Y-5284470D02*
G75*
G02*
X14539430Y-5284470I50000J0D01*
G01*
X14596580Y-13484860D02*
G75*
G02*
X14496580Y-13484860I-50000J0D01*
G01*
X14496580Y-13484860D02*
G75*
G02*
X14596580Y-13484860I50000J0D01*
G01*
X14596580Y-13738860D02*
G75*
G02*
X14496580Y-13738860I-50000J0D01*
G01*
X14496580Y-13738860D02*
G75*
G02*
X14596580Y-13738860I50000J0D01*
G01*
X14793430Y-5030470D02*
G75*
G02*
X14693430Y-5030470I-50000J0D01*
G01*
X14693430Y-5030470D02*
G75*
G02*
X14793430Y-5030470I50000J0D01*
G01*
X14793430Y-5284470D02*
G75*
G02*
X14693430Y-5284470I-50000J0D01*
G01*
X14693430Y-5284470D02*
G75*
G02*
X14793430Y-5284470I50000J0D01*
G01*
X15047430Y-5030470D02*
G75*
G02*
X14947430Y-5030470I-50000J0D01*
G01*
X14947430Y-5030470D02*
G75*
G02*
X15047430Y-5030470I50000J0D01*
G01*
X15047430Y-5284470D02*
G75*
G02*
X14947430Y-5284470I-50000J0D01*
G01*
X14947430Y-5284470D02*
G75*
G02*
X15047430Y-5284470I50000J0D01*
G01*
X15301430Y-5030470D02*
G75*
G02*
X15201430Y-5030470I-50000J0D01*
G01*
X15201430Y-5030470D02*
G75*
G02*
X15301430Y-5030470I50000J0D01*
G01*
X15301430Y-5284470D02*
G75*
G02*
X15201430Y-5284470I-50000J0D01*
G01*
X15201430Y-5284470D02*
G75*
G02*
X15301430Y-5284470I50000J0D01*
G01*
X15555430Y-5030470D02*
G75*
G02*
X15455430Y-5030470I-50000J0D01*
G01*
X15455430Y-5030470D02*
G75*
G02*
X15555430Y-5030470I50000J0D01*
G01*
X15555430Y-5284470D02*
G75*
G02*
X15455430Y-5284470I-50000J0D01*
G01*
X15455430Y-5284470D02*
G75*
G02*
X15555430Y-5284470I50000J0D01*
G01*
X15809430Y-5030470D02*
G75*
G02*
X15709430Y-5030470I-50000J0D01*
G01*
X15709430Y-5030470D02*
G75*
G02*
X15809430Y-5030470I50000J0D01*
G01*
X15809430Y-5284470D02*
G75*
G02*
X15709430Y-5284470I-50000J0D01*
G01*
X15709430Y-5284470D02*
G75*
G02*
X15809430Y-5284470I50000J0D01*
G01*
X16063430Y-5030470D02*
G75*
G02*
X15963430Y-5030470I-50000J0D01*
G01*
X15963430Y-5030470D02*
G75*
G02*
X16063430Y-5030470I50000J0D01*
G01*
X16063430Y-5284470D02*
G75*
G02*
X15963430Y-5284470I-50000J0D01*
G01*
X15963430Y-5284470D02*
G75*
G02*
X16063430Y-5284470I50000J0D01*
G01*
D11*
X10608777Y-14499884D02*
X10608777Y-14299884D01*
X10608777Y-14299884D02*
X10656396Y-14299884D01*
X10656396Y-14299884D02*
X10684967Y-14309408D01*
X10684967Y-14309408D02*
X10704015Y-14328455D01*
X10704015Y-14328455D02*
X10713539Y-14347503D01*
X10713539Y-14347503D02*
X10723063Y-14385598D01*
X10723063Y-14385598D02*
X10723063Y-14414169D01*
X10723063Y-14414169D02*
X10713539Y-14452265D01*
X10713539Y-14452265D02*
X10704015Y-14471312D01*
X10704015Y-14471312D02*
X10684967Y-14490360D01*
X10684967Y-14490360D02*
X10656396Y-14499884D01*
X10656396Y-14499884D02*
X10608777Y-14499884D01*
X10808777Y-14499884D02*
X10808777Y-14366550D01*
X10808777Y-14404646D02*
X10818301Y-14385598D01*
X10818301Y-14385598D02*
X10827824Y-14376074D01*
X10827824Y-14376074D02*
X10846872Y-14366550D01*
X10846872Y-14366550D02*
X10865920Y-14366550D01*
X10932586Y-14499884D02*
X10932586Y-14366550D01*
X10932586Y-14299884D02*
X10923063Y-14309408D01*
X10923063Y-14309408D02*
X10932586Y-14318931D01*
X10932586Y-14318931D02*
X10942110Y-14309408D01*
X10942110Y-14309408D02*
X10932586Y-14299884D01*
X10932586Y-14299884D02*
X10932586Y-14318931D01*
X11056396Y-14499884D02*
X11037348Y-14490360D01*
X11037348Y-14490360D02*
X11027824Y-14471312D01*
X11027824Y-14471312D02*
X11027824Y-14299884D01*
X11161158Y-14499884D02*
X11142110Y-14490360D01*
X11142110Y-14490360D02*
X11132586Y-14471312D01*
X11132586Y-14471312D02*
X11132586Y-14299884D01*
X11389729Y-14499884D02*
X11389729Y-14299884D01*
X11389729Y-14299884D02*
X11456396Y-14442741D01*
X11456396Y-14442741D02*
X11523062Y-14299884D01*
X11523062Y-14299884D02*
X11523062Y-14499884D01*
X11704015Y-14499884D02*
X11704015Y-14395122D01*
X11704015Y-14395122D02*
X11694491Y-14376074D01*
X11694491Y-14376074D02*
X11675443Y-14366550D01*
X11675443Y-14366550D02*
X11637348Y-14366550D01*
X11637348Y-14366550D02*
X11618301Y-14376074D01*
X11704015Y-14490360D02*
X11684967Y-14499884D01*
X11684967Y-14499884D02*
X11637348Y-14499884D01*
X11637348Y-14499884D02*
X11618301Y-14490360D01*
X11618301Y-14490360D02*
X11608777Y-14471312D01*
X11608777Y-14471312D02*
X11608777Y-14452265D01*
X11608777Y-14452265D02*
X11618301Y-14433217D01*
X11618301Y-14433217D02*
X11637348Y-14423693D01*
X11637348Y-14423693D02*
X11684967Y-14423693D01*
X11684967Y-14423693D02*
X11704015Y-14414169D01*
X11799253Y-14366550D02*
X11799253Y-14566550D01*
X11799253Y-14376074D02*
X11818301Y-14366550D01*
X11818301Y-14366550D02*
X11856396Y-14366550D01*
X11856396Y-14366550D02*
X11875443Y-14376074D01*
X11875443Y-14376074D02*
X11884967Y-14385598D01*
X11884967Y-14385598D02*
X11894491Y-14404646D01*
X11894491Y-14404646D02*
X11894491Y-14461788D01*
X11894491Y-14461788D02*
X11884967Y-14480836D01*
X11884967Y-14480836D02*
X11875443Y-14490360D01*
X11875443Y-14490360D02*
X11856396Y-14499884D01*
X11856396Y-14499884D02*
X11818301Y-14499884D01*
X11818301Y-14499884D02*
X11799253Y-14490360D01*
X11980205Y-14480836D02*
X11989729Y-14490360D01*
X11989729Y-14490360D02*
X11980205Y-14499884D01*
X11980205Y-14499884D02*
X11970682Y-14490360D01*
X11970682Y-14490360D02*
X11980205Y-14480836D01*
X11980205Y-14480836D02*
X11980205Y-14499884D01*
X11980205Y-14376074D02*
X11989729Y-14385598D01*
X11989729Y-14385598D02*
X11980205Y-14395122D01*
X11980205Y-14395122D02*
X11970682Y-14385598D01*
X11970682Y-14385598D02*
X11980205Y-14376074D01*
X11980205Y-14376074D02*
X11980205Y-14395122D01*
D12*
X10318000Y-14813400D02*
X10348000Y-14843400D01*
X10348000Y-14813400D02*
X10318000Y-14843400D01*
D11*
X10646872Y-14719884D02*
X10665920Y-14719884D01*
X10665920Y-14719884D02*
X10684967Y-14729408D01*
X10684967Y-14729408D02*
X10694491Y-14738931D01*
X10694491Y-14738931D02*
X10704015Y-14757979D01*
X10704015Y-14757979D02*
X10713539Y-14796074D01*
X10713539Y-14796074D02*
X10713539Y-14843693D01*
X10713539Y-14843693D02*
X10704015Y-14881788D01*
X10704015Y-14881788D02*
X10694491Y-14900836D01*
X10694491Y-14900836D02*
X10684967Y-14910360D01*
X10684967Y-14910360D02*
X10665920Y-14919884D01*
X10665920Y-14919884D02*
X10646872Y-14919884D01*
X10646872Y-14919884D02*
X10627824Y-14910360D01*
X10627824Y-14910360D02*
X10618301Y-14900836D01*
X10618301Y-14900836D02*
X10608777Y-14881788D01*
X10608777Y-14881788D02*
X10599253Y-14843693D01*
X10599253Y-14843693D02*
X10599253Y-14796074D01*
X10599253Y-14796074D02*
X10608777Y-14757979D01*
X10608777Y-14757979D02*
X10618301Y-14738931D01*
X10618301Y-14738931D02*
X10627824Y-14729408D01*
X10627824Y-14729408D02*
X10646872Y-14719884D01*
X10799253Y-14900836D02*
X10808777Y-14910360D01*
X10808777Y-14910360D02*
X10799253Y-14919884D01*
X10799253Y-14919884D02*
X10789729Y-14910360D01*
X10789729Y-14910360D02*
X10799253Y-14900836D01*
X10799253Y-14900836D02*
X10799253Y-14919884D01*
X10875444Y-14719884D02*
X10999253Y-14719884D01*
X10999253Y-14719884D02*
X10932586Y-14796074D01*
X10932586Y-14796074D02*
X10961158Y-14796074D01*
X10961158Y-14796074D02*
X10980205Y-14805598D01*
X10980205Y-14805598D02*
X10989729Y-14815122D01*
X10989729Y-14815122D02*
X10999253Y-14834169D01*
X10999253Y-14834169D02*
X10999253Y-14881788D01*
X10999253Y-14881788D02*
X10989729Y-14900836D01*
X10989729Y-14900836D02*
X10980205Y-14910360D01*
X10980205Y-14910360D02*
X10961158Y-14919884D01*
X10961158Y-14919884D02*
X10904015Y-14919884D01*
X10904015Y-14919884D02*
X10884967Y-14910360D01*
X10884967Y-14910360D02*
X10875444Y-14900836D01*
X11123063Y-14719884D02*
X11142110Y-14719884D01*
X11142110Y-14719884D02*
X11161158Y-14729408D01*
X11161158Y-14729408D02*
X11170682Y-14738931D01*
X11170682Y-14738931D02*
X11180205Y-14757979D01*
X11180205Y-14757979D02*
X11189729Y-14796074D01*
X11189729Y-14796074D02*
X11189729Y-14843693D01*
X11189729Y-14843693D02*
X11180205Y-14881788D01*
X11180205Y-14881788D02*
X11170682Y-14900836D01*
X11170682Y-14900836D02*
X11161158Y-14910360D01*
X11161158Y-14910360D02*
X11142110Y-14919884D01*
X11142110Y-14919884D02*
X11123063Y-14919884D01*
X11123063Y-14919884D02*
X11104015Y-14910360D01*
X11104015Y-14910360D02*
X11094491Y-14900836D01*
X11094491Y-14900836D02*
X11084967Y-14881788D01*
X11084967Y-14881788D02*
X11075444Y-14843693D01*
X11075444Y-14843693D02*
X11075444Y-14796074D01*
X11075444Y-14796074D02*
X11084967Y-14757979D01*
X11084967Y-14757979D02*
X11094491Y-14738931D01*
X11094491Y-14738931D02*
X11104015Y-14729408D01*
X11104015Y-14729408D02*
X11123063Y-14719884D01*
X11313539Y-14719884D02*
X11332586Y-14719884D01*
X11332586Y-14719884D02*
X11351634Y-14729408D01*
X11351634Y-14729408D02*
X11361158Y-14738931D01*
X11361158Y-14738931D02*
X11370682Y-14757979D01*
X11370682Y-14757979D02*
X11380205Y-14796074D01*
X11380205Y-14796074D02*
X11380205Y-14843693D01*
X11380205Y-14843693D02*
X11370682Y-14881788D01*
X11370682Y-14881788D02*
X11361158Y-14900836D01*
X11361158Y-14900836D02*
X11351634Y-14910360D01*
X11351634Y-14910360D02*
X11332586Y-14919884D01*
X11332586Y-14919884D02*
X11313539Y-14919884D01*
X11313539Y-14919884D02*
X11294491Y-14910360D01*
X11294491Y-14910360D02*
X11284967Y-14900836D01*
X11284967Y-14900836D02*
X11275443Y-14881788D01*
X11275443Y-14881788D02*
X11265920Y-14843693D01*
X11265920Y-14843693D02*
X11265920Y-14796074D01*
X11265920Y-14796074D02*
X11275443Y-14757979D01*
X11275443Y-14757979D02*
X11284967Y-14738931D01*
X11284967Y-14738931D02*
X11294491Y-14729408D01*
X11294491Y-14729408D02*
X11313539Y-14719884D01*
X11465920Y-14919884D02*
X11465920Y-14786550D01*
X11465920Y-14805598D02*
X11475443Y-14796074D01*
X11475443Y-14796074D02*
X11494491Y-14786550D01*
X11494491Y-14786550D02*
X11523063Y-14786550D01*
X11523063Y-14786550D02*
X11542110Y-14796074D01*
X11542110Y-14796074D02*
X11551634Y-14815122D01*
X11551634Y-14815122D02*
X11551634Y-14919884D01*
X11551634Y-14815122D02*
X11561158Y-14796074D01*
X11561158Y-14796074D02*
X11580205Y-14786550D01*
X11580205Y-14786550D02*
X11608777Y-14786550D01*
X11608777Y-14786550D02*
X11627824Y-14796074D01*
X11627824Y-14796074D02*
X11637348Y-14815122D01*
X11637348Y-14815122D02*
X11637348Y-14919884D01*
X11732586Y-14919884D02*
X11732586Y-14786550D01*
X11732586Y-14805598D02*
X11742110Y-14796074D01*
X11742110Y-14796074D02*
X11761158Y-14786550D01*
X11761158Y-14786550D02*
X11789729Y-14786550D01*
X11789729Y-14786550D02*
X11808777Y-14796074D01*
X11808777Y-14796074D02*
X11818301Y-14815122D01*
X11818301Y-14815122D02*
X11818301Y-14919884D01*
X11818301Y-14815122D02*
X11827824Y-14796074D01*
X11827824Y-14796074D02*
X11846872Y-14786550D01*
X11846872Y-14786550D02*
X11875443Y-14786550D01*
X11875443Y-14786550D02*
X11894491Y-14796074D01*
X11894491Y-14796074D02*
X11904015Y-14815122D01*
X11904015Y-14815122D02*
X11904015Y-14919884D01*
X12294491Y-14710360D02*
X12123063Y-14967503D01*
X12551634Y-14719884D02*
X12570682Y-14719884D01*
X12570682Y-14719884D02*
X12589729Y-14729408D01*
X12589729Y-14729408D02*
X12599253Y-14738931D01*
X12599253Y-14738931D02*
X12608777Y-14757979D01*
X12608777Y-14757979D02*
X12618301Y-14796074D01*
X12618301Y-14796074D02*
X12618301Y-14843693D01*
X12618301Y-14843693D02*
X12608777Y-14881788D01*
X12608777Y-14881788D02*
X12599253Y-14900836D01*
X12599253Y-14900836D02*
X12589729Y-14910360D01*
X12589729Y-14910360D02*
X12570682Y-14919884D01*
X12570682Y-14919884D02*
X12551634Y-14919884D01*
X12551634Y-14919884D02*
X12532586Y-14910360D01*
X12532586Y-14910360D02*
X12523063Y-14900836D01*
X12523063Y-14900836D02*
X12513539Y-14881788D01*
X12513539Y-14881788D02*
X12504015Y-14843693D01*
X12504015Y-14843693D02*
X12504015Y-14796074D01*
X12504015Y-14796074D02*
X12513539Y-14757979D01*
X12513539Y-14757979D02*
X12523063Y-14738931D01*
X12523063Y-14738931D02*
X12532586Y-14729408D01*
X12532586Y-14729408D02*
X12551634Y-14719884D01*
X12704015Y-14900836D02*
X12713539Y-14910360D01*
X12713539Y-14910360D02*
X12704015Y-14919884D01*
X12704015Y-14919884D02*
X12694491Y-14910360D01*
X12694491Y-14910360D02*
X12704015Y-14900836D01*
X12704015Y-14900836D02*
X12704015Y-14919884D01*
X12837348Y-14719884D02*
X12856396Y-14719884D01*
X12856396Y-14719884D02*
X12875444Y-14729408D01*
X12875444Y-14729408D02*
X12884967Y-14738931D01*
X12884967Y-14738931D02*
X12894491Y-14757979D01*
X12894491Y-14757979D02*
X12904015Y-14796074D01*
X12904015Y-14796074D02*
X12904015Y-14843693D01*
X12904015Y-14843693D02*
X12894491Y-14881788D01*
X12894491Y-14881788D02*
X12884967Y-14900836D01*
X12884967Y-14900836D02*
X12875444Y-14910360D01*
X12875444Y-14910360D02*
X12856396Y-14919884D01*
X12856396Y-14919884D02*
X12837348Y-14919884D01*
X12837348Y-14919884D02*
X12818301Y-14910360D01*
X12818301Y-14910360D02*
X12808777Y-14900836D01*
X12808777Y-14900836D02*
X12799253Y-14881788D01*
X12799253Y-14881788D02*
X12789729Y-14843693D01*
X12789729Y-14843693D02*
X12789729Y-14796074D01*
X12789729Y-14796074D02*
X12799253Y-14757979D01*
X12799253Y-14757979D02*
X12808777Y-14738931D01*
X12808777Y-14738931D02*
X12818301Y-14729408D01*
X12818301Y-14729408D02*
X12837348Y-14719884D01*
X13094491Y-14919884D02*
X12980206Y-14919884D01*
X13037348Y-14919884D02*
X13037348Y-14719884D01*
X13037348Y-14719884D02*
X13018301Y-14748455D01*
X13018301Y-14748455D02*
X12999253Y-14767503D01*
X12999253Y-14767503D02*
X12980206Y-14777027D01*
X13284967Y-14919884D02*
X13170682Y-14919884D01*
X13227825Y-14919884D02*
X13227825Y-14719884D01*
X13227825Y-14719884D02*
X13208777Y-14748455D01*
X13208777Y-14748455D02*
X13189729Y-14767503D01*
X13189729Y-14767503D02*
X13170682Y-14777027D01*
X13399253Y-14805598D02*
X13380206Y-14796074D01*
X13380206Y-14796074D02*
X13370682Y-14786550D01*
X13370682Y-14786550D02*
X13361158Y-14767503D01*
X13361158Y-14767503D02*
X13361158Y-14757979D01*
X13361158Y-14757979D02*
X13370682Y-14738931D01*
X13370682Y-14738931D02*
X13380206Y-14729408D01*
X13380206Y-14729408D02*
X13399253Y-14719884D01*
X13399253Y-14719884D02*
X13437348Y-14719884D01*
X13437348Y-14719884D02*
X13456396Y-14729408D01*
X13456396Y-14729408D02*
X13465920Y-14738931D01*
X13465920Y-14738931D02*
X13475444Y-14757979D01*
X13475444Y-14757979D02*
X13475444Y-14767503D01*
X13475444Y-14767503D02*
X13465920Y-14786550D01*
X13465920Y-14786550D02*
X13456396Y-14796074D01*
X13456396Y-14796074D02*
X13437348Y-14805598D01*
X13437348Y-14805598D02*
X13399253Y-14805598D01*
X13399253Y-14805598D02*
X13380206Y-14815122D01*
X13380206Y-14815122D02*
X13370682Y-14824646D01*
X13370682Y-14824646D02*
X13361158Y-14843693D01*
X13361158Y-14843693D02*
X13361158Y-14881788D01*
X13361158Y-14881788D02*
X13370682Y-14900836D01*
X13370682Y-14900836D02*
X13380206Y-14910360D01*
X13380206Y-14910360D02*
X13399253Y-14919884D01*
X13399253Y-14919884D02*
X13437348Y-14919884D01*
X13437348Y-14919884D02*
X13456396Y-14910360D01*
X13456396Y-14910360D02*
X13465920Y-14900836D01*
X13465920Y-14900836D02*
X13475444Y-14881788D01*
X13475444Y-14881788D02*
X13475444Y-14843693D01*
X13475444Y-14843693D02*
X13465920Y-14824646D01*
X13465920Y-14824646D02*
X13456396Y-14815122D01*
X13456396Y-14815122D02*
X13437348Y-14805598D01*
X13551634Y-14719884D02*
X13551634Y-14757979D01*
X13627825Y-14719884D02*
X13627825Y-14757979D01*
X13923063Y-14996074D02*
X13913539Y-14986550D01*
X13913539Y-14986550D02*
X13894491Y-14957979D01*
X13894491Y-14957979D02*
X13884968Y-14938931D01*
X13884968Y-14938931D02*
X13875444Y-14910360D01*
X13875444Y-14910360D02*
X13865920Y-14862741D01*
X13865920Y-14862741D02*
X13865920Y-14824646D01*
X13865920Y-14824646D02*
X13875444Y-14777027D01*
X13875444Y-14777027D02*
X13884968Y-14748455D01*
X13884968Y-14748455D02*
X13894491Y-14729408D01*
X13894491Y-14729408D02*
X13913539Y-14700836D01*
X13913539Y-14700836D02*
X13923063Y-14691312D01*
X14084968Y-14719884D02*
X14046872Y-14719884D01*
X14046872Y-14719884D02*
X14027825Y-14729408D01*
X14027825Y-14729408D02*
X14018301Y-14738931D01*
X14018301Y-14738931D02*
X13999253Y-14767503D01*
X13999253Y-14767503D02*
X13989729Y-14805598D01*
X13989729Y-14805598D02*
X13989729Y-14881788D01*
X13989729Y-14881788D02*
X13999253Y-14900836D01*
X13999253Y-14900836D02*
X14008777Y-14910360D01*
X14008777Y-14910360D02*
X14027825Y-14919884D01*
X14027825Y-14919884D02*
X14065920Y-14919884D01*
X14065920Y-14919884D02*
X14084968Y-14910360D01*
X14084968Y-14910360D02*
X14094491Y-14900836D01*
X14094491Y-14900836D02*
X14104015Y-14881788D01*
X14104015Y-14881788D02*
X14104015Y-14834169D01*
X14104015Y-14834169D02*
X14094491Y-14815122D01*
X14094491Y-14815122D02*
X14084968Y-14805598D01*
X14084968Y-14805598D02*
X14065920Y-14796074D01*
X14065920Y-14796074D02*
X14027825Y-14796074D01*
X14027825Y-14796074D02*
X14008777Y-14805598D01*
X14008777Y-14805598D02*
X13999253Y-14815122D01*
X13999253Y-14815122D02*
X13989729Y-14834169D01*
X14170682Y-14719884D02*
X14304015Y-14719884D01*
X14304015Y-14719884D02*
X14218301Y-14919884D01*
X14465920Y-14719884D02*
X14427825Y-14719884D01*
X14427825Y-14719884D02*
X14408777Y-14729408D01*
X14408777Y-14729408D02*
X14399253Y-14738931D01*
X14399253Y-14738931D02*
X14380206Y-14767503D01*
X14380206Y-14767503D02*
X14370682Y-14805598D01*
X14370682Y-14805598D02*
X14370682Y-14881788D01*
X14370682Y-14881788D02*
X14380206Y-14900836D01*
X14380206Y-14900836D02*
X14389729Y-14910360D01*
X14389729Y-14910360D02*
X14408777Y-14919884D01*
X14408777Y-14919884D02*
X14446872Y-14919884D01*
X14446872Y-14919884D02*
X14465920Y-14910360D01*
X14465920Y-14910360D02*
X14475444Y-14900836D01*
X14475444Y-14900836D02*
X14484968Y-14881788D01*
X14484968Y-14881788D02*
X14484968Y-14834169D01*
X14484968Y-14834169D02*
X14475444Y-14815122D01*
X14475444Y-14815122D02*
X14465920Y-14805598D01*
X14465920Y-14805598D02*
X14446872Y-14796074D01*
X14446872Y-14796074D02*
X14408777Y-14796074D01*
X14408777Y-14796074D02*
X14389729Y-14805598D01*
X14389729Y-14805598D02*
X14380206Y-14815122D01*
X14380206Y-14815122D02*
X14370682Y-14834169D01*
X14723063Y-14919884D02*
X14723063Y-14719884D01*
X14808777Y-14919884D02*
X14808777Y-14815122D01*
X14808777Y-14815122D02*
X14799253Y-14796074D01*
X14799253Y-14796074D02*
X14780206Y-14786550D01*
X14780206Y-14786550D02*
X14751634Y-14786550D01*
X14751634Y-14786550D02*
X14732587Y-14796074D01*
X14732587Y-14796074D02*
X14723063Y-14805598D01*
X14932587Y-14919884D02*
X14913539Y-14910360D01*
X14913539Y-14910360D02*
X14904015Y-14900836D01*
X14904015Y-14900836D02*
X14894491Y-14881788D01*
X14894491Y-14881788D02*
X14894491Y-14824646D01*
X14894491Y-14824646D02*
X14904015Y-14805598D01*
X14904015Y-14805598D02*
X14913539Y-14796074D01*
X14913539Y-14796074D02*
X14932587Y-14786550D01*
X14932587Y-14786550D02*
X14961158Y-14786550D01*
X14961158Y-14786550D02*
X14980206Y-14796074D01*
X14980206Y-14796074D02*
X14989730Y-14805598D01*
X14989730Y-14805598D02*
X14999253Y-14824646D01*
X14999253Y-14824646D02*
X14999253Y-14881788D01*
X14999253Y-14881788D02*
X14989730Y-14900836D01*
X14989730Y-14900836D02*
X14980206Y-14910360D01*
X14980206Y-14910360D02*
X14961158Y-14919884D01*
X14961158Y-14919884D02*
X14932587Y-14919884D01*
X15113539Y-14919884D02*
X15094491Y-14910360D01*
X15094491Y-14910360D02*
X15084968Y-14891312D01*
X15084968Y-14891312D02*
X15084968Y-14719884D01*
X15265920Y-14910360D02*
X15246872Y-14919884D01*
X15246872Y-14919884D02*
X15208777Y-14919884D01*
X15208777Y-14919884D02*
X15189730Y-14910360D01*
X15189730Y-14910360D02*
X15180206Y-14891312D01*
X15180206Y-14891312D02*
X15180206Y-14815122D01*
X15180206Y-14815122D02*
X15189730Y-14796074D01*
X15189730Y-14796074D02*
X15208777Y-14786550D01*
X15208777Y-14786550D02*
X15246872Y-14786550D01*
X15246872Y-14786550D02*
X15265920Y-14796074D01*
X15265920Y-14796074D02*
X15275444Y-14815122D01*
X15275444Y-14815122D02*
X15275444Y-14834169D01*
X15275444Y-14834169D02*
X15180206Y-14853217D01*
X15351634Y-14910360D02*
X15370682Y-14919884D01*
X15370682Y-14919884D02*
X15408777Y-14919884D01*
X15408777Y-14919884D02*
X15427825Y-14910360D01*
X15427825Y-14910360D02*
X15437349Y-14891312D01*
X15437349Y-14891312D02*
X15437349Y-14881788D01*
X15437349Y-14881788D02*
X15427825Y-14862741D01*
X15427825Y-14862741D02*
X15408777Y-14853217D01*
X15408777Y-14853217D02*
X15380206Y-14853217D01*
X15380206Y-14853217D02*
X15361158Y-14843693D01*
X15361158Y-14843693D02*
X15351634Y-14824646D01*
X15351634Y-14824646D02*
X15351634Y-14815122D01*
X15351634Y-14815122D02*
X15361158Y-14796074D01*
X15361158Y-14796074D02*
X15380206Y-14786550D01*
X15380206Y-14786550D02*
X15408777Y-14786550D01*
X15408777Y-14786550D02*
X15427825Y-14796074D01*
X15504015Y-14996074D02*
X15513539Y-14986550D01*
X15513539Y-14986550D02*
X15532587Y-14957979D01*
X15532587Y-14957979D02*
X15542111Y-14938931D01*
X15542111Y-14938931D02*
X15551634Y-14910360D01*
X15551634Y-14910360D02*
X15561158Y-14862741D01*
X15561158Y-14862741D02*
X15561158Y-14824646D01*
X15561158Y-14824646D02*
X15551634Y-14777027D01*
X15551634Y-14777027D02*
X15542111Y-14748455D01*
X15542111Y-14748455D02*
X15532587Y-14729408D01*
X15532587Y-14729408D02*
X15513539Y-14700836D01*
X15513539Y-14700836D02*
X15504015Y-14691312D01*
D12*
X10348000Y-15092400D02*
G75*
G02*
X10248000Y-15092400I-50000J0D01*
G01*
X10248000Y-15092400D02*
G75*
G02*
X10348000Y-15092400I50000J0D01*
G01*
D11*
X10713539Y-15183884D02*
X10599253Y-15183884D01*
X10656396Y-15183884D02*
X10656396Y-14983884D01*
X10656396Y-14983884D02*
X10637348Y-15012455D01*
X10637348Y-15012455D02*
X10618301Y-15031503D01*
X10618301Y-15031503D02*
X10599253Y-15041027D01*
X10799253Y-15164836D02*
X10808777Y-15174360D01*
X10808777Y-15174360D02*
X10799253Y-15183884D01*
X10799253Y-15183884D02*
X10789729Y-15174360D01*
X10789729Y-15174360D02*
X10799253Y-15164836D01*
X10799253Y-15164836D02*
X10799253Y-15183884D01*
X10932586Y-14983884D02*
X10951634Y-14983884D01*
X10951634Y-14983884D02*
X10970682Y-14993408D01*
X10970682Y-14993408D02*
X10980205Y-15002931D01*
X10980205Y-15002931D02*
X10989729Y-15021979D01*
X10989729Y-15021979D02*
X10999253Y-15060074D01*
X10999253Y-15060074D02*
X10999253Y-15107693D01*
X10999253Y-15107693D02*
X10989729Y-15145788D01*
X10989729Y-15145788D02*
X10980205Y-15164836D01*
X10980205Y-15164836D02*
X10970682Y-15174360D01*
X10970682Y-15174360D02*
X10951634Y-15183884D01*
X10951634Y-15183884D02*
X10932586Y-15183884D01*
X10932586Y-15183884D02*
X10913539Y-15174360D01*
X10913539Y-15174360D02*
X10904015Y-15164836D01*
X10904015Y-15164836D02*
X10894491Y-15145788D01*
X10894491Y-15145788D02*
X10884967Y-15107693D01*
X10884967Y-15107693D02*
X10884967Y-15060074D01*
X10884967Y-15060074D02*
X10894491Y-15021979D01*
X10894491Y-15021979D02*
X10904015Y-15002931D01*
X10904015Y-15002931D02*
X10913539Y-14993408D01*
X10913539Y-14993408D02*
X10932586Y-14983884D01*
X11123063Y-14983884D02*
X11142110Y-14983884D01*
X11142110Y-14983884D02*
X11161158Y-14993408D01*
X11161158Y-14993408D02*
X11170682Y-15002931D01*
X11170682Y-15002931D02*
X11180205Y-15021979D01*
X11180205Y-15021979D02*
X11189729Y-15060074D01*
X11189729Y-15060074D02*
X11189729Y-15107693D01*
X11189729Y-15107693D02*
X11180205Y-15145788D01*
X11180205Y-15145788D02*
X11170682Y-15164836D01*
X11170682Y-15164836D02*
X11161158Y-15174360D01*
X11161158Y-15174360D02*
X11142110Y-15183884D01*
X11142110Y-15183884D02*
X11123063Y-15183884D01*
X11123063Y-15183884D02*
X11104015Y-15174360D01*
X11104015Y-15174360D02*
X11094491Y-15164836D01*
X11094491Y-15164836D02*
X11084967Y-15145788D01*
X11084967Y-15145788D02*
X11075444Y-15107693D01*
X11075444Y-15107693D02*
X11075444Y-15060074D01*
X11075444Y-15060074D02*
X11084967Y-15021979D01*
X11084967Y-15021979D02*
X11094491Y-15002931D01*
X11094491Y-15002931D02*
X11104015Y-14993408D01*
X11104015Y-14993408D02*
X11123063Y-14983884D01*
X11313539Y-14983884D02*
X11332586Y-14983884D01*
X11332586Y-14983884D02*
X11351634Y-14993408D01*
X11351634Y-14993408D02*
X11361158Y-15002931D01*
X11361158Y-15002931D02*
X11370682Y-15021979D01*
X11370682Y-15021979D02*
X11380205Y-15060074D01*
X11380205Y-15060074D02*
X11380205Y-15107693D01*
X11380205Y-15107693D02*
X11370682Y-15145788D01*
X11370682Y-15145788D02*
X11361158Y-15164836D01*
X11361158Y-15164836D02*
X11351634Y-15174360D01*
X11351634Y-15174360D02*
X11332586Y-15183884D01*
X11332586Y-15183884D02*
X11313539Y-15183884D01*
X11313539Y-15183884D02*
X11294491Y-15174360D01*
X11294491Y-15174360D02*
X11284967Y-15164836D01*
X11284967Y-15164836D02*
X11275443Y-15145788D01*
X11275443Y-15145788D02*
X11265920Y-15107693D01*
X11265920Y-15107693D02*
X11265920Y-15060074D01*
X11265920Y-15060074D02*
X11275443Y-15021979D01*
X11275443Y-15021979D02*
X11284967Y-15002931D01*
X11284967Y-15002931D02*
X11294491Y-14993408D01*
X11294491Y-14993408D02*
X11313539Y-14983884D01*
X11465920Y-15183884D02*
X11465920Y-15050550D01*
X11465920Y-15069598D02*
X11475443Y-15060074D01*
X11475443Y-15060074D02*
X11494491Y-15050550D01*
X11494491Y-15050550D02*
X11523063Y-15050550D01*
X11523063Y-15050550D02*
X11542110Y-15060074D01*
X11542110Y-15060074D02*
X11551634Y-15079122D01*
X11551634Y-15079122D02*
X11551634Y-15183884D01*
X11551634Y-15079122D02*
X11561158Y-15060074D01*
X11561158Y-15060074D02*
X11580205Y-15050550D01*
X11580205Y-15050550D02*
X11608777Y-15050550D01*
X11608777Y-15050550D02*
X11627824Y-15060074D01*
X11627824Y-15060074D02*
X11637348Y-15079122D01*
X11637348Y-15079122D02*
X11637348Y-15183884D01*
X11732586Y-15183884D02*
X11732586Y-15050550D01*
X11732586Y-15069598D02*
X11742110Y-15060074D01*
X11742110Y-15060074D02*
X11761158Y-15050550D01*
X11761158Y-15050550D02*
X11789729Y-15050550D01*
X11789729Y-15050550D02*
X11808777Y-15060074D01*
X11808777Y-15060074D02*
X11818301Y-15079122D01*
X11818301Y-15079122D02*
X11818301Y-15183884D01*
X11818301Y-15079122D02*
X11827824Y-15060074D01*
X11827824Y-15060074D02*
X11846872Y-15050550D01*
X11846872Y-15050550D02*
X11875443Y-15050550D01*
X11875443Y-15050550D02*
X11894491Y-15060074D01*
X11894491Y-15060074D02*
X11904015Y-15079122D01*
X11904015Y-15079122D02*
X11904015Y-15183884D01*
X12294491Y-14974360D02*
X12123063Y-15231503D01*
X12551634Y-14983884D02*
X12570682Y-14983884D01*
X12570682Y-14983884D02*
X12589729Y-14993408D01*
X12589729Y-14993408D02*
X12599253Y-15002931D01*
X12599253Y-15002931D02*
X12608777Y-15021979D01*
X12608777Y-15021979D02*
X12618301Y-15060074D01*
X12618301Y-15060074D02*
X12618301Y-15107693D01*
X12618301Y-15107693D02*
X12608777Y-15145788D01*
X12608777Y-15145788D02*
X12599253Y-15164836D01*
X12599253Y-15164836D02*
X12589729Y-15174360D01*
X12589729Y-15174360D02*
X12570682Y-15183884D01*
X12570682Y-15183884D02*
X12551634Y-15183884D01*
X12551634Y-15183884D02*
X12532586Y-15174360D01*
X12532586Y-15174360D02*
X12523063Y-15164836D01*
X12523063Y-15164836D02*
X12513539Y-15145788D01*
X12513539Y-15145788D02*
X12504015Y-15107693D01*
X12504015Y-15107693D02*
X12504015Y-15060074D01*
X12504015Y-15060074D02*
X12513539Y-15021979D01*
X12513539Y-15021979D02*
X12523063Y-15002931D01*
X12523063Y-15002931D02*
X12532586Y-14993408D01*
X12532586Y-14993408D02*
X12551634Y-14983884D01*
X12704015Y-15164836D02*
X12713539Y-15174360D01*
X12713539Y-15174360D02*
X12704015Y-15183884D01*
X12704015Y-15183884D02*
X12694491Y-15174360D01*
X12694491Y-15174360D02*
X12704015Y-15164836D01*
X12704015Y-15164836D02*
X12704015Y-15183884D01*
X12837348Y-14983884D02*
X12856396Y-14983884D01*
X12856396Y-14983884D02*
X12875444Y-14993408D01*
X12875444Y-14993408D02*
X12884967Y-15002931D01*
X12884967Y-15002931D02*
X12894491Y-15021979D01*
X12894491Y-15021979D02*
X12904015Y-15060074D01*
X12904015Y-15060074D02*
X12904015Y-15107693D01*
X12904015Y-15107693D02*
X12894491Y-15145788D01*
X12894491Y-15145788D02*
X12884967Y-15164836D01*
X12884967Y-15164836D02*
X12875444Y-15174360D01*
X12875444Y-15174360D02*
X12856396Y-15183884D01*
X12856396Y-15183884D02*
X12837348Y-15183884D01*
X12837348Y-15183884D02*
X12818301Y-15174360D01*
X12818301Y-15174360D02*
X12808777Y-15164836D01*
X12808777Y-15164836D02*
X12799253Y-15145788D01*
X12799253Y-15145788D02*
X12789729Y-15107693D01*
X12789729Y-15107693D02*
X12789729Y-15060074D01*
X12789729Y-15060074D02*
X12799253Y-15021979D01*
X12799253Y-15021979D02*
X12808777Y-15002931D01*
X12808777Y-15002931D02*
X12818301Y-14993408D01*
X12818301Y-14993408D02*
X12837348Y-14983884D01*
X12970682Y-14983884D02*
X13094491Y-14983884D01*
X13094491Y-14983884D02*
X13027825Y-15060074D01*
X13027825Y-15060074D02*
X13056396Y-15060074D01*
X13056396Y-15060074D02*
X13075444Y-15069598D01*
X13075444Y-15069598D02*
X13084967Y-15079122D01*
X13084967Y-15079122D02*
X13094491Y-15098169D01*
X13094491Y-15098169D02*
X13094491Y-15145788D01*
X13094491Y-15145788D02*
X13084967Y-15164836D01*
X13084967Y-15164836D02*
X13075444Y-15174360D01*
X13075444Y-15174360D02*
X13056396Y-15183884D01*
X13056396Y-15183884D02*
X12999253Y-15183884D01*
X12999253Y-15183884D02*
X12980206Y-15174360D01*
X12980206Y-15174360D02*
X12970682Y-15164836D01*
X13189729Y-15183884D02*
X13227825Y-15183884D01*
X13227825Y-15183884D02*
X13246872Y-15174360D01*
X13246872Y-15174360D02*
X13256396Y-15164836D01*
X13256396Y-15164836D02*
X13275444Y-15136265D01*
X13275444Y-15136265D02*
X13284967Y-15098169D01*
X13284967Y-15098169D02*
X13284967Y-15021979D01*
X13284967Y-15021979D02*
X13275444Y-15002931D01*
X13275444Y-15002931D02*
X13265920Y-14993408D01*
X13265920Y-14993408D02*
X13246872Y-14983884D01*
X13246872Y-14983884D02*
X13208777Y-14983884D01*
X13208777Y-14983884D02*
X13189729Y-14993408D01*
X13189729Y-14993408D02*
X13180206Y-15002931D01*
X13180206Y-15002931D02*
X13170682Y-15021979D01*
X13170682Y-15021979D02*
X13170682Y-15069598D01*
X13170682Y-15069598D02*
X13180206Y-15088646D01*
X13180206Y-15088646D02*
X13189729Y-15098169D01*
X13189729Y-15098169D02*
X13208777Y-15107693D01*
X13208777Y-15107693D02*
X13246872Y-15107693D01*
X13246872Y-15107693D02*
X13265920Y-15098169D01*
X13265920Y-15098169D02*
X13275444Y-15088646D01*
X13275444Y-15088646D02*
X13284967Y-15069598D01*
X13456396Y-15050550D02*
X13456396Y-15183884D01*
X13408777Y-14974360D02*
X13361158Y-15117217D01*
X13361158Y-15117217D02*
X13484967Y-15117217D01*
X13551634Y-14983884D02*
X13551634Y-15021979D01*
X13627825Y-14983884D02*
X13627825Y-15021979D01*
X13923063Y-15260074D02*
X13913539Y-15250550D01*
X13913539Y-15250550D02*
X13894491Y-15221979D01*
X13894491Y-15221979D02*
X13884968Y-15202931D01*
X13884968Y-15202931D02*
X13875444Y-15174360D01*
X13875444Y-15174360D02*
X13865920Y-15126741D01*
X13865920Y-15126741D02*
X13865920Y-15088646D01*
X13865920Y-15088646D02*
X13875444Y-15041027D01*
X13875444Y-15041027D02*
X13884968Y-15012455D01*
X13884968Y-15012455D02*
X13894491Y-14993408D01*
X13894491Y-14993408D02*
X13913539Y-14964836D01*
X13913539Y-14964836D02*
X13923063Y-14955312D01*
X14084968Y-14983884D02*
X14046872Y-14983884D01*
X14046872Y-14983884D02*
X14027825Y-14993408D01*
X14027825Y-14993408D02*
X14018301Y-15002931D01*
X14018301Y-15002931D02*
X13999253Y-15031503D01*
X13999253Y-15031503D02*
X13989729Y-15069598D01*
X13989729Y-15069598D02*
X13989729Y-15145788D01*
X13989729Y-15145788D02*
X13999253Y-15164836D01*
X13999253Y-15164836D02*
X14008777Y-15174360D01*
X14008777Y-15174360D02*
X14027825Y-15183884D01*
X14027825Y-15183884D02*
X14065920Y-15183884D01*
X14065920Y-15183884D02*
X14084968Y-15174360D01*
X14084968Y-15174360D02*
X14094491Y-15164836D01*
X14094491Y-15164836D02*
X14104015Y-15145788D01*
X14104015Y-15145788D02*
X14104015Y-15098169D01*
X14104015Y-15098169D02*
X14094491Y-15079122D01*
X14094491Y-15079122D02*
X14084968Y-15069598D01*
X14084968Y-15069598D02*
X14065920Y-15060074D01*
X14065920Y-15060074D02*
X14027825Y-15060074D01*
X14027825Y-15060074D02*
X14008777Y-15069598D01*
X14008777Y-15069598D02*
X13999253Y-15079122D01*
X13999253Y-15079122D02*
X13989729Y-15098169D01*
X14275444Y-15050550D02*
X14275444Y-15183884D01*
X14227825Y-14974360D02*
X14180206Y-15117217D01*
X14180206Y-15117217D02*
X14304015Y-15117217D01*
X14532587Y-15183884D02*
X14532587Y-14983884D01*
X14618301Y-15183884D02*
X14618301Y-15079122D01*
X14618301Y-15079122D02*
X14608777Y-15060074D01*
X14608777Y-15060074D02*
X14589730Y-15050550D01*
X14589730Y-15050550D02*
X14561158Y-15050550D01*
X14561158Y-15050550D02*
X14542110Y-15060074D01*
X14542110Y-15060074D02*
X14532587Y-15069598D01*
X14742110Y-15183884D02*
X14723063Y-15174360D01*
X14723063Y-15174360D02*
X14713539Y-15164836D01*
X14713539Y-15164836D02*
X14704015Y-15145788D01*
X14704015Y-15145788D02*
X14704015Y-15088646D01*
X14704015Y-15088646D02*
X14713539Y-15069598D01*
X14713539Y-15069598D02*
X14723063Y-15060074D01*
X14723063Y-15060074D02*
X14742110Y-15050550D01*
X14742110Y-15050550D02*
X14770682Y-15050550D01*
X14770682Y-15050550D02*
X14789730Y-15060074D01*
X14789730Y-15060074D02*
X14799253Y-15069598D01*
X14799253Y-15069598D02*
X14808777Y-15088646D01*
X14808777Y-15088646D02*
X14808777Y-15145788D01*
X14808777Y-15145788D02*
X14799253Y-15164836D01*
X14799253Y-15164836D02*
X14789730Y-15174360D01*
X14789730Y-15174360D02*
X14770682Y-15183884D01*
X14770682Y-15183884D02*
X14742110Y-15183884D01*
X14923063Y-15183884D02*
X14904015Y-15174360D01*
X14904015Y-15174360D02*
X14894491Y-15155312D01*
X14894491Y-15155312D02*
X14894491Y-14983884D01*
X15075444Y-15174360D02*
X15056396Y-15183884D01*
X15056396Y-15183884D02*
X15018301Y-15183884D01*
X15018301Y-15183884D02*
X14999253Y-15174360D01*
X14999253Y-15174360D02*
X14989730Y-15155312D01*
X14989730Y-15155312D02*
X14989730Y-15079122D01*
X14989730Y-15079122D02*
X14999253Y-15060074D01*
X14999253Y-15060074D02*
X15018301Y-15050550D01*
X15018301Y-15050550D02*
X15056396Y-15050550D01*
X15056396Y-15050550D02*
X15075444Y-15060074D01*
X15075444Y-15060074D02*
X15084968Y-15079122D01*
X15084968Y-15079122D02*
X15084968Y-15098169D01*
X15084968Y-15098169D02*
X14989730Y-15117217D01*
X15161158Y-15174360D02*
X15180206Y-15183884D01*
X15180206Y-15183884D02*
X15218301Y-15183884D01*
X15218301Y-15183884D02*
X15237349Y-15174360D01*
X15237349Y-15174360D02*
X15246872Y-15155312D01*
X15246872Y-15155312D02*
X15246872Y-15145788D01*
X15246872Y-15145788D02*
X15237349Y-15126741D01*
X15237349Y-15126741D02*
X15218301Y-15117217D01*
X15218301Y-15117217D02*
X15189730Y-15117217D01*
X15189730Y-15117217D02*
X15170682Y-15107693D01*
X15170682Y-15107693D02*
X15161158Y-15088646D01*
X15161158Y-15088646D02*
X15161158Y-15079122D01*
X15161158Y-15079122D02*
X15170682Y-15060074D01*
X15170682Y-15060074D02*
X15189730Y-15050550D01*
X15189730Y-15050550D02*
X15218301Y-15050550D01*
X15218301Y-15050550D02*
X15237349Y-15060074D01*
X15313539Y-15260074D02*
X15323063Y-15250550D01*
X15323063Y-15250550D02*
X15342111Y-15221979D01*
X15342111Y-15221979D02*
X15351634Y-15202931D01*
X15351634Y-15202931D02*
X15361158Y-15174360D01*
X15361158Y-15174360D02*
X15370682Y-15126741D01*
X15370682Y-15126741D02*
X15370682Y-15088646D01*
X15370682Y-15088646D02*
X15361158Y-15041027D01*
X15361158Y-15041027D02*
X15351634Y-15012455D01*
X15351634Y-15012455D02*
X15342111Y-14993408D01*
X15342111Y-14993408D02*
X15323063Y-14964836D01*
X15323063Y-14964836D02*
X15313539Y-14955312D01*
M02*
