M48
; DRILL file {KiCad 9.0.2} date 2025-07-03T22:57:50-0400
; FORMAT={-:-/ absolute / metric / decimal}
; #@! TF.CreationDate,2025-07-03T22:57:50-04:00
; #@! TF.GenerationSoftware,Kicad,Pcbnew,9.0.2
; #@! TF.FileFunction,Plated,1,4,PTH
FMAT,2
METRIC
; #@! TA.AperFunction,Plated,PTH,ViaDrill
T1C0.300
; #@! TA.AperFunction,Plated,PTH,ComponentDrill
T2C1.000
%
G90
G05
T1
X110.363Y-133.223
X117.518Y-65.659
X117.697Y-77.112
X117.697Y-78.109
X117.697Y-79.334
X117.697Y-80.492
X118.098Y-64.851
X118.618Y-125.095
X118.678Y-64.093
X119.253Y-95.377
X119.282Y-94.578
X119.38Y-62.865
X119.38Y-83.82
X119.38Y-85.344
X119.38Y-86.868
X119.583Y-58.522
X119.833Y-65.101
X119.833Y-65.901
X119.934Y-64.308
X120.348Y-53.848
X120.348Y-55.372
X120.396Y-100.584
X120.523Y-122.682
X120.65Y-104.14
X120.65Y-106.045
X120.65Y-107.95
X120.65Y-109.855
X120.65Y-111.76
X120.65Y-113.665
X120.65Y-115.57
X120.65Y-117.475
X120.65Y-119.38
X120.65Y-124.968
X120.904Y-56.388
X120.904Y-78.232
X120.904Y-80.772
X120.904Y-85.344
X120.904Y-101.346
X120.984Y-81.8
X121.056Y-93.523
X121.158Y-60.706
X121.158Y-100.584
X121.285Y-121.92
X121.539Y-124.333
X121.655Y-99.303
X121.666Y-101.092
X121.717Y-92.558
X121.717Y-93.218
X121.818Y-82.144
X121.825Y-83.153
X121.833Y-75.068
X121.836Y-78.402
X121.92Y-57.404
X121.92Y-73.66
X121.92Y-86.868
X121.92Y-96.52
X121.92Y-98.044
X121.971Y-94.082
X122.022Y-95.352
X122.174Y-59.69
X122.276Y-131.877
X122.283Y-63.582
X122.301Y-66.675
X122.311Y-67.485
X122.351Y-65.877
X122.396Y-68.281
X122.423Y-62.179
X122.458Y-84.298
X122.682Y-58.166
X123.038Y-131.42
X123.19Y-60.706
X123.444Y-58.928
X123.825Y-64.77
X123.825Y-66.675
X123.825Y-68.58
X123.952Y-77.267
X124.244Y-81.156
X124.278Y-79.354
X124.311Y-82.035
X124.44Y-82.825
X124.8Y-95.358
X124.816Y-91.745
X124.841Y-85.653
X124.841Y-89.662
X124.841Y-90.297
X124.841Y-90.932
X124.863Y-102.217
X124.917Y-100.482
X124.968Y-60.706
X124.975Y-129.54
X125.095Y-54.61
X125.095Y-63.5
X125.299Y-130.685
X125.476Y-70.684
X125.476Y-72.136
X125.697Y-131.91
X125.812Y-71.41
X125.857Y-68.707
X125.933Y-103.784
X125.984Y-59.69
X126.056Y-72.702
X126.056Y-73.502
X126.086Y-74.748
X126.111Y-86.233
X126.187Y-90.729
X126.197Y-91.44
X126.238Y-106.68
X126.365Y-55.88
X126.777Y-73.048
X127.152Y-130.048
X127.254Y-61.214
X127.254Y-102.616
X127.254Y-103.378
X127.254Y-104.14
X127.254Y-104.902
X127.357Y-80.934
X127.457Y-123.546
X127.493Y-93.242
X127.508Y-57.912
X127.544Y-94.04
X127.547Y-94.84
X127.635Y-57.15
X127.635Y-90.551
X127.635Y-91.351
X127.635Y-100.838
X127.635Y-118.745
X127.721Y-92.475
X127.75Y-81.63
X127.869Y-75.331
X127.89Y-76.272
X127.89Y-77.288
X127.89Y-78.304
X127.976Y-70.015
X128.206Y-63.399
X128.219Y-73.254
X128.395Y-111.379
X128.422Y-74.117
X128.468Y-71.119
X128.524Y-115.316
X128.626Y-117.043
X128.88Y-122.174
X128.905Y-68.963
X129.032Y-63.5
X129.286Y-109.474
X129.54Y-54.61
X129.54Y-56.515
X129.54Y-59.055
X129.54Y-115.316
X129.673Y-85.79
X129.794Y-101.092
X129.794Y-102.616
X129.794Y-103.378
X129.794Y-104.14
X129.794Y-104.902
X129.804Y-85.001
X130.099Y-131.826
X130.429Y-75.819
X130.556Y-98.116
X130.556Y-115.316
X130.658Y-112.573
X130.708Y-57.76
X130.81Y-60.325
X130.81Y-123.393
X130.861Y-130.15
X130.873Y-99.563
X130.937Y-67.691
X130.962Y-94.742
X131.02Y-72.083
X131.051Y-75.188
X131.064Y-63.5
X131.318Y-111.887
X131.418Y-98.116
X131.572Y-68.963
X131.928Y-56.439
X131.928Y-109.372
X131.978Y-54.508
X132.08Y-59.055
X132.08Y-61.595
X132.334Y-99.06
X132.334Y-103.378
X132.334Y-104.14
X132.334Y-104.902
X132.353Y-67.746
X132.372Y-68.963
X132.537Y-63.5
X132.578Y-75.898
X132.588Y-76.708
X132.588Y-77.508
X132.588Y-78.308
X132.588Y-79.248
X132.588Y-80.048
X132.588Y-82.448
X132.588Y-83.248
X132.588Y-84.048
X132.588Y-84.848
X132.588Y-86.36
X132.588Y-87.16
X132.588Y-90.424
X132.588Y-91.224
X132.588Y-92.024
X132.588Y-92.824
X132.588Y-93.624
X132.617Y-66.831
X132.621Y-89.559
X132.842Y-112.674
X133.096Y-106.426
X133.35Y-60.325
X133.594Y-73.962
X133.604Y-72.136
X133.604Y-73.152
X133.604Y-85.199
X133.605Y-74.762
X133.655Y-63.5
X133.789Y-66.479
X134.112Y-70.684
X134.112Y-79.756
X134.112Y-114.3
X134.163Y-111.557
X134.468Y-109.423
X134.493Y-122.627
X134.569Y-115.062
X134.62Y-61.595
X134.776Y-82.14
X134.874Y-102.616
X134.874Y-103.378
X134.874Y-105.664
X134.976Y-115.57
X135.128Y-84.619
X135.128Y-116.383
X135.255Y-54.61
X135.255Y-56.515
X135.255Y-58.42
X135.255Y-73.025
X135.331Y-131.877
X135.592Y-68.455
X135.687Y-94.285
X135.714Y-82.258
X135.763Y-70.684
X135.803Y-122.012
X135.839Y-128.168
X135.89Y-99.06
X135.907Y-67.318
X136.1Y-65.987
X136.144Y-79.756
X136.398Y-116.332
X136.5Y-125.222
X136.525Y-73.025
X136.554Y-118.081
X136.558Y-82.281
X136.574Y-70.996
X136.652Y-77.216
X136.783Y-71.768
X136.957Y-110.338
X137.16Y-54.61
X137.16Y-56.515
X137.16Y-58.42
X137.16Y-78.74
X137.312Y-129.845
X137.414Y-102.616
X137.414Y-103.378
X137.414Y-104.14
X137.414Y-104.902
X137.668Y-127.508
X137.742Y-112.014
X137.795Y-92.075
X137.871Y-82.601
X137.922Y-59.436
X137.922Y-133.096
X138.176Y-79.756
X138.176Y-115.824
X138.176Y-118.364
X138.343Y-122.012
X138.43Y-81.915
X138.532Y-63.043
X138.582Y-89.764
X138.684Y-128.524
X138.811Y-57.531
X139.192Y-119.38
X139.497Y-110.592
X139.649Y-81.432
X139.799Y-72.043
X139.827Y-68.961
X139.954Y-102.616
X139.954Y-103.378
X139.954Y-104.14
X139.954Y-104.902
X139.954Y-117.602
X139.954Y-130.81
X140.164Y-66.203
X140.164Y-67.003
X140.208Y-65.278
X140.282Y-111.887
X140.449Y-85.273
X140.462Y-64.465
X140.513Y-95.352
X140.712Y-82.448
X140.716Y-74.103
X140.716Y-77.508
X140.716Y-78.308
X140.716Y-79.248
X140.716Y-80.048
X140.716Y-80.848
X140.716Y-81.648
X140.716Y-83.312
X140.716Y-90.424
X140.716Y-91.224
X140.716Y-92.024
X140.716Y-92.824
X140.716Y-93.624
X140.717Y-84.112
X140.85Y-76.707
X140.97Y-99.06
X140.97Y-129.794
X141.097Y-68.961
X141.097Y-122.047
X141.351Y-57.531
X141.681Y-67.92
X141.688Y-72.591
X141.986Y-128.778
X142.037Y-110.693
X142.153Y-59.349
X142.24Y-54.61
X142.29Y-68.963
X142.291Y-62.687
X142.494Y-102.616
X142.494Y-103.378
X142.494Y-104.14
X142.494Y-104.902
X142.494Y-118.364
X143.002Y-61.874
X143.002Y-62.992
X143.01Y-64.27
X143.022Y-59.3
X143.129Y-117.602
X143.212Y-67.003
X143.256Y-119.126
X143.256Y-127.762
X143.459Y-62.484
X143.51Y-120.396
X143.51Y-132.588
X143.511Y-63.647
X143.688Y-81.428
X143.764Y-78.892
X143.764Y-83.312
X143.764Y-116.84
X143.803Y-121.881
X143.825Y-59.316
X143.845Y-91.359
X143.891Y-57.531
X143.903Y-84.69
X144.003Y-86.069
X144.145Y-60.96
X144.145Y-64.135
X144.221Y-67.97
X144.628Y-111.15
X144.78Y-115.423
X144.78Y-54.61
X144.792Y-66.581
X144.907Y-59.055
X145.034Y-102.616
X145.034Y-103.378
X145.034Y-104.14
X145.034Y-104.902
X145.034Y-132.588
X145.288Y-125.984
X145.415Y-60.96
X145.415Y-64.135
X145.542Y-116.84
X145.669Y-124.841
X145.847Y-67.97
X146.05Y-61.595
X146.05Y-62.23
X146.05Y-62.865
X146.05Y-95.25
X146.05Y-95.885
X146.05Y-96.52
X146.164Y-112.084
X146.26Y-72.591
X146.304Y-66.548
X146.431Y-57.531
X146.456Y-74.102
X146.59Y-85.212
X146.634Y-64.135
X146.952Y-76.708
X146.952Y-77.508
X146.952Y-78.308
X146.952Y-79.248
X146.952Y-80.048
X146.952Y-82.448
X146.952Y-83.248
X146.952Y-84.048
X146.952Y-86.36
X146.952Y-87.16
X146.952Y-90.424
X146.952Y-91.224
X146.952Y-93.98
X146.955Y-87.96
X146.985Y-89.559
X147.066Y-118.364
X147.066Y-121.412
X147.168Y-115.214
X147.214Y-68.383
X147.275Y-84.799
X147.32Y-110.236
X147.32Y-110.998
X147.32Y-115.976
X147.432Y-114.3
X147.574Y-72.644
X147.739Y-80.192
X147.75Y-93.042
X147.752Y-93.98
X147.828Y-71.12
X147.828Y-71.882
X147.955Y-54.61
X147.955Y-60.96
X147.955Y-62.23
X147.955Y-63.5
X147.955Y-64.77
X147.955Y-66.04
X147.968Y-85.199
X148.082Y-120.65
X148.082Y-123.698
X148.082Y-125.73
X148.184Y-74.102
X148.184Y-95.225
X148.259Y-96.041
X148.59Y-59.055
X148.59Y-117.094
X148.629Y-96.992
X148.692Y-51.511
X148.742Y-116.18
X148.793Y-105.258
X148.844Y-106.172
X148.844Y-106.934
X148.971Y-57.531
X149.098Y-66.548
X149.098Y-120.65
X149.14Y-82.14
X149.225Y-99.06
X149.225Y-100.33
X149.225Y-111.125
X149.345Y-95.141
X149.352Y-79.756
X149.454Y-115.468
X149.492Y-84.619
X149.606Y-106.934
X149.606Y-117.856
X149.657Y-104.496
X149.689Y-108.833
X149.86Y-60.96
X149.86Y-87.63
X149.86Y-120.65
X150.078Y-82.258
X150.114Y-71.882
X150.368Y-95.91
X150.368Y-123.698
X150.368Y-125.73
X150.459Y-89.825
X150.495Y-54.61
X150.876Y-77.216
X150.922Y-82.281
X150.929Y-114.196
X150.93Y-111.846
X150.93Y-112.646
X151.13Y-59.055
X151.13Y-78.74
X151.13Y-98.425
X151.13Y-102.235
X151.181Y-51.46
X151.232Y-104.343
X151.286Y-97.482
X151.286Y-105.61
X151.286Y-119.974
X151.384Y-101.092
X151.384Y-108.966
X151.384Y-113.538
X151.435Y-118.72
X151.511Y-57.531
X151.765Y-60.96
X151.765Y-87.63
X151.765Y-99.695
X151.868Y-112.644
X151.892Y-71.12
X152.086Y-97.482
X152.086Y-105.61
X152.086Y-119.974
X152.886Y-97.482
X152.886Y-105.61
X152.886Y-119.974
X152.908Y-79.756
X153.035Y-90.805
X153.035Y-103.505
X153.162Y-72.644
X153.416Y-66.548
X153.416Y-102.616
X153.529Y-69.483
X153.67Y-59.055
X153.67Y-113.03
X153.686Y-97.482
X153.686Y-105.61
X153.686Y-111.846
X153.686Y-119.974
X153.772Y-118.618
X154.051Y-57.531
X154.305Y-102.235
X154.486Y-97.482
X154.486Y-105.61
X154.486Y-111.846
X154.486Y-119.974
X154.686Y-68.834
X154.94Y-113.03
X155.01Y-86.29
X155.076Y-82.448
X155.08Y-76.708
X155.08Y-77.508
X155.08Y-78.308
X155.08Y-80.048
X155.08Y-80.848
X155.08Y-81.648
X155.08Y-83.312
X155.08Y-84.112
X155.08Y-85.344
X155.08Y-90.424
X155.08Y-91.224
X155.08Y-92.024
X155.08Y-92.824
X155.08Y-93.624
X155.143Y-117.246
X155.194Y-89.535
X155.264Y-87.344
X155.351Y-97.515
X155.351Y-111.879
X155.575Y-59.055
X155.702Y-123.19
X156.15Y-73.902
X156.21Y-68.58
X156.464Y-123.19
X156.845Y-57.785
X156.95Y-111.849
X156.972Y-66.802
X157.226Y-114.3
X157.226Y-115.697
X157.226Y-117.094
X157.226Y-123.952
X157.48Y-54.61
X157.739Y-86.01
X157.75Y-97.482
X157.75Y-111.846
X157.838Y-84.478
X157.956Y-93.853
X157.956Y-94.793
X157.988Y-88.9
X158.114Y-100.005
X158.115Y-56.515
X158.115Y-101.092
X158.115Y-102.108
X158.502Y-83.179
X158.55Y-97.482
X158.55Y-111.846
X158.75Y-123.952
X158.913Y-108.969
X159.142Y-78.396
X159.149Y-94.615
X159.24Y-88.098
X159.309Y-132.791
X159.32Y-77.071
X159.342Y-93.018
X159.385Y-57.15
X159.512Y-86.36
X159.512Y-91.948
X159.561Y-88.831
X159.565Y-105.61
X159.566Y-119.974
X159.711Y-98.498
X159.711Y-112.421
X159.711Y-113.806
X159.748Y-85.252
X159.967Y-111.663
X160.062Y-97.481
X160.172Y-113.03
X160.274Y-123.952
X160.291Y-114.386
X160.351Y-99.96
X160.425Y-109.148
X160.655Y-57.15
X160.782Y-73.152
X160.798Y-105.61
X160.798Y-119.974
X160.862Y-97.482
X160.862Y-111.846
X161.036Y-123.19
X161.155Y-87.495
X161.29Y-55.88
X161.442Y-94.183
X161.598Y-105.61
X161.598Y-108.658
X161.598Y-119.974
X161.662Y-97.482
X161.662Y-111.846
X161.798Y-123.19
X161.9Y-86.512
X161.925Y-51.435
X162.052Y-71.882
X162.124Y-89.408
X162.204Y-88.24
X162.242Y-98.044
X162.244Y-90.304
X162.462Y-111.846
X162.462Y-105.606
X162.462Y-119.97
X162.56Y-55.245
X162.629Y-101.452
X162.629Y-115.816
X162.652Y-100.608
X162.652Y-114.972
X162.687Y-103.378
X162.687Y-118.11
X162.77Y-99.67
X162.77Y-114.034
X163.17Y-104.191
X163.262Y-105.61
X163.262Y-119.974
X163.482Y-108.706
X163.482Y-113.322
X163.559Y-84.345
X163.696Y-70.104
X163.696Y-71.12
X163.696Y-72.136
X164.062Y-105.61
X164.062Y-119.974
X164.642Y-100.435
X164.838Y-94.178
X164.862Y-97.482
X164.862Y-105.61
X164.862Y-111.846
X164.862Y-119.974
X164.948Y-86.157
X164.948Y-104.292
X165.028Y-86.871
X165.1Y-77.47
X165.1Y-112.776
X165.1Y-118.11
X165.204Y-85.19
X165.354Y-103.378
X165.662Y-97.482
X165.662Y-105.61
X165.662Y-111.846
X165.662Y-119.974
X165.786Y-94.872
X166.37Y-76.2
X166.587Y-92.523
X166.602Y-97.482
X166.602Y-105.61
X166.602Y-111.846
X166.602Y-119.974
X166.624Y-89.916
X166.638Y-91.725
X167.132Y-112.776
X167.284Y-118.364
X167.402Y-105.61
X167.402Y-111.846
X167.402Y-119.974
X167.419Y-97.319
X167.64Y-81.28
X167.996Y-117.653
X168.202Y-97.482
X168.202Y-105.61
X168.202Y-111.846
X168.202Y-119.974
X169.926Y-84.328
X169.926Y-86.868
X169.926Y-98.298
X169.926Y-109.982
X170.129Y-121.869
X170.18Y-82.55
X171.958Y-81.788
T2
X107.366Y-134.849
X107.366Y-137.389
X109.906Y-134.849
X109.906Y-137.389
X112.446Y-134.849
X112.446Y-137.389
X114.986Y-134.849
X114.986Y-137.389
X117.526Y-134.849
X117.526Y-137.389
X120.066Y-134.849
X120.066Y-137.389
X122.034Y-50.305
X122.034Y-52.845
X122.606Y-134.849
X122.606Y-137.389
X124.574Y-50.305
X124.574Y-52.845
X125.146Y-134.849
X125.146Y-137.389
X127.114Y-50.305
X127.114Y-52.845
X127.686Y-134.849
X127.686Y-137.389
X129.654Y-50.305
X129.654Y-52.845
X130.226Y-134.849
X130.226Y-137.389
X132.194Y-50.305
X132.194Y-52.845
X132.766Y-134.849
X132.766Y-137.389
X134.734Y-50.305
X134.734Y-52.845
X135.306Y-134.849
X135.306Y-137.389
X137.274Y-50.305
X137.274Y-52.845
X137.846Y-134.849
X137.846Y-137.389
X139.814Y-50.305
X139.814Y-52.845
X140.386Y-134.849
X140.386Y-137.389
X142.354Y-50.305
X142.354Y-52.845
X142.926Y-134.849
X142.926Y-137.389
X144.894Y-50.305
X144.894Y-52.845
X145.466Y-134.849
X145.466Y-137.389
X147.434Y-50.305
X147.434Y-52.845
X149.974Y-50.305
X149.974Y-52.845
X152.514Y-50.305
X152.514Y-52.845
X155.054Y-50.305
X155.054Y-52.845
X157.594Y-50.305
X157.594Y-52.845
X160.134Y-50.305
X160.134Y-52.845
M30
