G04 #@! TF.GenerationSoftware,KiCad,Pcbnew,9.0.2*
G04 #@! TF.CreationDate,2025-07-03T22:57:36-04:00*
G04 #@! TF.ProjectId,RamBanks,52616d42-616e-46b7-932e-6b696361645f,A*
G04 #@! TF.SameCoordinates,Original*
G04 #@! TF.FileFunction,Legend,Bot*
G04 #@! TF.FilePolarity,Positive*
%FSLAX46Y46*%
G04 Gerber Fmt 4.6, Leading zero omitted, Abs format (unit mm)*
G04 Created by KiCad (PCBNEW 9.0.2) date 2025-07-03 22:57:36*
%MOMM*%
%LPD*%
G01*
G04 APERTURE LIST*
%ADD10R,1.700000X1.700000*%
%ADD11C,1.700000*%
G04 APERTURE END LIST*
%LPC*%
D10*
G04 #@! TO.C,J101*
X160134300Y-50304700D03*
D11*
X160134300Y-52844700D03*
X157594300Y-50304700D03*
X157594300Y-52844700D03*
X155054300Y-50304700D03*
X155054300Y-52844700D03*
X152514300Y-50304700D03*
X152514300Y-52844700D03*
X149974300Y-50304700D03*
X149974300Y-52844700D03*
X147434300Y-50304700D03*
X147434300Y-52844700D03*
X144894300Y-50304700D03*
X144894300Y-52844700D03*
X142354300Y-50304700D03*
X142354300Y-52844700D03*
X139814300Y-50304700D03*
X139814300Y-52844700D03*
X137274300Y-50304700D03*
X137274300Y-52844700D03*
X134734300Y-50304700D03*
X134734300Y-52844700D03*
X132194300Y-50304700D03*
X132194300Y-52844700D03*
X129654300Y-50304700D03*
X129654300Y-52844700D03*
X127114300Y-50304700D03*
X127114300Y-52844700D03*
X124574300Y-50304700D03*
X124574300Y-52844700D03*
X122034300Y-50304700D03*
X122034300Y-52844700D03*
G04 #@! TD*
D10*
G04 #@! TO.C,J102*
X107365800Y-137388600D03*
D11*
X107365800Y-134848600D03*
X109905800Y-137388600D03*
X109905800Y-134848600D03*
X112445800Y-137388600D03*
X112445800Y-134848600D03*
X114985800Y-137388600D03*
X114985800Y-134848600D03*
X117525800Y-137388600D03*
X117525800Y-134848600D03*
X120065800Y-137388600D03*
X120065800Y-134848600D03*
X122605800Y-137388600D03*
X122605800Y-134848600D03*
X125145800Y-137388600D03*
X125145800Y-134848600D03*
X127685800Y-137388600D03*
X127685800Y-134848600D03*
X130225800Y-137388600D03*
X130225800Y-134848600D03*
X132765800Y-137388600D03*
X132765800Y-134848600D03*
X135305800Y-137388600D03*
X135305800Y-134848600D03*
X137845800Y-137388600D03*
X137845800Y-134848600D03*
X140385800Y-137388600D03*
X140385800Y-134848600D03*
X142925800Y-137388600D03*
X142925800Y-134848600D03*
X145465800Y-137388600D03*
X145465800Y-134848600D03*
G04 #@! TD*
%LPD*%
M02*
