%TF.GenerationSoftware,KiCad,Pcbnew,9.0.2*%
%TF.CreationDate,2025-07-03T22:37:57-04:00*%
%TF.ProjectId,Homebrew6502Project,486f6d65-6272-4657-9736-35303250726f,A*%
%TF.SameCoordinates,Original*%
%TF.FileFunction,Drillmap*%
%TF.FilePolarity,Positive*%
%FSLAX45Y45*%
G04 Gerber Fmt 4.5, Leading zero omitted, Abs format (unit mm)*
G04 Created by KiCad (PCBNEW 9.0.2) date 2025-07-03 22:37:57*
%MOMM*%
%LPD*%
G01*
G04 APERTURE LIST*
%ADD10C,0.200000*%
G04 APERTURE END LIST*
D10*
X7960000Y-5283220D02*
X20723500Y-5283220D01*
X20723500Y-15080000D01*
X7960000Y-15080000D01*
X7960000Y-5283220D01*
X8210777Y-15401484D02*
X8210777Y-15201484D01*
X8210777Y-15201484D02*
X8258396Y-15201484D01*
X8258396Y-15201484D02*
X8286967Y-15211008D01*
X8286967Y-15211008D02*
X8306015Y-15230055D01*
X8306015Y-15230055D02*
X8315539Y-15249103D01*
X8315539Y-15249103D02*
X8325062Y-15287198D01*
X8325062Y-15287198D02*
X8325062Y-15315769D01*
X8325062Y-15315769D02*
X8315539Y-15353865D01*
X8315539Y-15353865D02*
X8306015Y-15372912D01*
X8306015Y-15372912D02*
X8286967Y-15391960D01*
X8286967Y-15391960D02*
X8258396Y-15401484D01*
X8258396Y-15401484D02*
X8210777Y-15401484D01*
X8410777Y-15401484D02*
X8410777Y-15268150D01*
X8410777Y-15306246D02*
X8420301Y-15287198D01*
X8420301Y-15287198D02*
X8429824Y-15277674D01*
X8429824Y-15277674D02*
X8448872Y-15268150D01*
X8448872Y-15268150D02*
X8467920Y-15268150D01*
X8534586Y-15401484D02*
X8534586Y-15268150D01*
X8534586Y-15201484D02*
X8525063Y-15211008D01*
X8525063Y-15211008D02*
X8534586Y-15220531D01*
X8534586Y-15220531D02*
X8544110Y-15211008D01*
X8544110Y-15211008D02*
X8534586Y-15201484D01*
X8534586Y-15201484D02*
X8534586Y-15220531D01*
X8658396Y-15401484D02*
X8639348Y-15391960D01*
X8639348Y-15391960D02*
X8629824Y-15372912D01*
X8629824Y-15372912D02*
X8629824Y-15201484D01*
X8763158Y-15401484D02*
X8744110Y-15391960D01*
X8744110Y-15391960D02*
X8734586Y-15372912D01*
X8734586Y-15372912D02*
X8734586Y-15201484D01*
X8991729Y-15401484D02*
X8991729Y-15201484D01*
X8991729Y-15201484D02*
X9058396Y-15344341D01*
X9058396Y-15344341D02*
X9125063Y-15201484D01*
X9125063Y-15201484D02*
X9125063Y-15401484D01*
X9306015Y-15401484D02*
X9306015Y-15296722D01*
X9306015Y-15296722D02*
X9296491Y-15277674D01*
X9296491Y-15277674D02*
X9277444Y-15268150D01*
X9277444Y-15268150D02*
X9239348Y-15268150D01*
X9239348Y-15268150D02*
X9220301Y-15277674D01*
X9306015Y-15391960D02*
X9286967Y-15401484D01*
X9286967Y-15401484D02*
X9239348Y-15401484D01*
X9239348Y-15401484D02*
X9220301Y-15391960D01*
X9220301Y-15391960D02*
X9210777Y-15372912D01*
X9210777Y-15372912D02*
X9210777Y-15353865D01*
X9210777Y-15353865D02*
X9220301Y-15334817D01*
X9220301Y-15334817D02*
X9239348Y-15325293D01*
X9239348Y-15325293D02*
X9286967Y-15325293D01*
X9286967Y-15325293D02*
X9306015Y-15315769D01*
X9401253Y-15268150D02*
X9401253Y-15468150D01*
X9401253Y-15277674D02*
X9420301Y-15268150D01*
X9420301Y-15268150D02*
X9458396Y-15268150D01*
X9458396Y-15268150D02*
X9477444Y-15277674D01*
X9477444Y-15277674D02*
X9486967Y-15287198D01*
X9486967Y-15287198D02*
X9496491Y-15306246D01*
X9496491Y-15306246D02*
X9496491Y-15363388D01*
X9496491Y-15363388D02*
X9486967Y-15382436D01*
X9486967Y-15382436D02*
X9477444Y-15391960D01*
X9477444Y-15391960D02*
X9458396Y-15401484D01*
X9458396Y-15401484D02*
X9420301Y-15401484D01*
X9420301Y-15401484D02*
X9401253Y-15391960D01*
X9582205Y-15382436D02*
X9591729Y-15391960D01*
X9591729Y-15391960D02*
X9582205Y-15401484D01*
X9582205Y-15401484D02*
X9572682Y-15391960D01*
X9572682Y-15391960D02*
X9582205Y-15382436D01*
X9582205Y-15382436D02*
X9582205Y-15401484D01*
X9582205Y-15277674D02*
X9591729Y-15287198D01*
X9591729Y-15287198D02*
X9582205Y-15296722D01*
X9582205Y-15296722D02*
X9572682Y-15287198D01*
X9572682Y-15287198D02*
X9582205Y-15277674D01*
X9582205Y-15277674D02*
X9582205Y-15296722D01*
M02*
