G04 #@! TF.GenerationSoftware,KiCad,Pcbnew,9.0.2*
G04 #@! TF.CreationDate,2025-07-03T22:36:25-04:00*
G04 #@! TF.ProjectId,Homebrew6502Project,486f6d65-6272-4657-9736-35303250726f,A*
G04 #@! TF.SameCoordinates,Original*
G04 #@! TF.FileFunction,Soldermask,Bot*
G04 #@! TF.FilePolarity,Negative*
%FSLAX46Y46*%
G04 Gerber Fmt 4.6, Leading zero omitted, Abs format (unit mm)*
G04 Created by KiCad (PCBNEW 9.0.2) date 2025-07-03 22:36:25*
%MOMM*%
%LPD*%
G01*
G04 APERTURE LIST*
%ADD10C,0.100000*%
%ADD11R,1.700000X1.700000*%
%ADD12C,1.700000*%
%ADD13C,3.900000*%
%ADD14C,7.000000*%
%ADD15R,1.650000X1.650000*%
%ADD16C,1.650000*%
%ADD17C,3.450000*%
G04 APERTURE END LIST*
D10*
X83312000Y-68580000D02*
X88900000Y-68580000D01*
X88900000Y-87884000D01*
X83312000Y-87884000D01*
X83312000Y-68580000D01*
G36*
X83312000Y-68580000D02*
G01*
X88900000Y-68580000D01*
X88900000Y-87884000D01*
X83312000Y-87884000D01*
X83312000Y-68580000D01*
G37*
D11*
X102496065Y-147243800D03*
D12*
X102496065Y-144703800D03*
X105036065Y-147243800D03*
X105036065Y-144703800D03*
X107576065Y-147243800D03*
X107576065Y-144703800D03*
X110116065Y-147243800D03*
X110116065Y-144703800D03*
X112656065Y-147243800D03*
X112656065Y-144703800D03*
X115196065Y-147243800D03*
X115196065Y-144703800D03*
X117736065Y-147243800D03*
X117736065Y-144703800D03*
X120276065Y-147243800D03*
X120276065Y-144703800D03*
X122816065Y-147243800D03*
X122816065Y-144703800D03*
X125356065Y-147243800D03*
X125356065Y-144703800D03*
X127896065Y-147243800D03*
X127896065Y-144703800D03*
X130436065Y-147243800D03*
X130436065Y-144703800D03*
X132976065Y-147243800D03*
X132976065Y-144703800D03*
X135516065Y-147243800D03*
X135516065Y-144703800D03*
X138056065Y-147243800D03*
X138056065Y-144703800D03*
X140596065Y-147243800D03*
X140596065Y-144703800D03*
D13*
X200660000Y-142240000D03*
D14*
X200660000Y-142240000D03*
D11*
X202140265Y-58369200D03*
D12*
X202140265Y-60909200D03*
X202140265Y-63449200D03*
X202140265Y-65989200D03*
X202140265Y-68529200D03*
D13*
X88900000Y-60960000D03*
D14*
X88900000Y-60960000D03*
D11*
X174632065Y-91160600D03*
D12*
X174632065Y-93700600D03*
D11*
X186801265Y-147218400D03*
D12*
X184261265Y-147218400D03*
X181721265Y-147218400D03*
X179181265Y-147218400D03*
X176641265Y-147218400D03*
D13*
X178027265Y-79126200D03*
D14*
X178027265Y-79126200D03*
D11*
X187258465Y-135026400D03*
D12*
X187258465Y-137566400D03*
X187258465Y-140106400D03*
D11*
X155264268Y-60155201D03*
D12*
X155264268Y-62695201D03*
X152724268Y-60155201D03*
X152724268Y-62695201D03*
X150184268Y-60155201D03*
X150184268Y-62695201D03*
X147644268Y-60155201D03*
X147644268Y-62695201D03*
X145104268Y-60155201D03*
X145104268Y-62695201D03*
X142564268Y-60155201D03*
X142564268Y-62695201D03*
X140024268Y-60155201D03*
X140024268Y-62695201D03*
X137484268Y-60155201D03*
X137484268Y-62695201D03*
X134944268Y-60155201D03*
X134944268Y-62695201D03*
X132404268Y-60155201D03*
X132404268Y-62695201D03*
X129864268Y-60155201D03*
X129864268Y-62695201D03*
X127324268Y-60155201D03*
X127324268Y-62695201D03*
X124784268Y-60155201D03*
X124784268Y-62695201D03*
X122244268Y-60155201D03*
X122244268Y-62695201D03*
X119704268Y-60155201D03*
X119704268Y-62695201D03*
X117164268Y-60155201D03*
X117164268Y-62695201D03*
D11*
X189341265Y-143662400D03*
D12*
X186801265Y-143662400D03*
X184261265Y-143662400D03*
X181721265Y-143662400D03*
X179181265Y-143662400D03*
X176641265Y-143662400D03*
D15*
X175802265Y-63020200D03*
D16*
X178402265Y-63020200D03*
X173702265Y-63020200D03*
X180502265Y-63020200D03*
X173702265Y-65520200D03*
X180502265Y-65520200D03*
D17*
X177102265Y-59220200D03*
X183852265Y-60020200D03*
X170352265Y-60020200D03*
M02*
