M48
; DRILL file {KiCad 9.0.2} date 2025-07-03T22:37:57-0400
; FORMAT={-:-/ absolute / metric / decimal}
; #@! TF.CreationDate,2025-07-03T22:37:57-04:00
; #@! TF.GenerationSoftware,Kicad,Pcbnew,9.0.2
; #@! TF.FileFunction,Plated,1,4,PTH
FMAT,2
METRIC
; #@! TA.AperFunction,Plated,PTH,ViaDrill
T1C0.300
; #@! TA.AperFunction,Plated,PTH,ViaDrill
T2C0.305
; #@! TA.AperFunction,Plated,PTH,ComponentDrill
T3C1.000
; #@! TA.AperFunction,Plated,PTH,ComponentDrill
T4C1.100
; #@! TA.AperFunction,Plated,PTH,ComponentDrill
T5C2.300
; #@! TA.AperFunction,Plated,PTH,ComponentDrill
T6C3.500
%
G90
G05
T1
X84.986Y-117.17
X85.11Y-113.027
X85.649Y-120.752
X86.614Y-120.904
X86.614Y-122.174
X86.697Y-110.566
X86.697Y-111.709
X86.97Y-107.086
X87.078Y-104.089
X87.122Y-105.562
X87.205Y-109.169
X87.325Y-143.104
X87.332Y-108.28
X87.332Y-112.979
X87.489Y-124.612
X87.528Y-143.815
X88.348Y-107.772
X88.619Y-99.809
X88.748Y-143.223
X88.798Y-144.323
X88.836Y-135.066
X88.856Y-114.503
X88.856Y-118.694
X88.856Y-120.218
X88.856Y-144.983
X88.9Y-96.012
X88.9Y-97.536
X88.9Y-99.06
X88.9Y-100.584
X88.9Y-102.108
X88.9Y-121.92
X88.9Y-122.682
X89.103Y-119.431
X89.11Y-108.28
X89.11Y-109.169
X89.11Y-110.439
X89.237Y-103.454
X89.237Y-104.851
X89.237Y-106.629
X89.237Y-115.519
X89.306Y-113.894
X89.348Y-126.857
X89.416Y-141.276
X89.535Y-94.615
X89.996Y-128.905
X89.999Y-145.415
X90.576Y-121.209
X90.579Y-131.234
X90.579Y-130.378
X90.579Y-132.876
X90.579Y-134.276
X90.579Y-138.506
X90.595Y-129.461
X90.609Y-127.381
X90.634Y-120.472
X90.634Y-123.901
X90.66Y-128.346
X90.678Y-122.682
X90.729Y-125.273
X90.729Y-143.665
X90.78Y-140.36
X90.789Y-116.951
X90.805Y-93.345
X91.024Y-142.91
X91.308Y-136.977
X91.345Y-147.422
X91.405Y-108.979
X91.512Y-148.204
X91.592Y-105.207
X91.65Y-107.264
X91.796Y-100.228
X91.796Y-101.092
X91.904Y-103.454
X91.948Y-95.504
X91.948Y-97.028
X91.969Y-132.062
X92.02Y-137.341
X92.047Y-129.578
X92.075Y-87.63
X92.075Y-89.535
X92.075Y-92.075
X92.202Y-101.702
X92.26Y-104.751
X92.285Y-145.491
X92.761Y-108.443
X93.345Y-85.725
X93.421Y-97.18
X93.428Y-90.754
X93.472Y-94.996
X93.472Y-99.06
X93.504Y-108.737
X93.523Y-100.381
X93.538Y-114.69
X93.555Y-119.583
X93.555Y-120.853
X93.577Y-113.251
X93.809Y-93.675
X93.98Y-75.565
X93.98Y-76.835
X93.98Y-78.105
X93.98Y-79.375
X93.98Y-80.645
X93.98Y-81.915
X93.98Y-83.185
X93.98Y-84.455
X94.063Y-90.119
X94.218Y-144.221
X94.248Y-140.081
X94.253Y-134.803
X94.298Y-109.981
X94.317Y-73.736
X94.36Y-105.05
X94.372Y-141.275
X94.419Y-124.638
X94.47Y-125.806
X94.571Y-87.325
X94.571Y-89.23
X94.64Y-101.549
X94.698Y-92.913
X94.698Y-94.691
X94.698Y-126.822
X94.698Y-126.822
X94.793Y-130.2
X94.825Y-146.075
X94.844Y-129.489
X94.894Y-120.853
X95.072Y-108.332
X95.072Y-112.951
X95.453Y-103.48
X95.652Y-142.436
X95.968Y-145.618
X96.012Y-102.87
X96.311Y-106.21
X96.349Y-73.427
X96.352Y-108.912
X96.406Y-113.077
X96.418Y-104.953
X96.476Y-86.055
X96.476Y-87.706
X96.52Y-91.948
X96.52Y-92.964
X96.52Y-93.98
X96.52Y-94.996
X96.603Y-90.754
X96.603Y-99.39
X96.702Y-103.551
X96.813Y-132.062
X96.824Y-119.236
X96.857Y-125.044
X96.883Y-133.223
X96.908Y-127.229
X96.926Y-130.2
X96.945Y-141.159
X97.027Y-70.376
X97.028Y-130.759
X97.067Y-83.134
X97.111Y-72.72
X97.111Y-86.817
X97.111Y-139.395
X97.238Y-126.441
X97.242Y-146.085
X97.277Y-71.876
X97.293Y-102.369
X97.365Y-73.482
X97.403Y-79.662
X97.454Y-68.639
X97.485Y-136.601
X97.492Y-89.865
X97.492Y-124.409
X97.536Y-96.012
X97.536Y-138.074
X97.619Y-97.358
X97.688Y-140.157
X97.736Y-130.06
X97.777Y-85.126
X97.873Y-72.72
X97.873Y-73.99
X97.873Y-108.28
X97.91Y-148.637
X98.0Y-139.395
X98.0Y-141.173
X98.044Y-92.964
X98.127Y-70.434
X98.127Y-121.361
X98.127Y-127.838
X98.127Y-129.362
X98.127Y-144.221
X98.252Y-99.351
X98.254Y-124.409
X98.283Y-113.458
X98.322Y-80.797
X98.349Y-95.656
X98.381Y-73.482
X98.508Y-89.23
X98.534Y-126.467
X98.762Y-136.805
X98.762Y-138.005
X98.889Y-72.72
X98.889Y-74.498
X98.889Y-115.519
X98.889Y-140.538
X98.965Y-108.154
X99.009Y-121.564
X99.016Y-91.135
X99.064Y-122.279
X99.076Y-69.423
X99.111Y-94.742
X99.143Y-73.599
X99.163Y-114.503
X99.27Y-143.967
X99.778Y-92.532
X99.817Y-75.579
X99.873Y-93.878
X99.905Y-110.693
X100.286Y-105.624
X100.319Y-90.334
X100.54Y-125.171
X100.611Y-113.292
X100.667Y-148.158
X100.841Y-64.258
X100.921Y-93.548
X101.125Y-99.13
X101.295Y-96.317
X101.295Y-98.044
X101.302Y-113.36
X101.416Y-86.297
X101.492Y-143.166
X101.549Y-103.226
X101.6Y-133.452
X101.603Y-63.496
X101.651Y-112.471
X101.683Y-66.116
X101.756Y-118.839
X101.77Y-114.597
X101.803Y-97.13
X101.895Y-109.492
X101.9Y-120.369
X101.937Y-65.354
X101.937Y-66.878
X101.937Y-141.808
X101.952Y-105.934
X101.956Y-95.504
X102.026Y-138.406
X102.064Y-136.805
X102.082Y-102.642
X102.108Y-98.044
X102.108Y-100.584
X102.191Y-68.402
X102.299Y-143.166
X102.445Y-62.812
X102.616Y-104.343
X102.699Y-66.116
X102.699Y-66.878
X102.699Y-141.046
X102.718Y-95.504
X102.739Y-76.521
X102.768Y-133.502
X102.773Y-81.565
X102.773Y-85.344
X102.777Y-79.876
X102.996Y-111.413
X103.022Y-97.079
X103.08Y-117.805
X103.276Y-77.114
X103.461Y-65.862
X103.482Y-80.58
X103.576Y-112.813
X103.627Y-84.834
X103.632Y-89.916
X103.674Y-71.296
X103.715Y-105.901
X103.791Y-83.685
X103.85Y-111.447
X104.024Y-73.736
X104.096Y-78.943
X104.223Y-64.846
X104.223Y-72.456
X104.274Y-76.337
X104.325Y-83.033
X104.406Y-75.548
X104.426Y-83.718
X104.445Y-121.971
X104.477Y-139.776
X104.477Y-142.443
X104.601Y-131.126
X104.687Y-111.353
X104.699Y-88.494
X104.699Y-89.256
X104.725Y-119.051
X104.731Y-77.038
X104.731Y-85.42
X104.775Y-90.805
X104.785Y-77.836
X104.833Y-110.566
X104.851Y-105.664
X104.985Y-60.274
X105.239Y-62.179
X105.239Y-63.195
X105.239Y-64.084
X105.239Y-121.742
X105.239Y-126.684
X105.239Y-131.775
X105.366Y-91.77
X105.613Y-88.951
X105.664Y-112.776
X105.747Y-64.846
X105.747Y-105.486
X105.747Y-125.171
X105.766Y-86.563
X106.027Y-101.126
X106.027Y-103.842
X106.089Y-74.329
X106.236Y-71.422
X106.274Y-85.344
X106.401Y-140.385
X106.763Y-111.201
X106.883Y-88.9
X106.89Y-131.14
X107.017Y-58.496
X107.017Y-61.29
X107.017Y-62.052
X107.017Y-62.814
X107.017Y-63.576
X107.017Y-69.926
X107.017Y-93.548
X107.017Y-121.742
X107.102Y-105.901
X107.14Y-75.986
X107.144Y-60.274
X107.271Y-98.882
X107.271Y-116.299
X107.359Y-82.485
X107.398Y-68.91
X107.418Y-71.45
X107.594Y-88.29
X107.652Y-90.881
X107.825Y-70.849
X107.906Y-61.29
X107.906Y-62.052
X107.906Y-83.388
X108.046Y-115.719
X108.052Y-138.397
X108.202Y-139.832
X108.287Y-111.836
X108.322Y-103.94
X108.541Y-61.925
X108.541Y-131.14
X108.661Y-85.954
X108.661Y-88.9
X108.727Y-82.499
X108.727Y-83.202
X108.744Y-119.05
X108.795Y-61.29
X108.897Y-112.954
X108.922Y-95.453
X108.922Y-142.062
X109.176Y-93.548
X109.303Y-100.914
X109.303Y-102.461
X109.467Y-78.57
X109.53Y-77.773
X109.557Y-83.388
X109.557Y-121.361
X109.626Y-87.625
X109.677Y-113.538
X109.684Y-119.025
X109.684Y-124.79
X109.811Y-60.655
X109.811Y-104.626
X109.862Y-116.299
X109.899Y-74.714
X109.899Y-75.514
X109.934Y-76.424
X109.938Y-96.342
X109.938Y-140.665
X109.964Y-138.405
X110.011Y-111.02
X110.033Y-89.002
X110.065Y-62.941
X110.192Y-58.496
X110.231Y-68.049
X110.265Y-78.502
X110.527Y-83.376
X110.562Y-73.836
X110.573Y-61.925
X110.579Y-70.898
X110.642Y-64.774
X110.681Y-75.348
X110.7Y-66.37
X110.7Y-79.705
X110.7Y-118.948
X110.744Y-99.568
X110.744Y-114.249
X110.755Y-76.53
X110.785Y-103.842
X110.827Y-60.528
X110.827Y-77.419
X110.827Y-125.933
X110.827Y-137.236
X110.827Y-138.631
X110.844Y-74.585
X110.916Y-113.42
X110.929Y-112.243
X110.987Y-81.593
X110.99Y-72.129
X111.027Y-85.126
X111.081Y-131.902
X111.214Y-80.318
X111.335Y-62.56
X111.335Y-142.443
X111.612Y-104.212
X111.716Y-131.14
X111.76Y-100.584
X111.843Y-60.528
X111.843Y-64.406
X111.843Y-93.548
X111.843Y-95.453
X111.97Y-61.925
X111.982Y-115.761
X112.022Y-77.595
X112.041Y-69.172
X112.097Y-90.5
X112.097Y-127.33
X112.351Y-131.902
X112.37Y-104.792
X112.478Y-98.755
X112.584Y-70.535
X112.602Y-78.395
X112.605Y-66.888
X112.745Y-69.553
X112.797Y-80.343
X112.856Y-116.321
X112.859Y-62.687
X112.986Y-118.948
X113.113Y-60.528
X113.113Y-91.516
X113.182Y-79.132
X113.24Y-89.484
X113.248Y-108.602
X113.335Y-86.614
X113.367Y-58.496
X113.367Y-129.87
X113.431Y-131.458
X113.494Y-61.925
X113.494Y-122.377
X113.613Y-80.338
X113.748Y-60.02
X113.814Y-109.168
X113.875Y-92.532
X113.875Y-93.421
X113.875Y-100.152
X113.875Y-116.154
X114.002Y-90.373
X114.002Y-95.834
X114.002Y-98.247
X114.015Y-73.224
X114.028Y-111.023
X114.148Y-88.443
X114.256Y-62.687
X114.383Y-59.639
X114.383Y-60.528
X114.51Y-131.648
X114.637Y-119.329
X114.637Y-128.534
X114.891Y-61.925
X114.964Y-129.29
X114.975Y-104.953
X115.018Y-59.258
X115.018Y-60.02
X115.018Y-63.068
X115.018Y-123.393
X115.113Y-121.717
X115.232Y-127.264
X115.299Y-72.119
X115.312Y-73.91
X115.399Y-108.788
X115.519Y-87.376
X115.526Y-68.783
X115.526Y-89.865
X115.526Y-118.948
X115.531Y-70.014
X115.57Y-85.09
X115.586Y-125.318
X115.64Y-66.884
X115.653Y-74.701
X115.653Y-92.024
X115.653Y-95.834
X115.653Y-98.247
X115.78Y-81.61
X115.78Y-84.15
X115.824Y-75.717
X115.907Y-59.131
X115.907Y-79.832
X115.907Y-103.835
X115.907Y-104.597
X115.937Y-116.277
X115.971Y-111.502
X115.976Y-113.284
X116.027Y-68.126
X116.078Y-76.759
X116.192Y-93.517
X116.205Y-86.36
X116.219Y-75.267
X116.235Y-69.154
X116.288Y-88.595
X116.341Y-67.39
X116.368Y-66.553
X116.535Y-104.851
X116.542Y-90.754
X116.669Y-79.832
X116.669Y-140.538
X116.796Y-81.61
X116.84Y-85.725
X117.035Y-114.884
X117.05Y-102.565
X117.145Y-104.902
X117.168Y-67.133
X117.177Y-58.496
X117.177Y-68.275
X117.297Y-121.92
X117.304Y-95.834
X117.348Y-124.968
X117.38Y-110.922
X117.431Y-120.218
X117.558Y-89.992
X117.558Y-103.073
X117.685Y-84.912
X117.825Y-67.713
X117.939Y-92.278
X117.939Y-104.47
X118.066Y-68.783
X118.066Y-101.422
X118.211Y-69.489
X118.32Y-103.581
X118.32Y-116.789
X118.335Y-114.884
X118.574Y-59.131
X118.637Y-110.549
X118.638Y-113.594
X118.701Y-93.548
X118.701Y-108.667
X118.72Y-76.657
X118.828Y-69.164
X118.867Y-140.827
X118.888Y-105.781
X118.993Y-68.293
X119.082Y-87.706
X119.082Y-91.262
X119.082Y-100.406
X119.082Y-118.059
X119.209Y-82.626
X119.336Y-69.634
X119.463Y-79.705
X119.463Y-114.884
X119.463Y-115.646
X119.59Y-103.835
X119.617Y-68.873
X119.971Y-99.517
X120.098Y-138.887
X120.193Y-112.827
X120.193Y-113.538
X120.352Y-58.496
X120.396Y-101.6
X120.417Y-69.453
X120.447Y-108.56
X120.479Y-91.77
X120.479Y-99.009
X120.606Y-119.456
X120.86Y-78.943
X120.904Y-121.615
X120.987Y-104.47
X121.241Y-98.527
X121.347Y-114.736
X121.368Y-59.258
X121.407Y-140.247
X121.495Y-115.646
X121.495Y-119.456
X121.546Y-113.716
X121.652Y-64.327
X121.717Y-121.564
X121.724Y-131.297
X121.732Y-110.49
X121.827Y-106.276
X122.003Y-84.912
X122.003Y-86.182
X122.003Y-87.325
X122.003Y-88.595
X122.003Y-90.246
X122.003Y-97.739
X122.003Y-103.708
X122.123Y-116.18
X122.123Y-117.145
X122.123Y-117.958
X122.13Y-99.263
X122.13Y-100.152
X122.13Y-101.168
X122.13Y-102.184
X122.13Y-102.946
X122.13Y-119.202
X122.138Y-73.253
X122.174Y-115.062
X122.183Y-107.574
X122.346Y-79.288
X122.561Y-139.473
X122.777Y-93.126
X122.854Y-64.422
X122.892Y-70.214
X123.019Y-57.988
X123.213Y-73.668
X123.213Y-73.668
X123.254Y-79.376
X123.377Y-66.545
X123.412Y-91.626
X123.527Y-137.033
X123.654Y-58.877
X123.919Y-74.613
X124.135Y-73.452
X124.176Y-79.478
X124.177Y-66.56
X124.51Y-75.193
X124.543Y-145.872
X124.663Y-135.585
X124.747Y-64.401
X124.747Y-72.937
X124.866Y-133.756
X124.916Y-66.866
X125.09Y-79.571
X125.09Y-104.47
X125.295Y-75.773
X125.359Y-73.452
X125.689Y-66.659
X125.939Y-79.574
X125.939Y-89.102
X125.963Y-67.46
X125.982Y-76.353
X126.067Y-58.115
X126.067Y-59.131
X126.136Y-136.957
X126.145Y-72.745
X126.164Y-68.901
X126.39Y-133.786
X126.519Y-73.452
X126.621Y-78.994
X126.665Y-76.933
X126.829Y-135.458
X126.85Y-66.551
X127.319Y-73.452
X127.37Y-78.414
X127.37Y-78.414
X127.37Y-88.214
X127.43Y-67.107
X128.035Y-77.834
X128.035Y-87.706
X128.119Y-73.452
X128.353Y-129.235
X128.353Y-136.855
X128.404Y-68.902
X128.607Y-58.75
X128.615Y-66.556
X128.615Y-98.882
X128.615Y-107.01
X128.615Y-115.361
X128.626Y-134.976
X128.734Y-95.834
X128.734Y-97.104
X128.861Y-89.357
X128.967Y-73.355
X129.027Y-80.344
X129.115Y-117.297
X129.115Y-119.583
X129.115Y-129.235
X129.212Y-78.299
X129.235Y-133.655
X129.242Y-90.881
X129.242Y-92.786
X129.242Y-120.98
X129.286Y-109.626
X129.364Y-70.264
X129.369Y-100.152
X129.369Y-102.565
X129.369Y-103.327
X129.369Y-104.089
X129.369Y-131.394
X129.385Y-65.071
X129.388Y-135.331
X129.422Y-113.286
X129.438Y-130.15
X129.442Y-66.946
X129.496Y-116.535
X129.623Y-128.473
X129.831Y-67.645
X129.845Y-140.513
X129.877Y-124.536
X130.004Y-79.451
X130.017Y-72.754
X130.022Y-82.74
X130.191Y-103.039
X130.302Y-93.624
X130.302Y-134.468
X130.396Y-67.08
X130.512Y-122.25
X130.556Y-68.241
X130.607Y-95.961
X130.639Y-123.774
X130.658Y-141.478
X130.766Y-127.457
X130.771Y-112.474
X130.771Y-111.074
X130.842Y-82.74
X130.861Y-131.267
X130.861Y-133.452
X130.962Y-129.591
X131.02Y-58.75
X131.02Y-116.154
X131.027Y-66.588
X131.064Y-102.057
X131.086Y-139.447
X131.115Y-121.26
X131.147Y-81.737
X131.147Y-92.786
X131.267Y-105.867
X131.318Y-137.922
X131.352Y-109.501
X131.401Y-103.962
X131.47Y-132.74
X131.521Y-140.411
X131.528Y-84.912
X131.528Y-86.69
X131.528Y-88.341
X131.528Y-124.536
X131.652Y-69.297
X131.757Y-115.672
X131.782Y-143.573
X131.932Y-114.108
X131.966Y-112.289
X132.163Y-116.535
X132.182Y-138.379
X132.283Y-137.262
X132.334Y-95.961
X132.506Y-64.422
X132.544Y-127.457
X132.588Y-100.482
X132.671Y-79.451
X132.791Y-93.574
X132.798Y-119.583
X132.802Y-115.897
X132.994Y-106.477
X133.052Y-58.75
X133.052Y-88.976
X133.052Y-124.536
X133.237Y-77.163
X133.452Y-96.215
X133.502Y-109.88
X133.687Y-138.633
X133.84Y-123.063
X133.941Y-81.737
X134.034Y-76.802
X134.163Y-99.06
X134.193Y-66.655
X134.195Y-58.75
X134.322Y-88.976
X134.322Y-90.881
X134.322Y-101.041
X134.449Y-68.402
X134.449Y-137.871
X134.518Y-119.939
X134.551Y-84.099
X134.703Y-131.394
X134.834Y-76.353
X134.852Y-79.531
X134.922Y-75.193
X134.925Y-106.528
X134.976Y-121.514
X134.989Y-66.569
X135.077Y-73.355
X135.084Y-134.442
X135.338Y-82.753
X135.338Y-130.759
X135.382Y-103.581
X135.465Y-140.157
X135.484Y-97.841
X135.555Y-75.833
X135.585Y-120.802
X135.592Y-85.166
X135.592Y-88.976
X135.592Y-92.151
X135.592Y-118.821
X135.592Y-133.934
X135.627Y-68.164
X135.636Y-108.153
X135.652Y-74.612
X135.687Y-117.246
X135.719Y-72.847
X135.785Y-113.251
X135.846Y-69.926
X135.846Y-96.469
X135.89Y-121.666
X136.195Y-119.786
X136.227Y-139.268
X136.451Y-74.265
X136.601Y-107.391
X136.608Y-69.418
X136.754Y-120.853
X136.789Y-66.787
X136.855Y-122.174
X136.862Y-86.436
X136.862Y-88.976
X136.862Y-90.881
X136.862Y-98.374
X136.904Y-97.503
X136.989Y-72.72
X137.008Y-111.658
X137.363Y-112.471
X137.497Y-94.623
X137.624Y-71.196
X137.719Y-110.896
X137.751Y-69.672
X137.751Y-85.039
X137.922Y-111.862
X138.005Y-142.57
X138.079Y-72.637
X138.132Y-58.623
X138.132Y-114.376
X138.176Y-121.971
X138.513Y-100.025
X138.513Y-103.835
X138.513Y-105.486
X138.582Y-119.278
X138.767Y-59.385
X138.767Y-69.799
X138.767Y-122.885
X138.767Y-136.855
X138.786Y-70.764
X138.836Y-122.123
X138.949Y-73.771
X139.072Y-84.963
X139.192Y-116.84
X139.275Y-58.623
X139.737Y-73.629
X139.783Y-69.799
X139.903Y-109.626
X140.005Y-101.905
X140.005Y-103.53
X140.027Y-99.224
X140.056Y-106.985
X140.164Y-135.458
X140.423Y-73.218
X140.672Y-87.071
X140.672Y-87.871
X140.672Y-88.671
X140.672Y-90.881
X140.672Y-92.786
X140.672Y-94.056
X140.672Y-96.469
X140.672Y-142.57
X141.002Y-73.77
X141.053Y-134.569
X141.053Y-135.331
X141.173Y-123.85
X141.247Y-64.172
X141.307Y-57.988
X141.307Y-59.131
X141.307Y-78.054
X141.326Y-102.819
X141.376Y-105.461
X141.478Y-110.287
X141.688Y-90.881
X141.802Y-73.77
X141.968Y-98.374
X142.395Y-94.057
X142.548Y-103.967
X142.577Y-114.63
X142.577Y-116.916
X142.577Y-119.583
X142.577Y-120.98
X142.577Y-122.504
X142.704Y-76.784
X143.002Y-109.474
X143.085Y-96.342
X143.238Y-98.374
X143.277Y-87.071
X143.466Y-58.623
X143.466Y-76.784
X143.466Y-88.087
X143.466Y-89.992
X143.466Y-93.929
X143.72Y-59.258
X143.72Y-61.417
X143.764Y-79.756
X143.8Y-74.802
X143.847Y-76.022
X143.847Y-82.626
X143.974Y-102.438
X143.974Y-107.137
X144.07Y-133.452
X144.17Y-67.716
X144.323Y-110.185
X144.416Y-87.071
X144.482Y-66.751
X144.482Y-108.026
X144.577Y-103.48
X144.609Y-57.988
X144.997Y-79.626
X145.577Y-98.424
X145.625Y-118.186
X145.625Y-123.647
X145.625Y-124.917
X145.694Y-113.22
X145.752Y-85.801
X145.752Y-88.849
X145.752Y-97.231
X145.752Y-111.836
X145.752Y-116.116
X145.752Y-116.916
X145.752Y-122.631
X145.759Y-114.482
X145.762Y-115.306
X145.762Y-121.821
X145.764Y-121.002
X145.847Y-107.798
X145.875Y-119.743
X145.879Y-80.086
X145.898Y-135.611
X146.152Y-73.711
X146.26Y-59.004
X146.295Y-105.394
X146.387Y-58.369
X146.387Y-61.417
X146.387Y-87.071
X146.387Y-98.501
X146.514Y-67.894
X146.514Y-82.499
X146.768Y-73.99
X146.812Y-101.6
X147.022Y-95.326
X147.574Y-112.42
X147.574Y-135.128
X147.657Y-82.499
X147.657Y-85.801
X147.777Y-105.766
X147.784Y-88.849
X147.828Y-75.692
X147.828Y-77.724
X147.828Y-79.756
X148.336Y-86.868
X148.872Y-114.134
X148.895Y-82.245
X148.927Y-59.258
X148.927Y-61.29
X148.927Y-85.801
X148.927Y-93.421
X148.927Y-97.231
X148.967Y-98.504
X149.308Y-65.608
X149.435Y-108.026
X149.452Y-133.271
X149.454Y-112.166
X149.562Y-118.059
X149.562Y-118.948
X149.562Y-130.124
X149.562Y-85.315
X149.606Y-80.569
X149.657Y-115.976
X149.689Y-123.393
X149.689Y-124.536
X149.816Y-64.084
X149.816Y-68.148
X149.816Y-105.232
X149.943Y-70.942
X150.07Y-73.736
X150.096Y-98.425
X150.197Y-85.801
X150.197Y-125.679
X150.197Y-127.076
X150.317Y-131.115
X150.451Y-80.467
X150.578Y-116.916
X150.832Y-91.516
X150.832Y-95.326
X150.832Y-108.661
X150.876Y-77.216
X150.959Y-65.481
X150.959Y-88.849
X150.959Y-98.425
X151.086Y-66.751
X151.13Y-69.723
X151.232Y-105.867
X151.282Y-113.487
X151.333Y-112.065
X151.34Y-80.975
X151.34Y-81.991
X151.384Y-79.756
X151.386Y-78.285
X151.467Y-115.9
X151.511Y-67.818
X151.721Y-64.846
X151.721Y-73.863
X151.848Y-125.679
X151.892Y-76.2
X151.975Y-118.313
X152.095Y-107.137
X152.102Y-108.661
X152.146Y-65.659
X152.178Y-98.476
X152.356Y-64.211
X152.356Y-68.148
X152.4Y-78.74
X152.483Y-69.672
X152.529Y-77.142
X152.61Y-70.942
X152.61Y-105.232
X152.61Y-114.503
X152.681Y-85.85
X152.737Y-93.421
X152.737Y-111.836
X152.777Y-73.626
X152.864Y-102.565
X152.908Y-75.184
X152.991Y-117.297
X153.118Y-125.679
X153.118Y-126.949
X153.162Y-131.166
X153.245Y-119.583
X153.372Y-88.849
X153.372Y-92.786
X153.372Y-95.199
X153.372Y-97.739
X153.416Y-77.724
X153.416Y-101.6
X153.527Y-85.876
X153.626Y-102.565
X153.647Y-76.024
X153.873Y-66.853
X153.88Y-103.708
X153.88Y-105.486
X153.88Y-111.836
X153.89Y-108.898
X154.134Y-118.44
X154.229Y-66.192
X154.432Y-106.172
X154.522Y-107.188
X154.522Y-108.204
X154.642Y-120.853
X154.686Y-66.751
X154.896Y-84.15
X154.94Y-64.516
X154.94Y-77.216
X154.94Y-80.264
X155.15Y-111.836
X155.15Y-125.679
X155.156Y-68.185
X155.16Y-108.898
X155.277Y-71.705
X155.277Y-72.505
X155.277Y-73.305
X155.277Y-105.486
X155.29Y-100.7
X155.404Y-66.243
X155.499Y-76.015
X155.531Y-119.837
X155.671Y-68.797
X155.702Y-65.024
X155.879Y-69.57
X155.923Y-100.12
X156.039Y-73.99
X156.039Y-122.25
X156.085Y-70.343
X156.261Y-66.243
X156.293Y-82.753
X156.298Y-87.602
X156.42Y-101.676
X156.42Y-102.438
X156.42Y-103.2
X156.42Y-103.962
X156.42Y-104.851
X156.42Y-129.997
X156.456Y-99.523
X156.464Y-77.216
X156.535Y-71.004
X156.547Y-61.417
X156.547Y-63.83
X156.547Y-85.166
X156.547Y-89.611
X156.547Y-90.881
X156.547Y-92.151
X156.547Y-94.056
X156.801Y-59.893
X156.801Y-68.91
X156.801Y-121.107
X156.845Y-65.278
X157.055Y-66.243
X157.055Y-74.371
X157.076Y-98.903
X157.309Y-123.52
X157.48Y-77.216
X157.531Y-76.015
X157.563Y-64.592
X157.659Y-69.976
X157.69Y-75.133
X157.817Y-81.356
X157.817Y-83.896
X157.886Y-66.243
X157.988Y-57.622
X158.198Y-122.631
X158.293Y-65.583
X158.325Y-59.766
X158.452Y-87.706
X158.452Y-88.976
X158.579Y-63.703
X158.598Y-69.901
X158.706Y-66.243
X158.75Y-105.41
X158.75Y-107.95
X158.852Y-101.702
X158.96Y-129.997
X159.004Y-57.622
X159.087Y-100.406
X159.087Y-121.869
X159.258Y-116.332
X159.277Y-72.555
X159.341Y-62.56
X159.341Y-64.338
X159.36Y-112.471
X159.472Y-65.481
X159.512Y-113.843
X159.512Y-118.262
X159.593Y-59.787
X159.816Y-60.606
X159.976Y-77.673
X160.02Y-57.622
X160.052Y-63.424
X160.274Y-105.156
X160.357Y-72.466
X160.357Y-99.136
X160.357Y-108.661
X161.006Y-125.089
X161.036Y-103.276
X161.246Y-78.435
X161.29Y-106.68
X161.5Y-73.355
X161.627Y-97.866
X161.881Y-77.673
X162.56Y-104.14
X162.592Y-73.736
X162.775Y-62.05
X162.897Y-96.596
X162.897Y-109.931
X163.068Y-103.276
X163.151Y-60.147
X163.195Y-72.466
X163.275Y-68.225
X163.373Y-63.246
X163.532Y-59.131
X163.532Y-61.544
X163.532Y-65.989
X163.786Y-76.657
X163.786Y-78.308
X163.83Y-64.135
X163.83Y-105.41
X163.913Y-69.926
X164.0Y-67.9
X164.04Y-62.941
X164.167Y-95.326
X164.675Y-60.147
X164.802Y-128.346
X164.821Y-65.259
X165.025Y-68.1
X165.031Y-73.736
X165.1Y-103.276
X165.111Y-69.674
X165.405Y-59.538
X165.437Y-78.181
X165.437Y-94.056
X166.319Y-59.639
X166.326Y-77.546
X166.624Y-137.16
X166.707Y-92.786
X167.012Y-128.803
X167.05Y-72.39
X167.132Y-103.276
X167.64Y-137.16
X167.85Y-60.147
X167.977Y-66.625
X167.977Y-91.516
X168.104Y-58.75
X168.104Y-61.544
X168.104Y-62.814
X168.104Y-64.084
X168.104Y-65.354
X168.612Y-83.896
X168.612Y-85.801
X168.612Y-87.706
X168.612Y-89.611
X168.656Y-104.14
X168.656Y-137.16
X168.835Y-102.287
X168.866Y-62.814
X168.91Y-66.243
X169.215Y-64.719
X169.545Y-77.673
X169.545Y-78.74
X169.882Y-116.281
X170.009Y-63.957
X170.078Y-66.243
X170.105Y-101.017
X170.18Y-76.657
X170.263Y-69.799
X170.263Y-78.435
X170.332Y-67.92
X170.39Y-72.466
X170.517Y-117.551
X170.87Y-73.106
X171.025Y-76.403
X171.025Y-77.546
X171.196Y-66.243
X171.196Y-67.97
X171.279Y-65.227
X171.375Y-99.747
X171.406Y-62.941
X171.61Y-123.902
X171.66Y-73.355
X171.704Y-104.14
X171.914Y-69.545
X171.914Y-72.357
X171.914Y-76.403
X172.168Y-80.213
X172.314Y-67.92
X172.422Y-66.243
X172.645Y-98.477
X172.669Y-73.66
X172.72Y-93.98
X172.72Y-95.25
X172.72Y-96.52
X172.72Y-101.6
X172.93Y-69.545
X173.057Y-79.324
X173.228Y-105.156
X173.279Y-68.478
X173.946Y-78.435
X173.99Y-99.06
X174.073Y-67.894
X174.169Y-96.953
X174.327Y-116.281
X174.752Y-104.14
X174.962Y-117.551
X175.26Y-98.044
X175.26Y-101.6
X175.26Y-105.156
X175.412Y-72.746
X175.597Y-69.672
X175.851Y-70.434
X176.359Y-72.212
X176.53Y-97.536
X176.613Y-70.434
X176.867Y-70.942
X176.867Y-117.551
X176.87Y-99.654
X176.87Y-101.6
X176.87Y-103.632
X176.999Y-71.731
X177.165Y-85.725
X177.165Y-86.995
X177.165Y-88.265
X177.165Y-89.535
X177.165Y-90.805
X177.172Y-92.431
X177.172Y-93.193
X177.172Y-93.955
X177.172Y-124.892
X177.426Y-91.669
X177.546Y-97.536
X177.8Y-104.14
X177.934Y-124.231
X178.188Y-91.669
X178.308Y-105.156
X178.391Y-68.148
X178.435Y-85.725
X178.435Y-88.265
X178.435Y-89.535
X178.435Y-90.805
X178.518Y-64.973
X178.518Y-65.989
X178.544Y-125.552
X178.562Y-96.774
X178.562Y-97.536
X178.562Y-98.298
X178.562Y-99.06
X178.772Y-73.482
X178.772Y-117.551
X178.95Y-91.669
X179.07Y-88.9
X179.07Y-90.17
X179.91Y-68.221
X180.042Y-139.776
X180.423Y-59.512
X180.569Y-89.052
X180.592Y-90.322
X180.592Y-91.186
X180.592Y-94.996
X180.677Y-68.656
X180.975Y-83.82
X181.033Y-72.771
X181.041Y-71.591
X181.185Y-76.53
X181.186Y-98.044
X181.312Y-69.291
X181.322Y-70.101
X181.356Y-104.14
X181.359Y-97.025
X181.61Y-88.9
X181.61Y-90.17
X181.665Y-72.191
X181.864Y-105.156
X181.911Y-71.43
X182.074Y-70.561
X182.245Y-85.725
X182.245Y-88.265
X182.245Y-89.535
X182.245Y-90.805
X182.506Y-91.669
X182.582Y-69.291
X182.836Y-71.196
X183.134Y-84.074
X183.217Y-139.141
X183.268Y-91.669
X183.515Y-85.725
X183.515Y-86.995
X183.515Y-88.265
X183.515Y-89.535
X183.515Y-90.805
X183.852Y-71.196
X183.852Y-138.506
X184.03Y-91.669
X184.03Y-92.431
X184.03Y-93.193
X184.03Y-93.955
X184.03Y-95.733
X184.186Y-73.827
X184.404Y-69.088
X184.404Y-86.36
X184.404Y-87.63
X184.404Y-88.9
X184.404Y-90.17
X184.487Y-69.926
X184.487Y-70.561
X184.792Y-95.733
X184.792Y-96.495
X184.792Y-97.257
X184.912Y-65.024
X184.912Y-84.074
X185.42Y-66.04
X185.42Y-85.725
X185.42Y-86.995
X185.42Y-88.265
X185.42Y-89.535
X185.42Y-90.805
X185.928Y-104.14
X186.265Y-78.562
X186.392Y-69.926
X186.436Y-65.617
X186.519Y-75.048
X186.527Y-66.626
X186.69Y-88.392
X186.9Y-79.324
X187.027Y-70.561
X187.198Y-84.074
X187.281Y-60.147
X187.84Y-99.543
X187.842Y-88.5
X187.842Y-90.17
X187.842Y-91.375
X187.96Y-79.756
X188.551Y-60.147
X188.595Y-83.185
X188.595Y-84.455
X188.602Y-99.543
X188.602Y-100.305
X188.602Y-101.067
X188.976Y-79.248
X189.059Y-65.481
X189.23Y-90.805
X189.364Y-99.543
X189.489Y-88.524
X189.527Y-70.626
X189.567Y-139.141
X189.618Y-91.669
X189.821Y-60.147
X189.865Y-85.725
X189.992Y-78.232
X189.992Y-104.14
X190.202Y-107.391
X190.329Y-65.481
X190.38Y-91.669
X190.5Y-89.535
X190.5Y-90.805
X190.747Y-85.725
X190.747Y-86.995
X190.837Y-107.391
X191.091Y-60.147
X191.142Y-91.669
X191.142Y-123.876
X191.396Y-92.685
X191.396Y-93.447
X191.472Y-65.481
X191.77Y-85.725
X191.77Y-86.995
X191.77Y-88.265
X191.77Y-89.535
X191.77Y-90.805
X191.955Y-125.603
X192.024Y-79.756
X192.532Y-77.724
X192.615Y-59.258
X193.25Y-65.608
X193.428Y-91.288
X193.428Y-92.939
X193.631Y-63.068
X194.012Y-73.228
X194.012Y-117.551
X194.012Y-135.331
X194.056Y-84.836
X194.056Y-87.376
X194.056Y-89.916
X194.056Y-104.14
X194.063Y-91.542
X194.063Y-92.558
X194.139Y-71.958
X194.139Y-74.498
X194.139Y-76.276
X194.158Y-59.538
X194.181Y-118.919
X194.647Y-132.791
X194.869Y-58.369
X194.97Y-60.096
X195.072Y-81.788
X195.529Y-58.42
X195.917Y-70.561
X195.917Y-118.186
X196.19Y-58.369
X196.291Y-60.147
X196.552Y-129.616
X196.853Y-65.376
X197.027Y-70.626
X197.053Y-58.471
X197.104Y-84.836
X197.104Y-87.376
X197.104Y-89.916
X197.104Y-92.456
X197.187Y-62.941
X197.527Y-68.126
X198.018Y-60.147
X198.12Y-82.296
X198.12Y-104.14
X198.628Y-62.992
X198.628Y-83.312
X199.136Y-81.28
X199.136Y-104.14
X199.6Y-75.768
X199.644Y-83.312
X199.949Y-59.995
X199.981Y-56.845
X199.981Y-73.228
X200.152Y-104.14
X200.152Y-105.156
X200.362Y-58.496
X200.87Y-81.229
X201.168Y-104.14
X201.168Y-105.156
X201.505Y-74.244
X201.759Y-81.229
X202.267Y-81.991
X202.267Y-82.88
X203.283Y-75.768
T2
X88.663Y-116.404
X90.89Y-119.605
X96.752Y-115.781
X99.074Y-119.49
X99.393Y-126.684
X99.393Y-127.954
X99.393Y-129.224
X99.393Y-130.494
X99.393Y-131.764
X99.55Y-124.144
X99.651Y-123.165
X104.727Y-137.098
X105.997Y-137.098
X107.267Y-137.098
X108.541Y-137.094
X109.807Y-137.098
X113.617Y-137.098
X114.887Y-137.098
X116.157Y-137.098
X117.427Y-137.098
X122.511Y-128.716
X122.575Y-126.112
X122.575Y-127.382
X122.576Y-129.923
X122.777Y-123.316
X122.782Y-131.862
X122.866Y-124.551
X123.337Y-131.261
X123.412Y-123.901
X123.916Y-130.694
X124.501Y-130.115
X125.147Y-129.451
X125.84Y-128.758
X126.56Y-128.386
X142.349Y-141.346
X142.577Y-144.729
X143.316Y-147.218
X143.339Y-144.729
X144.101Y-144.729
X144.863Y-144.729
X145.117Y-140.411
X145.232Y-139.461
X147.251Y-137.033
X147.251Y-138.354
X147.302Y-142.164
X147.533Y-145.44
X149.486Y-147.396
X149.985Y-135.712
X149.985Y-137.135
X150.096Y-141.554
X150.096Y-142.215
X150.096Y-142.875
X150.096Y-143.535
X150.225Y-134.163
X150.248Y-134.95
X150.299Y-145.466
X150.604Y-136.728
X150.604Y-137.49
X150.654Y-135.865
X151.061Y-145.466
X151.67Y-137.287
X151.952Y-127.102
X151.975Y-145.872
X152.003Y-129.997
X152.026Y-141.554
X152.28Y-146.482
X152.28Y-147.142
X152.28Y-147.803
X152.483Y-140.081
X152.534Y-137.744
X152.534Y-138.862
X152.534Y-144.043
X153.398Y-141.605
X154.007Y-142.57
X154.261Y-145.923
X154.804Y-126.988
X154.82Y-136.423
X154.922Y-145.923
X155.277Y-143.281
X155.633Y-141.707
X155.633Y-145.872
X155.988Y-143.281
X156.05Y-126.964
X156.09Y-146.431
X156.42Y-111.836
X156.91Y-127.065
X156.954Y-145.974
X157.614Y-145.974
X157.665Y-138.201
X157.776Y-127.037
X158.274Y-145.974
X158.478Y-143.281
X158.586Y-127.021
X158.935Y-145.974
X159.24Y-141.707
X159.979Y-130.073
X160.103Y-126.314
X160.821Y-120.144
X161.068Y-136.322
X161.503Y-131.234
X161.757Y-110.769
X161.983Y-141.707
X162.646Y-131.819
X163.278Y-133.934
X163.605Y-143.679
X163.659Y-140.081
X163.71Y-137.541
X163.71Y-138.506
X163.789Y-113.182
X163.789Y-114.325
X163.913Y-121.895
X163.913Y-123.169
X163.913Y-124.536
X164.04Y-133.172
X164.04Y-134.696
X164.574Y-137.236
X164.675Y-141.707
X165.742Y-137.287
X165.742Y-141.707
X165.793Y-134.036
X166.176Y-121.31
X166.25Y-138.1
X166.58Y-122.376
X166.65Y-132.918
X166.86Y-136.474
X166.86Y-140.081
X166.989Y-144.388
X167.977Y-106.756
X168.003Y-114.122
X168.234Y-121.564
X168.31Y-124.072
X168.612Y-110.566
X169.349Y-137.846
X169.45Y-141.402
X169.501Y-140.335
X170.007Y-135.347
X170.009Y-127.965
X170.009Y-136.373
X170.111Y-134.544
X170.266Y-114.071
X170.444Y-133.655
X170.517Y-106.756
X170.517Y-109.296
X170.517Y-110.566
X170.517Y-112.471
X170.644Y-126.441
X170.644Y-128.854
X170.873Y-135.814
X170.898Y-132.41
X170.924Y-136.779
X171.046Y-125.286
X171.076Y-138.506
X171.279Y-126.695
X171.487Y-122.375
X171.663Y-105.359
X171.663Y-129.438
X171.815Y-120.991
X171.889Y-143.679
X172.244Y-144.247
X172.339Y-127.381
X172.679Y-127.914
X172.806Y-114.071
X173.057Y-110.566
X173.06Y-143.679
X174.33Y-105.943
X174.838Y-134.899
X174.877Y-128.41
X174.962Y-110.566
X174.965Y-130.063
X174.965Y-132.613
X175.117Y-138.328
X175.158Y-122.054
X175.346Y-114.071
X175.689Y-128.512
X176.418Y-137.346
X176.59Y-138.786
X176.689Y-130.062
X176.867Y-105.994
X176.867Y-110.566
X177.145Y-124.073
X177.155Y-136.609
X177.204Y-125.847
X177.759Y-114.071
X177.789Y-127.025
X177.791Y-130.614
X177.873Y-122.336
X177.92Y-126.226
X178.391Y-140.64
X178.419Y-106.883
X178.419Y-107.696
X178.442Y-108.991
X178.442Y-109.703
X178.601Y-130.6
X178.683Y-122.336
X178.724Y-106.07
X179.001Y-140.183
X179.052Y-110.211
X179.102Y-137.897
X179.153Y-138.659
X179.153Y-139.37
X179.497Y-122.276
X179.689Y-132.503
X179.724Y-124.802
X179.731Y-127.276
X179.864Y-110.211
X180.042Y-105.486
X180.274Y-122.501
X180.426Y-114.071
X180.426Y-128.168
X181.11Y-122.358
X181.482Y-123.867
X181.571Y-130.659
X181.601Y-126.764
X181.947Y-108.026
X181.947Y-109.296
X181.947Y-110.566
X181.947Y-111.836
X181.947Y-113.106
X181.947Y-114.376
X181.95Y-119.913
X182.138Y-134.946
X182.374Y-125.586
X182.414Y-126.539
X182.425Y-127.349
X182.582Y-115.646
X182.658Y-111.379
X182.658Y-112.09
X182.718Y-119.657
X182.735Y-123.445
X182.966Y-124.612
X183.166Y-127.676
X183.173Y-125.422
X183.268Y-112.598
X183.344Y-135.712
X183.455Y-132.66
X183.486Y-119.913
X183.587Y-128.672
X183.601Y-130.2
X183.614Y-134.582
X184.109Y-122.072
X184.21Y-133.553
X184.24Y-129.668
X184.36Y-134.442
X184.372Y-128.87
X184.589Y-107.518
X184.886Y-121.847
X185.169Y-134.207
X185.169Y-136.855
X185.176Y-110.592
X185.379Y-128.803
X185.379Y-129.438
X185.63Y-107.772
X185.706Y-118.825
X185.734Y-121.761
X185.887Y-127.152
X185.988Y-110.592
X186.138Y-133.299
X186.209Y-119.971
X186.367Y-115.322
X186.522Y-127.152
X186.801Y-110.896
X186.926Y-109.144
X187.127Y-131.089
X187.157Y-127.406
X187.662Y-117.551
X187.665Y-128.041
X187.665Y-128.676
X187.665Y-129.311
X187.716Y-114.859
X187.738Y-107.01
X187.774Y-121.796
X187.792Y-127.406
X187.919Y-125.501
X187.919Y-131.089
X188.066Y-109.298
X188.173Y-131.851
X188.348Y-107.518
X188.424Y-133.299
X188.427Y-127.406
X188.528Y-115.164
X188.678Y-128.346
X188.678Y-129.235
X188.726Y-120.551
X188.728Y-131.088
X188.884Y-122.377
X188.884Y-123.038
X188.932Y-133.68
X189.062Y-127.406
X189.161Y-107.518
X189.186Y-137.109
X189.313Y-131.902
X189.313Y-132.791
X189.341Y-115.164
X189.44Y-129.108
X189.44Y-129.87
X189.694Y-121.869
X189.694Y-128.346
X189.697Y-127.406
X189.821Y-110.439
X189.824Y-125.755
X189.948Y-122.504
X190.026Y-119.251
X190.202Y-132.791
X190.205Y-126.39
X190.205Y-127.025
X190.329Y-123.393
X190.456Y-128.854
X190.456Y-131.902
X190.837Y-122.758
X190.964Y-129.743
X191.091Y-127.965
X191.091Y-132.664
X191.169Y-120.394
X191.528Y-140.538
X191.65Y-126.416
X191.853Y-109.044
X191.853Y-119.202
X191.983Y-121.209
X192.107Y-106.756
X192.107Y-111.201
X192.107Y-115.011
X192.336Y-141.554
X192.569Y-117.526
X193.225Y-114.529
X193.377Y-138.506
X193.633Y-142.57
X193.885Y-137.871
X194.012Y-106.756
X194.012Y-111.201
X194.012Y-115.646
X194.139Y-140.538
X194.266Y-127.711
X194.37Y-130.607
X194.395Y-142.57
X194.52Y-137.871
X194.526Y-120.085
X194.901Y-138.506
X195.157Y-139.522
X195.157Y-140.284
X195.157Y-141.046
X195.157Y-141.808
X195.157Y-142.57
X195.183Y-130.607
X195.996Y-130.912
X196.425Y-128.219
X196.552Y-125.425
X196.679Y-132.537
X196.679Y-134.061
X196.806Y-121.234
X197.012Y-110.592
X197.06Y-123.012
X197.822Y-135.331
X197.825Y-110.592
X197.949Y-132.664
X198.457Y-121.996
X198.457Y-124.917
X198.638Y-110.896
X198.711Y-135.331
X199.092Y-107.645
X199.092Y-115.392
X199.349Y-130.607
X199.4Y-122.936
X199.473Y-109.042
X199.6Y-124.917
X199.6Y-135.331
X199.854Y-132.664
X200.162Y-130.607
X200.212Y-122.936
X200.362Y-121.234
X200.362Y-135.331
X200.489Y-124.917
X200.974Y-130.912
X201.025Y-123.241
X201.251Y-132.664
X201.251Y-133.807
X201.251Y-134.569
X201.251Y-135.331
X201.378Y-124.409
X201.632Y-110.566
X201.632Y-127.584
X201.99Y-113.081
X202.041Y-115.672
X202.267Y-105.486
X202.803Y-113.081
X202.854Y-115.672
X203.08Y-105.486
X203.537Y-109.804
X203.616Y-113.386
X203.667Y-115.976
X203.69Y-105.994
X203.69Y-106.705
T3
X102.496Y-144.704
X102.496Y-147.244
X105.036Y-144.704
X105.036Y-147.244
X107.576Y-144.704
X107.576Y-147.244
X110.116Y-144.704
X110.116Y-147.244
X112.656Y-144.704
X112.656Y-147.244
X115.196Y-144.704
X115.196Y-147.244
X117.164Y-60.155
X117.164Y-62.695
X117.736Y-144.704
X117.736Y-147.244
X119.704Y-60.155
X119.704Y-62.695
X120.276Y-144.704
X120.276Y-147.244
X122.244Y-60.155
X122.244Y-62.695
X122.816Y-144.704
X122.816Y-147.244
X124.784Y-60.155
X124.784Y-62.695
X125.356Y-144.704
X125.356Y-147.244
X127.324Y-60.155
X127.324Y-62.695
X127.896Y-144.704
X127.896Y-147.244
X129.864Y-60.155
X129.864Y-62.695
X130.436Y-144.704
X130.436Y-147.244
X132.404Y-60.155
X132.404Y-62.695
X132.976Y-144.704
X132.976Y-147.244
X134.944Y-60.155
X134.944Y-62.695
X135.516Y-144.704
X135.516Y-147.244
X137.484Y-60.155
X137.484Y-62.695
X138.056Y-144.704
X138.056Y-147.244
X140.024Y-60.155
X140.024Y-62.695
X140.596Y-144.704
X140.596Y-147.244
X142.564Y-60.155
X142.564Y-62.695
X145.104Y-60.155
X145.104Y-62.695
X147.644Y-60.155
X147.644Y-62.695
X150.184Y-60.155
X150.184Y-62.695
X152.724Y-60.155
X152.724Y-62.695
X155.264Y-60.155
X155.264Y-62.695
X174.632Y-91.161
X174.632Y-93.701
X176.641Y-143.662
X176.641Y-147.218
X179.181Y-143.662
X179.181Y-147.218
X181.721Y-143.662
X181.721Y-147.218
X184.261Y-143.662
X184.261Y-147.218
X186.801Y-143.662
X186.801Y-147.218
X187.258Y-135.026
X187.258Y-137.566
X187.258Y-140.106
X189.341Y-143.662
X202.14Y-58.369
X202.14Y-60.909
X202.14Y-63.449
X202.14Y-65.989
X202.14Y-68.529
T4
X173.702Y-63.02
X173.702Y-65.52
X175.802Y-63.02
X178.402Y-63.02
X180.502Y-63.02
X180.502Y-65.52
T5
X170.352Y-60.02
X177.102Y-59.22
X183.852Y-60.02
T6
X88.9Y-60.96
X178.027Y-79.126
X200.66Y-142.24
M30
